<svg xmlns="http://www.w3.org/2000/svg" xmlns:xlink="http://www.w3.org/1999/xlink" width="84.139" height="26" viewBox="0 0 84.139 26">
  <defs>
    <clipPath id="clip-path">
      <rect id="Rectangle_91" data-name="Rectangle 91" width="84.139" height="26" fill="#fff"/>
    </clipPath>
  </defs>
  <g id="Group_55" data-name="Group 55" opacity="0.8">
    <g id="Group_54" data-name="Group 54" clip-path="url(#clip-path)">
      <path id="Path_127" data-name="Path 127" d="M13.028,0a1.879,1.879,0,0,0,.214.085q1.774.477,3.548.951,1.312.352,2.623.708a.354.354,0,0,1,.149.09q2.295,2.291,4.581,4.59a.9.9,0,0,1,.173.395c.336,1.245.666,2.491,1,3.737.209.781.427,1.56.621,2.345a.989.989,0,0,1-.058.454c-.36,1.353-.726,2.7-1.09,4.057-.179.665-.355,1.331-.536,2a.383.383,0,0,1-.095.161Q21.88,21.85,19.6,24.125a.628.628,0,0,1-.266.155c-1.177.32-2.356.633-3.534.947q-1.339.358-2.678.718a.415.415,0,0,0-.093.054h-.056a.452.452,0,0,0-.1-.052q-1.084-.293-2.169-.582Q8.68,24.823,6.651,24.28a.521.521,0,0,1-.226-.119Q4.133,21.877,1.85,19.584a.587.587,0,0,1-.134-.249c-.117-.418-.224-.839-.336-1.259Q.759,15.753.135,13.43c-.037-.136-.09-.268-.135-.4v-.056a.439.439,0,0,0,.053-.094q.293-1.084.582-2.169Q1.177,8.68,1.721,6.651A.6.6,0,0,1,1.87,6.4q2.249-2.258,4.5-4.512a.664.664,0,0,1,.319-.178q1.193-.315,2.384-.634Q10.809.608,12.542.141c.145-.039.287-.093.43-.141Zm5.748,13.792-4.989,4.984c.008,0,.049,0,.089,0H18.57c.206,0,.206,0,.206-.21q0-2.333,0-4.665Zm-.006-1.568c0-.033.006-.074.006-.114q0-2.353,0-4.707c0-.178-.006-.183-.191-.183H13.864a.814.814,0,0,0-.094.009l5,5m-6.542,6.557.035-.058-4.974-5-.063.047c0,.044-.007.088-.007.133q0,2.332,0,4.663c0,.218,0,.219.226.219h4.784m-5.01-6.535c.157-.068,4.99-4.92,5.01-5.026h-4.8c-.207,0-.208,0-.208.209q0,2.332,0,4.663v.154m.738,1.111,4.677,4.671c0-.03.009-.083.009-.135q0-2.172,0-4.344c0-.191,0-.191-.191-.191H7.955Zm4.678-5.392L7.956,12.637c.028,0,.072.006.116.006,1.467,0,2.933,0,4.4,0,.136,0,.171-.044.171-.175q-.006-2.186,0-4.372c0-.049-.005-.1-.008-.134m.727,10.057,4.662-4.657c-.023,0-.067-.007-.111-.007-1.462,0-2.924,0-4.386,0-.144,0-.178.045-.178.183,0,1.457,0,2.915,0,4.372a1.1,1.1,0,0,0,.009.113m4.661-5.379L13.35,7.978v.137q0,2.165,0,4.33c0,.2,0,.2.2.2H18.02ZM7.777,19.485l-.01.043,4.862,3.561c.006-.1.012-.149.012-.2q0-1.6,0-3.206c0-.2,0-.2-.21-.2H7.907c-.043,0-.087.005-.13.008M7.764,6.474l.012.038a.842.842,0,0,0,.1.013q2.3,0,4.6,0c.128,0,.168-.041.168-.167,0-1.092,0-2.184,0-3.276a1.642,1.642,0,0,0-.02-.167L7.764,6.474M2.912,13.369l3.563,4.868.038-.015c0-.039.009-.079.009-.118,0-1.522,0-3.044,0-4.566,0-.137-.037-.184-.18-.183-1.083.005-2.165,0-3.248,0-.048,0-.1.006-.185.012m3.6-5.591-.041-.011-3.56,4.864c.09.006.138.011.186.011H6.332c.19,0,.19,0,.19-.2q0-2.276,0-4.552c0-.039-.006-.078-.01-.117m11.711,11.75-.018-.042a1.006,1.006,0,0,0-.1-.011q-2.29,0-4.58,0c-.136,0-.173.047-.172.177,0,1.087,0,2.175,0,3.262,0,.047.01.093.018.17l4.854-3.555M13.363,2.913c-.006.089-.012.137-.012.186q0,1.617,0,3.235c0,.192,0,.192.193.192h4.54c.043,0,.086-.007.129-.011l.013-.04L13.363,2.913m6.114,15.3.044.02,3.558-4.863c-.089,0-.138-.01-.187-.01H19.659c-.188,0-.189,0-.189.195q0,2.262,0,4.524c0,.044,0,.089.006.133m3.6-5.578-3.557-4.86-.04.014c0,.043-.01.086-.01.129,0,1.517,0,3.034,0,4.551,0,.14.04.181.18.181,1.082-.005,2.165,0,3.247,0,.048,0,.1-.006.183-.011m.4-.664.042-.017a1,1,0,0,0,.011-.1q0-2.228,0-4.457c0-.121-.031-.173-.164-.172-1.064,0-2.129,0-3.194,0-.042,0-.085.008-.16.016l3.464,4.732m-3.466,6.8c.084.006.123.012.163.012h3.179c.17,0,.176-.006.176-.184q0-2.214,0-4.428a1.234,1.234,0,0,0-.012-.125l-.04-.011-3.466,4.736M18.758,5.983a1.285,1.285,0,0,0,.018-.13c0-1.078,0-2.156,0-3.234,0-.128-.056-.154-.169-.153q-2.221,0-4.442,0a1.165,1.165,0,0,0-.126.013l-.011.039,4.727,3.463m-4.728,17.5.016.042c.043,0,.086.011.129.011q2.214,0,4.428,0c.133,0,.177-.042.176-.175,0-1.055,0-2.11,0-3.165,0-.047-.01-.094-.019-.176L14.03,23.481M5.98,7.234c-.088-.007-.131-.014-.175-.014-1.055,0-2.11,0-3.165,0-.132,0-.177.039-.176.173,0,1.481,0,2.961,0,4.442a1.035,1.035,0,0,0,.014.123l.038.008L5.98,7.234m0,11.534L2.517,14.033l-.043.017c0,.044-.007.087-.007.131q0,2.207,0,4.414c0,.182,0,.185.188.185H5.791c.048,0,.1-.006.19-.012M7.217,5.94l.043.022,4.7-3.445-.019-.05H7.428c-.21,0-.21,0-.21.2q0,1.568,0,3.136V5.94m4.728,17.585.017-.042L7.226,20.014c0,.088-.008.132-.008.175q0,1.576,0,3.153c0,.191,0,.191.2.191h4.4c.043,0,.087-.005.13-.008M6.513,2.82l-3.7,3.7c.032,0,.075.009.119.009H6.321c.194,0,.2-.007.2-.205q0-1.687,0-3.375c0-.044-.006-.088-.009-.125M2.834,19.483l3.68,3.679c0-.024.007-.073.007-.121q0-1.68,0-3.361c0-.2-.008-.2-.2-.2H2.959c-.049,0-.1.005-.125.007M19.479,2.841a.761.761,0,0,0-.008.092c0,1.142,0,2.285,0,3.427,0,.143.061.167.184.167,1.133,0,2.266,0,3.4,0,.043,0,.087-.006.108-.008l-3.68-3.676m3.682,16.644a.8.8,0,0,0-.091-.009c-1.143,0-2.286,0-3.429,0-.136,0-.173.049-.173.18,0,1.134,0,2.268,0,3.4,0,.044.006.087.008.11l3.683-3.679M9.442,1.7v.038a.744.744,0,0,0,.116.018c.985,0,1.97,0,2.955,0,.1,0,.131-.035.129-.13,0-.194,0-.388,0-.583s-.006-.2-.194-.148l-2.127.569L9.442,1.7m3.186,23.45c.006-.073.012-.118.012-.163,0-.194-.007-.389,0-.582.007-.132-.042-.164-.167-.164-.962,0-1.923,0-2.885,0a1.094,1.094,0,0,0-.151.02V24.3l3.188.852M1.7,16.556l.037,0a1.323,1.323,0,0,0,.018-.154q0-1.428,0-2.857c0-.186,0-.186-.18-.186s-.342,0-.513,0c-.062,0-.125.007-.212.012Zm.039-7.11H1.7c-.007.02-.016.041-.022.061q-.2.736-.39,1.472c-.133.5-.267,1-.4,1.5-.041.152-.032.164.116.165.194,0,.389-.007.582,0,.135.007.172-.04.172-.173,0-.961,0-1.923,0-2.884a1.21,1.21,0,0,0-.016-.142M16.553,1.736V1.7L13.363.85c-.006.072-.012.116-.012.161,0,.194.007.389,0,.583-.007.131.041.164.167.164.962,0,1.924,0,2.887,0a1.085,1.085,0,0,0,.152-.021m0,22.562c0-.012,0-.024,0-.036a1.286,1.286,0,0,0-.155-.019H13.538c-.188,0-.188,0-.188.193s0,.361,0,.541c0,.049.007.1.013.171l3.189-.852m8.59-10.941c-.287,0-.536,0-.784,0-.1,0-.124.038-.124.131,0,.975,0,1.951,0,2.927a.714.714,0,0,0,.029.143l.031-.005.853-3.194M24.29,9.45l-.039,0a1.262,1.262,0,0,0-.021.167q0,1.324.007,2.649c0,.381,0,.381.384.381h.523L24.29,9.45" fill="#fff"/>
      <path id="Path_128" data-name="Path 128" d="M715.146,51.69h-.292v-.976l-.049-.009c-.045.087-.09.174-.135.26-.064.123-.125.248-.2.366-.025.041-.076.091-.116.091s-.093-.048-.116-.089c-.093-.165-.176-.336-.265-.5-.023-.043-.053-.082-.08-.123l-.036.007v.941c-.222.077-.26.051-.26-.151,0-.393,0-.787,0-1.18,0-.05.033-.142.054-.143.092,0,.2-.058.267.072.112.228.232.452.351.677.022.041.052.078.095.141l.171-.33.193-.369c.118-.226.147-.239.413-.184v.028a.684.684,0,0,0-.027.133q0,.589,0,1.178a.688.688,0,0,0,.027.133Z" transform="translate(-631.007 -44.356)" fill="#fff"/>
      <path id="Path_129" data-name="Path 129" d="M611.682,62.246l1.5-1.641.1.134a3.228,3.228,0,0,0,2.177,1.385,2.7,2.7,0,0,0,3.19-1.9,6.638,6.638,0,0,0,.35-1.986.35.35,0,0,0-.017-.068.97.97,0,0,0-.1.111,2.785,2.785,0,0,1-1.746,1.238,4.8,4.8,0,0,1-4.337-.984,4.279,4.279,0,0,1-1.5-2.469,4.772,4.772,0,0,1,3.3-5.66,5.177,5.177,0,0,1,4.227.391,4.631,4.631,0,0,1,1.946,2.267,8.071,8.071,0,0,1,.637,2.825,13.906,13.906,0,0,1-.2,3.331,7.931,7.931,0,0,1-1.266,3.229,4.4,4.4,0,0,1-3.066,1.914,5.263,5.263,0,0,1-5.192-2.114M613.668,55a2.606,2.606,0,0,0,5.211.008,2.7,2.7,0,0,0-2.614-2.67,2.667,2.667,0,0,0-2.6,2.662" transform="translate(-540.441 -44.326)" fill="#fff"/>
      <path id="Path_130" data-name="Path 130" d="M259.577,60.7a3.288,3.288,0,0,0,.783.861,3.22,3.22,0,0,0,2.921.577,2.487,2.487,0,0,0,1.439-1.175,4.455,4.455,0,0,0,.585-1.765c.037-.275.051-.552.074-.829a1.235,1.235,0,0,0-.006-.128,1.109,1.109,0,0,0-.1.11,2.742,2.742,0,0,1-1.763,1.256,4.748,4.748,0,0,1-4.808-1.457,4.312,4.312,0,0,1-1.123-2.646,4.688,4.688,0,0,1,1.066-3.449,4.825,4.825,0,0,1,2.836-1.7,5.5,5.5,0,0,1,2.677.081,4.4,4.4,0,0,1,2.6,1.961,6.678,6.678,0,0,1,.89,2.36,12.54,12.54,0,0,1,.1,3.429,10.473,10.473,0,0,1-.631,2.848,5.532,5.532,0,0,1-1.886,2.62,4.437,4.437,0,0,1-2.277.834,5.217,5.217,0,0,1-4.792-2.052.132.132,0,0,1,.007-.209c.448-.481.889-.968,1.333-1.453.021-.023.046-.044.082-.079m3.074-3.023a2.608,2.608,0,0,0,2.612-2.566,2.607,2.607,0,1,0-5.214-.024,2.611,2.611,0,0,0,2.6,2.589" transform="translate(-227.752 -44.421)" fill="#fff"/>
      <path id="Path_131" data-name="Path 131" d="M525.62,61.691c0-.056.009-.1.009-.151,0-1.56,0-3.12,0-4.68,0-.139.034-.18.177-.178.634.008,1.268.006,1.9,0,.116,0,.146.032.146.148q-.005,4.735,0,9.47a3.3,3.3,0,0,0,.02.346.482.482,0,0,0,.426.446c.124.025.164.075.162.2-.007.523-.005,1.046,0,1.569,0,.1-.024.154-.131.169a3.183,3.183,0,0,1-1.577-.023,1.071,1.071,0,0,1-.727-.916c-.022-.146-.025-.295-.037-.442,0-.044-.01-.087-.021-.173a1.118,1.118,0,0,0-.11.12,3.273,3.273,0,0,1-2.267,1.5,4.012,4.012,0,0,1-4.448-2.36,5.257,5.257,0,0,1-.429-2.707,4.773,4.773,0,0,1,1.174-2.789,3.445,3.445,0,0,1,2.255-1.193,3.36,3.36,0,0,1,3.374,1.55.569.569,0,0,0,.049.067c.008.008.023.01.056.022m.028,3.042c0-.31,0-.62,0-.93a.77.77,0,0,0-.061-.281,2.76,2.76,0,0,0-.89-1.115,2.137,2.137,0,0,0-3.15.444A2.955,2.955,0,0,0,521,64.3a2.689,2.689,0,0,0,.629,2.144,2.268,2.268,0,0,0,2.2.809,2.494,2.494,0,0,0,1.619-1.083,1.008,1.008,0,0,0,.208-.674c-.016-.253,0-.509,0-.763" transform="translate(-458.651 -50.121)" fill="#fff"/>
      <path id="Path_132" data-name="Path 132" d="M353.267,88.057l-.436-.9c-.062-.129-.118-.262-.187-.387-.046-.083-.033-.127.047-.178a6.951,6.951,0,0,1,1.774-.807,6.6,6.6,0,0,1,2.432-.218,3.915,3.915,0,0,1,2.251.842,2.825,2.825,0,0,1,1,1.687,7.646,7.646,0,0,1,.117,1.239c.017.833,0,1.666.007,2.5a1.972,1.972,0,0,0,.035.4.461.461,0,0,0,.412.378c.125.019.164.073.162.2-.008.528,0,1.055,0,1.583,0,.076-.007.137-.1.152a3.122,3.122,0,0,1-1.63-.027,1.078,1.078,0,0,1-.705-.905c-.026-.157-.036-.317-.057-.508a.987.987,0,0,0-.111.1,3.859,3.859,0,0,1-2.543,1.443,3.243,3.243,0,0,1-2.556-.571,2.6,2.6,0,0,1-1.02-2.663,2.539,2.539,0,0,1,1.456-1.848,4.824,4.824,0,0,1,2.39-.5,5.675,5.675,0,0,1,1.927.348c.061.023.117.029.118-.056a2.938,2.938,0,0,0-.169-1.322,1.554,1.554,0,0,0-1.2-.907,4.135,4.135,0,0,0-2.941.634c-.151.089-.3.185-.467.289m4.795,3.181h-.015c0-.162,0-.324,0-.485a.129.129,0,0,0-.109-.15c-.436-.1-.867-.231-1.308-.287a2.759,2.759,0,0,0-1.445.158,1.479,1.479,0,0,0-.922.882A1.314,1.314,0,0,0,355.225,93a2.534,2.534,0,0,0,2.19-.454,1.319,1.319,0,0,0,.592-.694,3.809,3.809,0,0,0,.055-.617" transform="translate(-311.348 -75.64)" fill="#fff"/>
      <path id="Path_133" data-name="Path 133" d="M440.081,87.3c.046-.038.064-.047.073-.061a3.406,3.406,0,0,1,1.833-1.433,4.5,4.5,0,0,1,2.227-.216,2.144,2.144,0,0,1,1.741,1.437,3.75,3.75,0,0,1,.274,1.353c.022,2,.025,4.008.038,6.012,0,.108-.041.132-.139.131-.648,0-1.3,0-1.944,0-.127,0-.152-.042-.152-.16q0-2.493,0-4.986a2.409,2.409,0,0,0-.31-1.292,1.266,1.266,0,0,0-1.3-.587,2.676,2.676,0,0,0-2.085,1.718.784.784,0,0,0-.047.3q0,2.416,0,4.833c0,.144-.039.178-.178.177q-.951-.011-1.9,0c-.124,0-.155-.036-.154-.157q.005-4.257,0-8.513c0-.129.037-.165.163-.164q.847.009,1.694,0c.12,0,.159.031.157.156-.008.426,0,.852,0,1.278,0,.048.008.1.015.176" transform="translate(-387.353 -75.635)" fill="#fff"/>
      <path id="Path_134" data-name="Path 134" d="M701.614,51.735c-.228.051-.247.037-.248-.171,0-.314,0-.628,0-.943,0-.18,0-.183-.189-.184H701c-.068,0-.127,0-.129-.1s.048-.1.122-.1q.5,0,1,0c.076,0,.123.013.121.1s-.05.1-.117.1h-.042c-.36,0-.336-.055-.337.347,0,.318,0,.635,0,.95" transform="translate(-619.749 -44.423)" fill="#fff"/>
    </g>
  </g>
</svg>
