<svg xmlns="http://www.w3.org/2000/svg" xmlns:xlink="http://www.w3.org/1999/xlink" width="1366" height="575.676" viewBox="0 0 1366 575.676">
  <defs>
    <radialGradient id="radial-gradient" cx="0.5" cy="0.5" r="0.507" gradientUnits="objectBoundingBox">
      <stop offset="0" stop-color="#ffd605"/>
      <stop offset="0.659" stop-color="#ffd833" stop-opacity="0.961"/>
      <stop offset="1" stop-color="#ffce00" stop-opacity="0"/>
    </radialGradient>
    <linearGradient id="linear-gradient" x1="0.5" y1="1" x2="0.5" gradientUnits="objectBoundingBox">
      <stop offset="0" stop-color="#ffe2df"/>
      <stop offset="0.014" stop-color="#8d1c24" stop-opacity="0.102"/>
      <stop offset="0.106" stop-color="#e7b7b5"/>
      <stop offset="0.192" stop-color="#d89c9c"/>
      <stop offset="0.269" stop-color="#8d2229"/>
      <stop offset="0.328" stop-color="#ad4048"/>
      <stop offset="0.618" stop-color="#72151b"/>
      <stop offset="0.837" stop-color="#621f24"/>
      <stop offset="1" stop-color="#6a151b"/>
    </linearGradient>
    <linearGradient id="linear-gradient-2" x1="0.5" y1="1" x2="0.5" gradientUnits="objectBoundingBox">
      <stop offset="0" stop-color="#ffe2df"/>
      <stop offset="0.014" stop-color="#fbdbd9"/>
      <stop offset="0.106" stop-color="#e7b7b5"/>
      <stop offset="0.192" stop-color="#d89c9c"/>
      <stop offset="0.269" stop-color="#cf8c8c"/>
      <stop offset="0.328" stop-color="#c78b8b"/>
      <stop offset="0.552" stop-color="#be7a7b"/>
      <stop offset="0.837" stop-color="#b94f55"/>
      <stop offset="1" stop-color="#a58082"/>
    </linearGradient>
    <linearGradient id="linear-gradient-3" x1="0.5" y1="1" x2="0.5" gradientUnits="objectBoundingBox">
      <stop offset="0.315" stop-color="#d8b596"/>
      <stop offset="0.406" stop-color="#c39e82"/>
      <stop offset="0.58" stop-color="#a17a62"/>
      <stop offset="0.743" stop-color="#895f4b"/>
      <stop offset="0.888" stop-color="#7a4f3c"/>
      <stop offset="1" stop-color="#754a38"/>
    </linearGradient>
    <linearGradient id="linear-gradient-7" x1="0.5" y1="1" x2="0.5" gradientUnits="objectBoundingBox">
      <stop offset="0.147" stop-color="#d3b082"/>
      <stop offset="0.356" stop-color="#b8946b"/>
      <stop offset="0.788" stop-color="#866040"/>
      <stop offset="1" stop-color="#734c30"/>
    </linearGradient>
    <linearGradient id="linear-gradient-8" x1="0.5" y1="1" x2="0.5" y2="-0.099" xlink:href="#linear-gradient-7"/>
    <linearGradient id="linear-gradient-9" x1="0.5" y1="1" x2="0.5" gradientUnits="objectBoundingBox">
      <stop offset="0" stop-color="#3d3925"/>
      <stop offset="1" stop-color="#7d692d"/>
    </linearGradient>
    <linearGradient id="linear-gradient-10" x1="0.085" y1="2.693" x2="0.053" y2="1.823" xlink:href="#linear-gradient-7"/>
    <linearGradient id="linear-gradient-14" x1="0.5" y1="1" x2="0.5" gradientUnits="objectBoundingBox">
      <stop offset="0" stop-color="#615b2e"/>
      <stop offset="1" stop-color="#b49d36"/>
    </linearGradient>
    <linearGradient id="linear-gradient-18" x1="0.556" y1="2.067" x2="0.556" y2="1.113" xlink:href="#linear-gradient-9"/>
    <linearGradient id="linear-gradient-23" x1="-24.775" y1="1" x2="-24.775" y2="0" xlink:href="#linear-gradient-14"/>
  </defs>
  <g id="footer-bg" transform="translate(0 -4212.249)">
    <g id="bg" transform="translate(-19.742 4161.633)" opacity="0.569" style="mix-blend-mode: soft-light;isolation: isolate">
      <rect id="Rectangle_3244" data-name="Rectangle 3244" width="1365.999" height="521.892" transform="translate(19.743 50.616)" fill="#8d1c24"/>
      <circle id="Ellipse_147" data-name="Ellipse 147" cx="55.409" cy="55.409" r="55.409" transform="translate(572.846 225.87) rotate(-45)" fill="url(#radial-gradient)"/>
      <path id="Path_160434" data-name="Path 160434" d="M1221.47,194.047c-28.528-3.741-48.019-4.953-72.248-16.908-24.856-12.266-22.216-14.246-53.111-15.241-32.852-1.055-49.245-6.278-77.128-13.2-72.845-18.094-137.8-16.524-212.6-8.1-37.192,4.191-66.1-.115-113.991,23.561-16.331,6.533-32.828,15.44-50.8,16.1-28.579,1.047-60.717.73-88.162-6.445-8.714-2.278-17.33-6.5-26-5.868-12.377.909-18.781,10.819-29.483,14.463-19.587,6.668-46.278-8.863-64.919-13.723-22.57-5.886-43.784-11.573-65.319-1.689-29.32,13.454-54.753,22.968-87.808,20.1-25.5-2.211-49.358-5.192-73.886-11.337-20.5-5.134-41.022-9.353-61.823-13.285-9.942-1.88-19.255-3.4-28.235-8.234-5.046-2.716-8.873-7.112-14.538-8.073-7.6-1.291-15.018,2.539-22.124,4.044-6.117,1.3-11.518,1.3-17.989,1.614-13.243.641-26.524,2.247-39.773,3.711V364.564H1381.287V213.039C1320.58,213.039,1278.905,201.579,1221.47,194.047Z" transform="translate(1.807 59.542)" fill="url(#linear-gradient)"/>
      <path id="Path_160435" data-name="Path 160435" d="M21.531,240.216s3.427-.971,4.119-.752c6.758,2.147,11.944,3.431,19.217,3.52,16.616.2,30.512-10.429,47.185-9.363,30.88,1.976,67.1,11.47,98.287,5.331,17.545-3.451,33.578-11.79,51.143-15.77a290.055,290.055,0,0,0,35.275-10.865,395.474,395.474,0,0,1,77.52-19.748c10.811-1.552,20.789.285,29.533-4.189,11.842-6.057,14.3-8.177,29.608-8.975,20.174-1.051,40.364,0,60.159,4.969,13.665,3.433,23.809,6.766,38.274,6.463,10.344-.215,19.471-2.627,29.334,1.337,8.427,3.389,14.272,11.4,23.095,15.074,8.994,3.747,17.83,4.36,27.435,5.524,12.554,1.52,25.025,3.821,36.923,5.944,26.788,4.78,66.07,19.822,93.427,13.567,24.375-5.572,38.816-9.193,63.194-4.78,15.872,2.873,26.281,16.244,40.129,19.587,55.374,13.368,101.536-20.506,152.876-30.678a132.864,132.864,0,0,1,28.809-2.659c19.7.442,41.729-.48,60.414,5.134,33.18,9.973,67.112,20.508,101.972,24.174,12.035,1.264,15.979,2.579,25.748,5.954,12.964,4.477,28.995,5.52,42.877,7.418,17.036,2.332,37.522.889,54.411-2.185,18.232-3.317,36.175-8.181,54.642-10.383,11.627-1.385,24.591,1.749,34.149-6.157V369.146H21.531Z" transform="translate(1.807 93.833)" fill="url(#linear-gradient-2)"/>
      <path id="Path_160436" data-name="Path 160436" d="M19.742,497.483l1036.528-3.518-.153-209.488a6.89,6.89,0,0,0-2.531.525,4.511,4.511,0,0,0,.036-.553,4.87,4.87,0,0,0-5.023-4.7,5.208,5.208,0,0,0-2.786.8,4.07,4.07,0,0,0-4.155-3.582c-.151,0-.3.01-.444.024a7.654,7.654,0,0,0,.177-1.658,8.4,8.4,0,0,0-8.662-8.107,8.823,8.823,0,0,0-6.766,3.1,5.059,5.059,0,0,0-5.074-4.014,5.421,5.421,0,0,0-1.411.193,3.737,3.737,0,0,0,.43-1.735,4.047,4.047,0,0,0-4.175-3.906,4.354,4.354,0,0,0-1.626.314,6.9,6.9,0,0,0-7.1-6.513,7.42,7.42,0,0,0-3.415.834,10.582,10.582,0,0,0-8.421-4.024,10.351,10.351,0,0,0-9.773,6.537,6.828,6.828,0,0,0-3.864-1.174,6.378,6.378,0,0,0-6.551,6.191v.681a5.647,5.647,0,0,0-2.235.842,8.66,8.66,0,0,0-8.2-5.425,8.833,8.833,0,0,0-7.02,3.393,6.191,6.191,0,0,0-2.858-.683,5.755,5.755,0,0,0-5.9,5.468,3.668,3.668,0,0,0-1.361-.257,3.38,3.38,0,0,0-3.472,3.281,3.1,3.1,0,0,0,.366,1.447,4.457,4.457,0,0,0-1.18-.155,4.225,4.225,0,0,0-4.223,3.373,7.3,7.3,0,0,0-4.119-2.408,13.294,13.294,0,0,0-5.986-4.915,14.214,14.214,0,0,0-15.4,2.862,8.386,8.386,0,0,0-3.94-3.353,8.822,8.822,0,0,0-11.357,4.079l-.386.812a7.61,7.61,0,0,0-3.152-.125,10.614,10.614,0,0,0-6.68-10.62,11.976,11.976,0,0,0-10.318.5,7.658,7.658,0,0,0-3.019-2.261,7.963,7.963,0,0,0-10.172,3.544,4.556,4.556,0,0,0-1.475-1,4.673,4.673,0,0,0-6.018,2.161,4.044,4.044,0,0,0-.39,1.912,5.755,5.755,0,0,0-1.319-.782,5.824,5.824,0,0,0-6.967,1.892,9.035,9.035,0,0,0-5.3-5.926,9.7,9.7,0,0,0-12.489,4.483,8.614,8.614,0,0,0-.607,1.731c-.139-.074-.281-.145-.432-.209a4.7,4.7,0,0,0-5.846,1.843,5.366,5.366,0,0,0-2.4-1.966,5.765,5.765,0,0,0-5.393.495,4.2,4.2,0,0,0-3.472-1.771,4.048,4.048,0,0,0-.444.024,7.664,7.664,0,0,0,.177-1.658,8.4,8.4,0,0,0-8.662-8.109,8.83,8.83,0,0,0-6.766,3.1,5.057,5.057,0,0,0-5.074-4.012,5.422,5.422,0,0,0-1.411.191,3.7,3.7,0,0,0,.43-1.733,4.05,4.05,0,0,0-4.173-3.908,4.4,4.4,0,0,0-1.628.316,6.892,6.892,0,0,0-7.1-6.513,7.394,7.394,0,0,0-3.415.834,10.578,10.578,0,0,0-8.421-4.026,10.359,10.359,0,0,0-9.773,6.537,6.811,6.811,0,0,0-3.864-1.172,6.379,6.379,0,0,0-6.551,6.191v.107c-.022.014-.044.022-.064.036a3.191,3.191,0,0,0-3.256-2.808,3.3,3.3,0,0,0-.348.02,6.171,6.171,0,0,0,.139-1.3,6.584,6.584,0,0,0-6.788-6.354,6.919,6.919,0,0,0-5.3,2.428,3.963,3.963,0,0,0-3.976-3.144,4.2,4.2,0,0,0-1.108.151,2.9,2.9,0,0,0,.338-1.359,3.172,3.172,0,0,0-3.271-3.064,3.467,3.467,0,0,0-1.274.247,5.4,5.4,0,0,0-5.562-5.1,5.8,5.8,0,0,0-2.676.653,8.3,8.3,0,0,0-6.6-3.154,8.116,8.116,0,0,0-7.659,5.124,5.331,5.331,0,0,0-5.534-.277,8.192,8.192,0,0,0-5,3,5.807,5.807,0,0,0-2.68-.641l-.056,0a7.643,7.643,0,0,0-4.262-.181,7.4,7.4,0,0,0-2.026.816h0a9.571,9.571,0,0,0-11.583-6.418,9.711,9.711,0,0,0-3.506,1.636,6.287,6.287,0,0,0-8.185-1.648,6.54,6.54,0,0,0-.177-2.627,7.643,7.643,0,0,0-12.932-2.718,5.339,5.339,0,0,0-.119-.549,6.178,6.178,0,0,0-10.551-2.1,8.947,8.947,0,0,0-10.035-4.318,8.4,8.4,0,0,0-6.515,7.146,14.6,14.6,0,0,0-6.941-.008,13.186,13.186,0,0,0-10.336,12.113,7.994,7.994,0,0,0-4.3-.1c.088-.169.169-.342.241-.521a5.665,5.665,0,0,0-3.562-7.426,6.464,6.464,0,0,0-3.89-.133,8.311,8.311,0,0,0-5.641-9.114,9.267,9.267,0,0,0-9.862,2.34,13.985,13.985,0,0,0-5.757-3.831c-7.249-2.577-15.348.858-18.09,7.677a12.452,12.452,0,0,0-.9,5.172c-.133-.056-.265-.117-.4-.167a7.522,7.522,0,0,0-9.5,4.034,6.586,6.586,0,0,0-.346,1.182,9.534,9.534,0,0,0-4.7-3.568,10.174,10.174,0,0,0-8.425.734,9.9,9.9,0,0,0-6.543-7.444,10.568,10.568,0,0,0-13.329,5.61,5.708,5.708,0,0,0-2.879-2.237,5.928,5.928,0,0,0-7.488,3.178,5.142,5.142,0,0,0-.189,3.289,10.091,10.091,0,0,0-3.365,3.164,4.107,4.107,0,0,0-1.687-.129,4.165,4.165,0,0,0-.77.177,5.848,5.848,0,0,0-.9-.49,6.649,6.649,0,0,0-7.269-4.388,6.83,6.83,0,0,0-3.053,1.184,10.08,10.08,0,0,0-8.362-2.722,9.493,9.493,0,0,0-8.179,7.241,6.435,6.435,0,0,0-2.623-.6l-.115-.756a7.3,7.3,0,0,0-8.31-5.894,7.5,7.5,0,0,0-4.089,1.875,11.847,11.847,0,0,0-11.947-5.8A11.621,11.621,0,0,0,422.852,235a8.394,8.394,0,0,0-3.93-.416,7.568,7.568,0,0,0-6.78,8.282,4.934,4.934,0,0,0-1.857-.107,4.442,4.442,0,0,0-3.972,4.955,4.218,4.218,0,0,0,.768,1.861,6.073,6.073,0,0,0-1.6,0,5.547,5.547,0,0,0-4.955,5.208,10.059,10.059,0,0,0-8.031-2.432,9.431,9.431,0,0,0-8.218,7.564,8.828,8.828,0,0,0-8.943-4.392,8.614,8.614,0,0,0-6.812,4.951,8.409,8.409,0,0,0-6.748-2.064,8.283,8.283,0,0,0-4.541,2.1,5.374,5.374,0,0,0-.05-1.027,6.129,6.129,0,0,0-6.979-4.949c-.125.016-.243.042-.364.066a10.382,10.382,0,0,0,.279-4.388c-.9-6.053-6.849-10.27-13.283-9.422a12.108,12.108,0,0,0-5.464,2.133,7.591,7.591,0,0,0-7.6-3.628,7.2,7.2,0,0,0-6.4,6.473,5.378,5.378,0,0,0-3.208-.567,4.888,4.888,0,0,0-4.372,5.454,4.462,4.462,0,0,0,.094.466,6.662,6.662,0,0,0-3.839-.631,6.488,6.488,0,0,0-3.289,1.417,8.222,8.222,0,0,0-2.762-.111,7.778,7.778,0,0,0-5.62,3.54,4.635,4.635,0,0,0-5.039-2.987,4.89,4.89,0,0,0-1.23.334,3.308,3.308,0,0,0,.157-1.592,3.711,3.711,0,0,0-4.225-3,3.878,3.878,0,0,0-1.407.468,6.321,6.321,0,0,0-7.166-4.979,6.577,6.577,0,0,0-2.931,1.136,9.668,9.668,0,0,0-8.021-2.611,9.108,9.108,0,0,0-7.848,6.947,6.169,6.169,0,0,0-2.517-.579l-.109-.724a7,7,0,0,0-7.974-5.655,7.2,7.2,0,0,0-3.924,1.8,11.359,11.359,0,0,0-11.458-5.564,11.151,11.151,0,0,0-8.316,5.488,8.01,8.01,0,0,0-3.769-.4,7.259,7.259,0,0,0-6.5,7.944,4.753,4.753,0,0,0-1.783-.1,4.479,4.479,0,0,0-3.265,2.089,7.025,7.025,0,0,0-4.605-1.415,3.617,3.617,0,0,0-4.6-.9,5.875,5.875,0,0,0-6.664-4.629,6.1,6.1,0,0,0-2.726,1.055,8.989,8.989,0,0,0-7.46-2.428,8.725,8.725,0,0,0-5.966,3.5,9.33,9.33,0,0,0-4.187.314,6.627,6.627,0,0,0-7-3.821,6.7,6.7,0,0,0-3.648,1.672c-.052-.092-.111-.181-.165-.273l-1.212,1.325a13.883,13.883,0,0,0-11.07,8.382,12.441,12.441,0,0,0-.895,4.684l-.33.358a.793.793,0,0,0-.082-.034,7.517,7.517,0,0,0-9.5,4.032,6.584,6.584,0,0,0-.346,1.182,9.519,9.519,0,0,0-4.7-3.566,10.178,10.178,0,0,0-8.427.732,9.9,9.9,0,0,0-6.541-7.444,10.569,10.569,0,0,0-13.329,5.61,5.713,5.713,0,0,0-2.879-2.235,5.924,5.924,0,0,0-7.488,3.178,5.124,5.124,0,0,0-.191,3.287,10.134,10.134,0,0,0-3.365,3.166,4.072,4.072,0,0,0-2.454.048,5.854,5.854,0,0,0-.9-.492,6.656,6.656,0,0,0-7.269-4.388,6.83,6.83,0,0,0-3.055,1.186,10.076,10.076,0,0,0-8.36-2.724,9.5,9.5,0,0,0-8.181,7.241,6.42,6.42,0,0,0-2.623-.6l-.113-.756a7.3,7.3,0,0,0-8.312-5.9,7.524,7.524,0,0,0-4.089,1.875,11.841,11.841,0,0,0-11.944-5.8,11.619,11.619,0,0,0-8.668,5.719,8.34,8.34,0,0,0-3.93-.416l-.028,0Z" transform="translate(0 119.21)" opacity="0.754" fill="url(#linear-gradient-3)"/>
      <path id="Path_160437" data-name="Path 160437" d="M1385.722,254.791a7.288,7.288,0,0,0-1.745-4.963,8.84,8.84,0,0,0-11.725-1.373,7.873,7.873,0,0,0-2.233,2.426,5.9,5.9,0,0,0-.422-.573,6.746,6.746,0,0,0-8.947-1.047,5.887,5.887,0,0,0-2.145,2.788,5.626,5.626,0,0,0-7.148-.563c-.151.109-.291.223-.426.342a10.159,10.159,0,0,0-1.192-1.765,11.633,11.633,0,0,0-15.43-1.807,9.869,9.869,0,0,0-4.26,7.91,6.965,6.965,0,0,0-8.429-.33,6.209,6.209,0,0,0-1.264,1.2,4.7,4.7,0,0,0-1-2.02,5.6,5.6,0,0,0-7.436-.87,4.989,4.989,0,0,0-1.379,1.475,9.54,9.54,0,0,0-12.534-1.351,8.407,8.407,0,0,0-2.754,3.271,14.083,14.083,0,0,0-11.812,2.054,11.629,11.629,0,0,0-4.453,13.46,8.777,8.777,0,0,0-4.862,1.61,8.033,8.033,0,0,0-1.385,1.262,8.028,8.028,0,0,0-7.046-3.956,8.58,8.58,0,0,0-2.382.336h0c0-5.295-4.656-9.586-10.4-9.586a11.107,11.107,0,0,0-4.187.812,6.573,6.573,0,0,0-6.209-4.057,7.094,7.094,0,0,0-1.978.279,6.981,6.981,0,0,0,.575-2.774c0-4.145-3.642-7.5-8.139-7.5a8.567,8.567,0,0,0-4.76,1.419,5.905,5.905,0,0,0,.032-.6,6.349,6.349,0,0,0-6.591-6.077,6.916,6.916,0,0,0-3.97,1.234,9.418,9.418,0,0,0-9.367-7.016,9.566,9.566,0,0,0-8.979,5.771,16.029,16.029,0,0,0-7.349-1.761c-.233,0-.46.022-.692.032a14.37,14.37,0,0,0-9.267-8.111,15.871,15.871,0,0,0-13.354,1.968,10.244,10.244,0,0,0-4.266-2.495c-5.261-1.576-10.905,1.029-12.71,5.825a6.218,6.218,0,0,0-9.581,2.452,5.078,5.078,0,0,0-.223,2.491,7.713,7.713,0,0,0-10.622,2.479,11.952,11.952,0,0,0-7.773-6.879c-6.5-1.946-13.478,1.333-15.589,7.325a10.75,10.75,0,0,0-.533,2.286,6.251,6.251,0,0,0-.593-.211,6.125,6.125,0,0,0-7.335,3.1,7.171,7.171,0,0,0-3.421-2.2,7.317,7.317,0,0,0-9.04,4.25,6.07,6.07,0,0,0-.209.752,9.573,9.573,0,0,0-3.365-1.783,10.052,10.052,0,0,0-3.453-.4,9.733,9.733,0,0,0-10.244-5.005,9.51,9.51,0,0,0-6.766,4.436,5.737,5.737,0,0,0-6.294-3.435,5.945,5.945,0,0,0-1.5.44,3.891,3.891,0,0,0,.133-1.922,4.569,4.569,0,0,0-5.293-3.472,4.831,4.831,0,0,0-1.711.607,7.784,7.784,0,0,0-8.975-5.763,8.079,8.079,0,0,0-3.556,1.459,12.066,12.066,0,0,0-9.94-2.891,11.046,11.046,0,0,0-9.379,8.606,7.755,7.755,0,0,0-4.431-.605,7.592,7.592,0,0,0-2.163.675,10.133,10.133,0,0,0-2.121-1.168,10.61,10.61,0,0,0-2.028-.581,4.191,4.191,0,0,0-1.208-.177c-.048,0-.094,0-.143.006a10.854,10.854,0,0,0-1.4.012,6.425,6.425,0,0,0-6.609-5.727,7.022,7.022,0,0,0-3.2.76,9.982,9.982,0,0,0-7.878-3.713,9.7,9.7,0,0,0-9.168,5.982,6.475,6.475,0,0,0-3.616-1.086,6.073,6.073,0,0,0-5.966,4.316,8.866,8.866,0,0,0-3.926.215,8.555,8.555,0,0,0-12.6.637,5.9,5.9,0,0,0-2.674-.633,5.351,5.351,0,0,0-5.542,5.007,3.493,3.493,0,0,0-1.272-.237,3.286,3.286,0,0,0-2.869,1.6,6.527,6.527,0,0,0-4.075,1.839,4.318,4.318,0,0,0-3.317-1.508,4.488,4.488,0,0,0-1.638.308,6.887,6.887,0,0,0-7.132-6.445,7.578,7.578,0,0,0-3.439.816,10.735,10.735,0,0,0-8.471-3.992,10.435,10.435,0,0,0-9.86,6.433,6.954,6.954,0,0,0-3.888-1.166,6.371,6.371,0,0,0-6.613,6.1v.671a5.775,5.775,0,0,0-2.253.828,8.721,8.721,0,0,0-8.24-5.375,8.971,8.971,0,0,0-7.078,3.335,6.355,6.355,0,0,0-2.877-.681,5.755,5.755,0,0,0-5.958,5.385,3.743,3.743,0,0,0-1.369-.255,3.374,3.374,0,0,0-3.5,3.23,3.015,3.015,0,0,0,.366,1.429,4.7,4.7,0,0,0-1.188-.155,4.236,4.236,0,0,0-4.262,3.319,7.5,7.5,0,0,0-5.7-2.545,7.749,7.749,0,0,0-2.547.432,6.342,6.342,0,0,0-6.72.141c.014-.145.024-.289.024-.436a4.633,4.633,0,0,0-4.81-4.434,5.048,5.048,0,0,0-2.9.9,6.869,6.869,0,0,0-6.833-5.118,6.983,6.983,0,0,0-6.553,4.209,11.7,11.7,0,0,0-5.361-1.282c-6.085,0-11.018,4.547-11.018,10.157a9.439,9.439,0,0,0,.866,3.956c-.115-.006-.229-.016-.348-.016a5.576,5.576,0,0,0-5.787,5.337,4.848,4.848,0,0,0,.094.941,7.982,7.982,0,0,0-4.5-1.367,7.813,7.813,0,0,0-5.972,2.686,8.285,8.285,0,0,0-7-3.685,8.106,8.106,0,0,0-7.687,5.066,9.018,9.018,0,0,0-8.668-5.892,9.35,9.35,0,0,0-7.112,3.174,5.286,5.286,0,0,0-5.315-4.143,5.868,5.868,0,0,0-1.481.2,3.743,3.743,0,0,0,.456-1.783,4.212,4.212,0,0,0-4.372-4.03,4.645,4.645,0,0,0-1.707.322,7.179,7.179,0,0,0-7.434-6.718,7.9,7.9,0,0,0-3.586.85,11.188,11.188,0,0,0-8.829-4.161,10.879,10.879,0,0,0-10.278,6.7,7.253,7.253,0,0,0-4.052-1.214,6.639,6.639,0,0,0-6.893,6.354v.7a6,6,0,0,0-2.35.862,9.088,9.088,0,0,0-8.587-5.6,9.35,9.35,0,0,0-7.379,3.478,6.571,6.571,0,0,0-3-.712,6,6,0,0,0-6.211,5.614,3.884,3.884,0,0,0-1.427-.267,3.519,3.519,0,0,0-3.652,3.367,3.142,3.142,0,0,0,.382,1.49,4.91,4.91,0,0,0-1.238-.163,4.417,4.417,0,0,0-4.442,3.461,13.518,13.518,0,0,0-16.775,4.306,9.205,9.205,0,0,0-14.2-3.411,5.873,5.873,0,0,0-6.171-1.783,5.787,5.787,0,0,0-1.522.7,5.865,5.865,0,0,0-.32-2.382,7.053,7.053,0,0,0-8.71-4.107,6.877,6.877,0,0,0-3.449,2.3,4.416,4.416,0,0,0-.143-.492,5.711,5.711,0,0,0-7.054-3.327,5.557,5.557,0,0,0-2.862,1.956,8.451,8.451,0,0,0-9.564-3.417,7.62,7.62,0,0,0-5.626,6.833,13.818,13.818,0,0,0-6.441.348c-6.746,2.012-10.447,8.684-8.266,14.9a11.615,11.615,0,0,0,2.5,4.1c-.129.03-.259.056-.39.1a6.961,6.961,0,0,0-1.942.925,4.845,4.845,0,0,0,.036-.488,5.924,5.924,0,0,0-6.149-5.671,6.587,6.587,0,0,0-2.487.484,3.861,3.861,0,0,0,.036-.509,4.522,4.522,0,0,0-4.694-4.326,4.948,4.948,0,0,0-2.611.732,3.786,3.786,0,0,0-3.884-3.3,4.045,4.045,0,0,0-.414.022,6.934,6.934,0,0,0,.169-1.522c0-4.121-3.624-7.462-8.093-7.462a8.343,8.343,0,0,0-6.344,2.83,4.718,4.718,0,0,0-4.742-3.693,5.184,5.184,0,0,0-1.323.173,3.357,3.357,0,0,0,.406-1.592,3.756,3.756,0,0,0-3.9-3.594,4.14,4.14,0,0,0-1.524.285,6.4,6.4,0,0,0-6.632-5.994,7.053,7.053,0,0,0-3.2.76,9.978,9.978,0,0,0-7.876-3.713,9.705,9.705,0,0,0-9.17,5.982,6.473,6.473,0,0,0-3.614-1.086,5.926,5.926,0,0,0-6.151,5.671v.625a5.4,5.4,0,0,0-2.1.77,8.109,8.109,0,0,0-7.663-5,8.34,8.34,0,0,0-6.581,3.1,5.888,5.888,0,0,0-2.676-.635,5.35,5.35,0,0,0-5.54,5.007,3.5,3.5,0,0,0-1.274-.237,3.139,3.139,0,0,0-3.258,3,2.808,2.808,0,0,0,.34,1.331,4.343,4.343,0,0,0-1.106-.145,3.941,3.941,0,0,0-3.962,3.088,6.847,6.847,0,0,0-3.851-2.217,12.373,12.373,0,0,0-5.6-4.525,13.507,13.507,0,0,0-14.429,2.6,7.81,7.81,0,0,0-3.683-3.086,8.343,8.343,0,0,0-10.648,3.721l-.364.746a7.261,7.261,0,0,0-2.951-.121,9.725,9.725,0,0,0-6.232-9.763,11.419,11.419,0,0,0-9.665.442,7.15,7.15,0,0,0-2.822-2.083,7.527,7.527,0,0,0-9.532,3.232,4.236,4.236,0,0,0-1.381-.915,4.417,4.417,0,0,0-5.641,1.97,3.653,3.653,0,0,0-.37,1.755,5.329,5.329,0,0,0-1.234-.72,5.523,5.523,0,0,0-6.529,1.721,8.349,8.349,0,0,0-4.949-5.452,9.171,9.171,0,0,0-11.707,4.093,7.74,7.74,0,0,0-.571,1.586,4.514,4.514,0,0,0-5.884,1.49,5.013,5.013,0,0,0-2.247-1.811,5.5,5.5,0,0,0-5.052.442,3.971,3.971,0,0,0-3.248-1.632,4.06,4.06,0,0,0-.414.022,6.938,6.938,0,0,0,.169-1.522c0-4.123-3.624-7.464-8.093-7.464a8.337,8.337,0,0,0-6.344,2.832,4.718,4.718,0,0,0-4.742-3.695,5.1,5.1,0,0,0-1.323.175,3.356,3.356,0,0,0,.406-1.592,3.756,3.756,0,0,0-3.9-3.594,4.181,4.181,0,0,0-1.524.283A6.4,6.4,0,0,0,305,255.992a7.028,7.028,0,0,0-3.2.76,9.977,9.977,0,0,0-7.876-3.713,9.708,9.708,0,0,0-9.17,5.98,6.471,6.471,0,0,0-3.614-1.083,5.926,5.926,0,0,0-6.151,5.671v.1c-.02.012-.04.02-.06.032a2.967,2.967,0,0,0-3.043-2.583c-.111,0-.217.006-.326.016a5.444,5.444,0,0,0,.133-1.192,6.11,6.11,0,0,0-6.342-5.848,6.534,6.534,0,0,0-4.973,2.219,3.694,3.694,0,0,0-3.715-2.9,4.087,4.087,0,0,0-1.037.137,2.618,2.618,0,0,0,.32-1.248,2.944,2.944,0,0,0-3.057-2.816,3.3,3.3,0,0,0-1.194.223,5.018,5.018,0,0,0-5.2-4.7,5.525,5.525,0,0,0-2.507.593,7.831,7.831,0,0,0-6.175-2.909,7.606,7.606,0,0,0-7.184,4.688,5.08,5.08,0,0,0-5.18-.265,7.709,7.709,0,0,0-4.694,2.744,5.527,5.527,0,0,0-2.507-.6l-.054,0a7.3,7.3,0,0,0-3.992-.177,7.129,7.129,0,0,0-1.9.746h0c-1.22-4.392-6.071-7.04-10.833-5.916a9.238,9.238,0,0,0-3.287,1.494,5.972,5.972,0,0,0-7.663-1.528,5.887,5.887,0,0,0-.161-2.414A7.224,7.224,0,0,0,178.26,239a5,5,0,0,0-.111-.5,5.837,5.837,0,0,0-9.876-1.948,8.438,8.438,0,0,0-9.388-3.984,7.773,7.773,0,0,0-6.119,6.545,13.95,13.95,0,0,0-6.5-.02,12.184,12.184,0,0,0-9.709,11.1,7.61,7.61,0,0,0-4.022-.1,4.975,4.975,0,0,0,.229-.478,5.174,5.174,0,0,0-3.319-6.823,6.165,6.165,0,0,0-3.644-.131,7.617,7.617,0,0,0-5.261-8.38A8.8,8.8,0,0,0,111.3,236.4a13.1,13.1,0,0,0-5.385-3.53c-6.782-2.382-14.375.756-16.958,7.011a11.23,11.23,0,0,0-.854,4.746c-.127-.052-.249-.107-.38-.153a7.093,7.093,0,0,0-8.909,3.683,6.046,6.046,0,0,0-.328,1.086,8.878,8.878,0,0,0-4.388-3.285,9.7,9.7,0,0,0-7.894.655,9.139,9.139,0,0,0-6.109-6.847c-4.987-1.753-10.57.543-12.5,5.124a5.326,5.326,0,0,0-2.692-2.058,5.589,5.589,0,0,0-7.02,2.9,4.624,4.624,0,0,0-.185,3.019,9.143,9.143,0,0,0-3.972,4.386,5.346,5.346,0,0,0-2.7-2.066,5.611,5.611,0,0,0-7.05,2.915,4.63,4.63,0,0,0-.352,1.656,5.53,5.53,0,0,0-3.5,3.11,4.878,4.878,0,0,0,0,3.743V458.79h1365.6v-204Z" transform="translate(0.014 133.323)" opacity="0.998" fill="url(#linear-gradient-3)"/>
      <g id="Group_7604" data-name="Group 7604" transform="translate(19.742 407.635)">
        <path id="Path_160438" data-name="Path 160438" d="M702.539,261.931a6.821,6.821,0,0,0-3.862,1.18,10.359,10.359,0,0,0-9.79-6.515,10.576,10.576,0,0,0-8.411,4.044,7.4,7.4,0,0,0-3.417-.826,6.909,6.909,0,0,0-7.06,6.238,11.213,11.213,0,0,0-1.494-.014c-.052,0-.1-.008-.155-.008a4.385,4.385,0,0,0-1.288.195,11.018,11.018,0,0,0-2.165.631,10.744,10.744,0,0,0-2.266,1.272,7.984,7.984,0,0,0-2.31-.736,8.127,8.127,0,0,0-4.73.659,11.889,11.889,0,0,0-10.015-9.373,12.713,12.713,0,0,0-10.614,3.148,8.573,8.573,0,0,0-3.8-1.59,8.318,8.318,0,0,0-9.585,6.278,5.1,5.1,0,0,0-1.825-.661,4.884,4.884,0,0,0-5.653,3.783,4.308,4.308,0,0,0,.143,2.093,6.311,6.311,0,0,0-1.6-.48,6.1,6.1,0,0,0-6.72,3.743,10.152,10.152,0,0,0-7.227-4.833,10.335,10.335,0,0,0-10.937,5.452,10.619,10.619,0,0,0-3.685.438,10.162,10.162,0,0,0-3.594,1.946,6.684,6.684,0,0,0-.223-.82,7.774,7.774,0,0,0-9.653-4.629,7.64,7.64,0,0,0-3.654,2.4,6.577,6.577,0,0,0-8.465-3.15,11.787,11.787,0,0,0-.569-2.491c-2.253-6.527-9.705-10.1-16.644-7.98A13.228,13.228,0,0,0,535.383,265V381.221H704.242V262.142A6.966,6.966,0,0,0,702.539,261.931Z" transform="translate(501.146 -249.541)" opacity="0.5" fill="url(#linear-gradient-3)"/>
        <path id="Path_160439" data-name="Path 160439" d="M691.209,266.829a10.223,10.223,0,0,0-9.794-2.416,10.045,10.045,0,0,0-2.241.9,4.931,4.931,0,0,0-.274-2.714c-1.243-3.144-5.353-4.865-9.18-3.843a7.787,7.787,0,0,0-2.529,1.174c-2.207-5.224-9.106-8.061-15.538-6.346a12.914,12.914,0,0,0-5.212,2.72,21.421,21.421,0,0,0-16.325-2.145c-5.415,1.445-9.426,4.786-11.327,8.835-.281-.01-.559-.034-.847-.034a21.585,21.585,0,0,0-8.982,1.916c-1.645-3.669-5.94-6.286-10.977-6.286-5.638,0-10.344,3.279-11.449,7.643a9.176,9.176,0,0,0-4.853-1.345c-4.451,0-8.059,2.963-8.059,6.62a5.593,5.593,0,0,0,.041.651,11.416,11.416,0,0,0-5.82-1.546c-5.5,0-9.951,3.661-9.951,8.175a6.892,6.892,0,0,0,.706,3.021,9.69,9.69,0,0,0-2.419-.3c-3.509,0-6.485,1.845-7.592,4.416a15.032,15.032,0,0,0-5.118-.884c-7.019,0-12.708,4.676-12.708,10.441v0a11.671,11.671,0,0,0-2.913-.368,10.111,10.111,0,0,0-8.611,4.31,9.593,9.593,0,0,0-1.694-1.375A11.626,11.626,0,0,0,511.6,296.3c2.094-5.19.12-11.122-5.44-14.662a18.978,18.978,0,0,0-14.44-2.237,9.512,9.512,0,0,0-3.367-3.562c-4.752-3.025-11.562-2.356-15.32,1.471a5.766,5.766,0,0,0-1.687-1.608,7.459,7.459,0,0,0-9.088.949,4.911,4.911,0,0,0-1.222,2.2,7.4,7.4,0,0,0-1.544-1.309,9.349,9.349,0,0,0-10.305.362,10.47,10.47,0,0,0-5.208-8.616c-5.868-3.735-14.314-2.854-18.859,1.968a10.907,10.907,0,0,0-1.457,1.922,6.217,6.217,0,0,0-.522-.372,7.519,7.519,0,0,0-8.738.613,6.567,6.567,0,0,0-2.621-3.037,8.972,8.972,0,0,0-10.938,1.142,6.36,6.36,0,0,0-.515.623A9.026,9.026,0,0,0,397.6,269.5c-4.462-2.838-10.878-2.169-14.335,1.5a7.414,7.414,0,0,0-2.133,5.405l0,0V380.42H691.209Z" transform="translate(343.126 -253.086)" opacity="0.5" fill="url(#linear-gradient-3)"/>
        <path id="Path_160440" data-name="Path 160440" d="M712.861,307.968a9.142,9.142,0,0,0-4.32,4.241,8.6,8.6,0,0,0-.617,1.743c-.139-.076-.283-.149-.434-.213a4.734,4.734,0,0,0-5.9,1.845,5.415,5.415,0,0,0-2.418-1.988,5.821,5.821,0,0,0-5.436.487,4.241,4.241,0,0,0-3.494-1.791c-.151,0-.3.008-.448.022a7.634,7.634,0,0,0,.183-1.67,8.461,8.461,0,0,0-8.708-8.19,8.9,8.9,0,0,0-6.827,3.108,5.1,5.1,0,0,0-5.1-4.055,5.537,5.537,0,0,0-1.423.189,3.707,3.707,0,0,0,.438-1.745,4.076,4.076,0,0,0-4.2-3.948,4.421,4.421,0,0,0-1.64.314,6.944,6.944,0,0,0-7.134-6.577,7.462,7.462,0,0,0-3.445.832,10.658,10.658,0,0,0-8.475-4.075,10.443,10.443,0,0,0-9.866,6.565,6.869,6.869,0,0,0-3.89-1.19,6.43,6.43,0,0,0-6.617,6.224v.111c-.022.012-.046.022-.066.034a3.213,3.213,0,0,0-3.275-2.836,3.35,3.35,0,0,0-.35.018,6.112,6.112,0,0,0,.143-1.309,6.63,6.63,0,0,0-6.825-6.419,6.982,6.982,0,0,0-5.351,2.434,3.992,3.992,0,0,0-4-3.178,4.246,4.246,0,0,0-1.116.151,2.91,2.91,0,0,0,.344-1.369,3.2,3.2,0,0,0-3.289-3.094,3.431,3.431,0,0,0-1.284.247,5.444,5.444,0,0,0-5.592-5.156,5.856,5.856,0,0,0-2.7.651,8.358,8.358,0,0,0-6.644-3.192,8.181,8.181,0,0,0-7.731,5.146,5.379,5.379,0,0,0-5.574-.292,8.247,8.247,0,0,0-5.05,3.011,5.841,5.841,0,0,0-2.7-.653l-.056,0a7.723,7.723,0,0,0-4.3-.2,7.572,7.572,0,0,0-2.042.82v0a9.642,9.642,0,0,0-11.657-6.491,9.807,9.807,0,0,0-3.536,1.638,6.332,6.332,0,0,0-8.244-1.677,6.646,6.646,0,0,0-.175-2.649,7.7,7.7,0,0,0-13.022-2.768,5.39,5.39,0,0,0-.121-.551,6.225,6.225,0,0,0-10.628-2.139,9.009,9.009,0,0,0-10.1-4.374,8.465,8.465,0,0,0-6.583,7.186,14.691,14.691,0,0,0-7-.022,13.288,13.288,0,0,0-10.447,12.184,8.043,8.043,0,0,0-4.33-.117,5.173,5.173,0,0,0,.245-.523,5.706,5.706,0,0,0-3.57-7.492,6.5,6.5,0,0,0-3.92-.141,8.373,8.373,0,0,0-5.661-9.2,9.341,9.341,0,0,0-9.944,2.336,14.088,14.088,0,0,0-5.793-3.874c-7.3-2.613-15.468.832-18.246,7.695a12.524,12.524,0,0,0-.921,5.212c-.137-.056-.267-.119-.408-.169A7.579,7.579,0,0,0,412,281.14a6.573,6.573,0,0,0-.352,1.19,9.6,9.6,0,0,0-4.724-3.6,10.264,10.264,0,0,0-7.556.253c-.338.03-.675.072-1.011.129a9.988,9.988,0,0,0-6.5-7.178,10.653,10.653,0,0,0-13.446,5.624,5.757,5.757,0,0,0-2.895-2.259,5.972,5.972,0,0,0-7.554,3.186,5.159,5.159,0,0,0-.2,3.311,9.978,9.978,0,0,0-4.235,4.736l-.139-.048a5.77,5.77,0,0,0-2.808-2.141,6,6,0,0,0-7.584,3.2,5.191,5.191,0,0,0-.376,1.771c-.02.024-.046.046-.066.072a6.187,6.187,0,0,0-2.684,1.755,14.859,14.859,0,0,0-11.351,2.557,12.914,12.914,0,0,0-4.79,14.777,9.314,9.314,0,0,0-5.233,1.767,8.77,8.77,0,0,0-1.492,1.385,8.6,8.6,0,0,0-7.578-4.344,9.018,9.018,0,0,0-2.563.37h0c0-5.811-5.009-10.523-11.189-10.523a11.716,11.716,0,0,0-4.5.893,7.075,7.075,0,0,0-6.682-4.453,7.485,7.485,0,0,0-2.129.308,7.808,7.808,0,0,0,.621-3.045,8.511,8.511,0,0,0-8.76-8.238,9.092,9.092,0,0,0-5.122,1.558,6.487,6.487,0,0,0,.036-.657,6.893,6.893,0,0,0-7.094-6.672,7.35,7.35,0,0,0-4.272,1.355,10.167,10.167,0,0,0-10.079-7.7,10.29,10.29,0,0,0-9.663,6.334,16.979,16.979,0,0,0-7.906-1.932c-.253,0-.5.024-.746.036a15.569,15.569,0,0,0-9.97-8.905,16.807,16.807,0,0,0-14.371,2.161,10.955,10.955,0,0,0-4.589-2.738,11.082,11.082,0,0,0-13.675,6.394,6.617,6.617,0,0,0-10.308,2.69,5.665,5.665,0,0,0-.241,2.736,8.2,8.2,0,0,0-11.428,2.72,12.955,12.955,0,0,0-8.366-7.55c-6.991-2.137-14.5,1.463-16.773,8.041a11.832,11.832,0,0,0-.573,2.509,6.706,6.706,0,0,0-.639-.231,6.542,6.542,0,0,0-7.892,3.405,7.7,7.7,0,0,0-3.681-2.414,7.833,7.833,0,0,0-9.729,4.664,7.3,7.3,0,0,0-.225.826,10.26,10.26,0,0,0-3.62-1.96,10.742,10.742,0,0,0-3.715-.442,10.413,10.413,0,0,0-11.022-5.494,10.236,10.236,0,0,0-7.283,4.869,6.149,6.149,0,0,0-6.772-3.769,6.363,6.363,0,0,0-1.612.482,4.374,4.374,0,0,0,.143-2.109,4.919,4.919,0,0,0-5.695-3.811,5.1,5.1,0,0,0-1.841.667,8.38,8.38,0,0,0-9.659-6.326,8.618,8.618,0,0,0-3.825,1.6,12.813,12.813,0,0,0-10.7-3.172A11.986,11.986,0,0,0,51.228,279.2a8.2,8.2,0,0,0-4.766-.665,8.112,8.112,0,0,0-2.328.742A10.889,10.889,0,0,0,41.852,278a11.073,11.073,0,0,0-2.183-.637,4.453,4.453,0,0,0-1.3-.195c-.052,0-.1.006-.155.006a11.427,11.427,0,0,0-1.508.016A6.96,6.96,0,0,0,29.6,270.9a7.478,7.478,0,0,0-3.443.832,10.31,10.31,0,0,0-2.917-2.565v124.08H715.972C715.721,364.812,715.93,336.215,712.861,307.968Z" transform="translate(-23.236 -242.581)" opacity="0.5" fill="url(#linear-gradient-7)"/>
        <path id="Path_160441" data-name="Path 160441" d="M1016.014,265.573a9.109,9.109,0,0,0-7.2,3.405,6.431,6.431,0,0,0-2.925-.7,5.861,5.861,0,0,0-6.059,5.5,3.789,3.789,0,0,0-1.393-.261,3.594,3.594,0,0,0-3.136,1.761,7.139,7.139,0,0,0-4.457,2.018,4.706,4.706,0,0,0-3.626-1.654,4.87,4.87,0,0,0-1.791.338,7.54,7.54,0,0,0-7.8-7.074,8.271,8.271,0,0,0-3.763.895,11.724,11.724,0,0,0-9.263-4.382,11.412,11.412,0,0,0-10.781,7.062,7.594,7.594,0,0,0-4.251-1.281,6.977,6.977,0,0,0-7.231,6.694v.738a6.307,6.307,0,0,0-2.467.907,9.534,9.534,0,0,0-9.01-5.9,9.8,9.8,0,0,0-7.739,3.663,6.9,6.9,0,0,0-3.144-.748,6.3,6.3,0,0,0-6.517,5.91,4.072,4.072,0,0,0-1.5-.281,3.7,3.7,0,0,0-3.833,3.546,3.317,3.317,0,0,0,.4,1.57,5.1,5.1,0,0,0-1.3-.171,4.637,4.637,0,0,0-4.66,3.645,8.186,8.186,0,0,0-6.234-2.794,8.459,8.459,0,0,0-2.784.474,6.908,6.908,0,0,0-7.349.155,4.733,4.733,0,0,0,.026-.48,5.075,5.075,0,0,0-5.259-4.867,5.494,5.494,0,0,0-3.168.989,7.518,7.518,0,0,0-7.474-5.618,7.634,7.634,0,0,0-7.164,4.621,12.746,12.746,0,0,0-5.862-1.409c-6.654,0-12.049,4.993-12.049,11.15a10.392,10.392,0,0,0,.949,4.342c-.127-.006-.251-.018-.38-.018a6.109,6.109,0,0,0-6.33,5.86,5.458,5.458,0,0,0,.1,1.031,8.692,8.692,0,0,0-4.923-1.5,8.529,8.529,0,0,0-6.529,2.947,9.051,9.051,0,0,0-7.659-4.044,8.866,8.866,0,0,0-8.406,5.562,9.862,9.862,0,0,0-9.478-6.469,10.2,10.2,0,0,0-7.776,3.484,5.785,5.785,0,0,0-5.813-4.545,6.3,6.3,0,0,0-1.62.213,4.14,4.14,0,0,0,.5-1.958,4.612,4.612,0,0,0-4.78-4.422,5.115,5.115,0,0,0-1.867.35c-.088-4.085-3.691-7.371-8.127-7.371a8.6,8.6,0,0,0-3.922.933,12.213,12.213,0,0,0-9.655-4.569,11.9,11.9,0,0,0-11.237,7.359,7.928,7.928,0,0,0-4.43-1.333,7.275,7.275,0,0,0-7.54,6.977v.768a6.57,6.57,0,0,0-2.569.947,9.941,9.941,0,0,0-9.392-6.151,10.21,10.21,0,0,0-8.067,3.817,7.2,7.2,0,0,0-3.279-.78,6.567,6.567,0,0,0-6.79,6.161,4.258,4.258,0,0,0-1.562-.293,3.855,3.855,0,0,0-3.994,3.7,3.442,3.442,0,0,0,.418,1.636,5.261,5.261,0,0,0-1.355-.179,4.833,4.833,0,0,0-4.857,3.8,14.744,14.744,0,0,0-18.343,4.728c-1.723-4.577-7.074-7.074-12.081-5.576a9.826,9.826,0,0,0-3.451,1.829,6.411,6.411,0,0,0-6.748-1.956,6.28,6.28,0,0,0-1.664.77,6.489,6.489,0,0,0-.35-2.615,7.709,7.709,0,0,0-9.526-4.509,7.54,7.54,0,0,0-3.769,2.521,5.312,5.312,0,0,0-.157-.541,6.242,6.242,0,0,0-7.715-3.651,6.063,6.063,0,0,0-3.128,2.147A9.225,9.225,0,0,0,617.5,298.64a8.354,8.354,0,0,0-6.153,7.5,15.052,15.052,0,0,0-7.044.382c-7.375,2.207-11.422,9.53-9.038,16.357a12.7,12.7,0,0,0,2.732,4.5c-.143.034-.285.064-.428.107a7.6,7.6,0,0,0-2.123,1.015c.016-.177.04-.354.04-.535a6.489,6.489,0,0,0-6.726-6.224,7.143,7.143,0,0,0-2.718.531,4.269,4.269,0,0,0,.038-.559,4.952,4.952,0,0,0-5.132-4.75,5.4,5.4,0,0,0-2.854.8,4.146,4.146,0,0,0-4.245-3.62c-.155,0-.306.01-.456.024a7.517,7.517,0,0,0,.185-1.67c0-4.523-3.962-8.192-8.849-8.192a9.1,9.1,0,0,0-6.937,3.11,5.162,5.162,0,0,0-5.186-4.056,5.671,5.671,0,0,0-1.445.191,3.689,3.689,0,0,0,.444-1.747,4.115,4.115,0,0,0-4.264-3.946,4.551,4.551,0,0,0-1.666.314,7.013,7.013,0,0,0-7.251-6.577,7.669,7.669,0,0,0-3.5.832,10.9,10.9,0,0,0-8.614-4.077,10.612,10.612,0,0,0-10.027,6.567,7.059,7.059,0,0,0-3.954-1.19,6.489,6.489,0,0,0-6.724,6.224v.685a5.861,5.861,0,0,0-2.294.844A8.867,8.867,0,0,0,494.936,296a9.109,9.109,0,0,0-7.2,3.405,6.424,6.424,0,0,0-2.925-.7,5.859,5.859,0,0,0-6.059,5.5,3.832,3.832,0,0,0-1.393-.261,3.438,3.438,0,0,0-3.562,3.3,3.063,3.063,0,0,0,.372,1.459,4.687,4.687,0,0,0-1.21-.161,4.313,4.313,0,0,0-4.332,3.391,7.482,7.482,0,0,0-4.213-2.434,13.549,13.549,0,0,0-6.117-4.967,14.733,14.733,0,0,0-15.78,2.848,8.557,8.557,0,0,0-4.028-3.385,9.1,9.1,0,0,0-11.641,4.083l-.4.82a7.865,7.865,0,0,0-3.226-.133,10.676,10.676,0,0,0-6.815-10.716,12.435,12.435,0,0,0-10.569.484,7.8,7.8,0,0,0-3.086-2.286,8.216,8.216,0,0,0-10.425,3.548,4.615,4.615,0,0,0-1.51-1.005,4.822,4.822,0,0,0-6.167,2.163,4,4,0,0,0-.4,1.928,5.822,5.822,0,0,0-1.351-.792c-.018-.008-.04-.01-.058-.018,2.509,27.055,2.555,54.277,2.9,81.45H1016.3V265.587C1016.2,265.585,1016.11,265.573,1016.014,265.573Z" transform="translate(347.051 -240.627)" opacity="0.7" fill="url(#linear-gradient-8)"/>
        <path id="Path_160442" data-name="Path 160442" d="M666.981,283.577a3.878,3.878,0,0,0-3.99-3.753,4.189,4.189,0,0,0-1.2.173v0a5.08,5.08,0,0,0-5.228-4.917,5.492,5.492,0,0,0-2.107.416,3.305,3.305,0,0,0-3.122-2.081,3.442,3.442,0,0,0-1,.145,3.667,3.667,0,0,0,.289-1.423,3.978,3.978,0,0,0-4.093-3.852,4.244,4.244,0,0,0-2.394.73c.01-.1.016-.205.016-.308a3.22,3.22,0,0,0-3.315-3.118,3.425,3.425,0,0,0-2,.633,4.756,4.756,0,0,0-4.712-3.6,4.807,4.807,0,0,0-4.515,2.961,7.958,7.958,0,0,0-3.7-.9,7.38,7.38,0,0,0-7.594,7.144,6.765,6.765,0,0,0,.6,2.78c-.078,0-.157-.012-.239-.012a4.146,4.146,0,0,0-2.288.682c-.03,0-.058-.006-.089-.006a4.371,4.371,0,0,0-3.474,1.669,3.052,3.052,0,0,0-1.409-.34,2.856,2.856,0,0,0-2.891,2.432c-.089.064-.177.127-.263.2a1.765,1.765,0,0,0-.442-.06,1.787,1.787,0,0,0-.742.163,5.729,5.729,0,0,0-4.374-1.982,5.451,5.451,0,0,0-5.606,5.24,3.251,3.251,0,0,0-1.912-.613,3.054,3.054,0,0,0-3.144,2.957,2.882,2.882,0,0,0,1.216,2.32,1.923,1.923,0,0,0-1.055,1.687,2.156,2.156,0,0,0,.014.229,2.819,2.819,0,0,0-1.1-.219,2.633,2.633,0,0,0-2.71,2.551,2.431,2.431,0,0,1,0,1.982,2.633,2.633,0,0,0,2.71,2.551,2.855,2.855,0,0,0,1.1-.217,2.117,2.117,0,0,0-.014.227,2.01,2.01,0,0,0,2.069,1.946,2.161,2.161,0,0,0,1.152-.328,1.678,1.678,0,0,0,1.711,1.482,1.806,1.806,0,0,0,.183-.008,3.2,3.2,0,0,0-.074.683,3.466,3.466,0,0,0,3.568,3.355,3.642,3.642,0,0,0,2.8-1.272,2.089,2.089,0,0,0,2.091,1.66,2.3,2.3,0,0,0,.583-.076,1.533,1.533,0,0,0-.179.716,1.67,1.67,0,0,0,1.719,1.616,1.816,1.816,0,0,0,.673-.129,2.844,2.844,0,0,0,2.923,2.7,3.053,3.053,0,0,0,1.409-.342,4.373,4.373,0,0,0,3.474,1.67,4.277,4.277,0,0,0,4.043-2.692,2.78,2.78,0,0,0,1.106.414v.338a3.153,3.153,0,0,0,3.244,3.051,3.357,3.357,0,0,0,1.908-.585,5.12,5.12,0,0,0,4.837,3.22,5.224,5.224,0,0,0,4.155-2,3.669,3.669,0,0,0,1.688.408,3.4,3.4,0,0,0,3.5-3.224,2.17,2.17,0,0,0,.8.153,2,2,0,0,0,2.058-1.934,1.829,1.829,0,0,0-.215-.858,2.644,2.644,0,0,0,.7.094,2.5,2.5,0,0,0,2.5-1.988,4.367,4.367,0,0,0,3.347,1.524,4.148,4.148,0,0,0,4.27-4.016,3.81,3.81,0,0,0-.088-.818,1.985,1.985,0,0,0,.219.012,2.01,2.01,0,0,0,2.048-1.775,2.571,2.571,0,0,0,1.377.394,2.406,2.406,0,0,0,2.477-2.33,2.476,2.476,0,0,0-.018-.273,3.4,3.4,0,0,0,1.311.261,3.153,3.153,0,0,0,3.245-3.051,2.915,2.915,0,0,0-.45-1.548,2.907,2.907,0,0,0,.45-1.546,3.154,3.154,0,0,0-3.245-3.053,3.4,3.4,0,0,0-1.311.261,2.368,2.368,0,0,0,.018-.267h3.265l-.064-.583A3.84,3.84,0,0,0,666.981,283.577Z" transform="translate(554.727 -243.454)" fill="url(#linear-gradient-9)"/>
        <path id="Path_160443" data-name="Path 160443" d="M618.775,313.777a6.518,6.518,0,0,0-2.081-.038,8.173,8.173,0,0,0-4.288-9.745,9.344,9.344,0,0,0-10.107,1.075,13.652,13.652,0,0,0-5.158-4.525c-6.814-3.47-15.332-1.088-19.02,5.323a12.59,12.59,0,0,0-1.632,5.011c-.125-.072-.245-.149-.378-.215a7.616,7.616,0,0,0-9.993,2.8,6.721,6.721,0,0,0-.51,1.128,9.312,9.312,0,0,0-4.145-4.129,10.182,10.182,0,0,0-8.453-.338,9.692,9.692,0,0,0-5.419-8.2A10.707,10.707,0,0,0,533.58,305.8a5.571,5.571,0,0,0-2.533-2.579,6,6,0,0,0-7.874,2.2,5.163,5.163,0,0,0-.657,3.232,10.386,10.386,0,0,0-3.787,2.712,4.127,4.127,0,0,0-2.44-.261,5.674,5.674,0,0,0-.82-.6,6.521,6.521,0,0,0-6.575-5.267,6.936,6.936,0,0,0-3.2.788,9.922,9.922,0,0,0-7.9-3.753,9.7,9.7,0,0,0-9.14,6.141,6.344,6.344,0,0,0-2.513-.927l0-.764a7.156,7.156,0,0,0-7.4-6.891,7.64,7.64,0,0,0-4.32,1.341,11.622,11.622,0,0,0-11.008-7.255,11.857,11.857,0,0,0-9.406,4.573,8.3,8.3,0,0,0-3.835-.909,7.719,7.719,0,0,0-7.9,7.349,4.927,4.927,0,0,0-1.825-.34A4.532,4.532,0,0,0,435.807,309a4.164,4.164,0,0,0,.5,1.942,6.118,6.118,0,0,0-1.584-.205,5.664,5.664,0,0,0-5.653,4.535,9.914,9.914,0,0,0-7.611-3.425,9.635,9.635,0,0,0-9.223,6.459A8.665,8.665,0,0,0,404,312.821a8.79,8.79,0,0,0-7.458,4.044,8.285,8.285,0,0,0-6.392-2.9,8.407,8.407,0,0,0-4.8,1.508,5.708,5.708,0,0,0,.1-1.023,6.012,6.012,0,0,0-6.209-5.787c-.127,0-.247.012-.372.02a10.461,10.461,0,0,0,.9-4.314c-.03-6.111-5.321-11.042-11.818-11.014a12.6,12.6,0,0,0-1.821.155c.786,6.025,1.015,12.216,1.542,17.907C369.244,328.377,364.7,363,364.7,363l254.191-2.31Z" transform="translate(326.076 -212.405)" opacity="0.7" fill="url(#linear-gradient-10)"/>
        <path id="Path_160444" data-name="Path 160444" d="M549.861,323.079l.094-.872-.348-.026h.348l-.094-.872a5.593,5.593,0,0,0-.732-11.163,6.159,6.159,0,0,0-1.777.259v0a7.553,7.553,0,0,0-7.747-7.343,8.1,8.1,0,0,0-3.122.621,4.9,4.9,0,0,0-4.627-3.106,5.141,5.141,0,0,0-1.473.213,5.479,5.479,0,0,0,.428-2.125,5.913,5.913,0,0,0-6.065-5.749A6.269,6.269,0,0,0,521.2,294a4.345,4.345,0,0,0,.026-.46,4.789,4.789,0,0,0-4.913-4.656,5.057,5.057,0,0,0-2.959.947,7.052,7.052,0,0,0-6.981-5.375,7.126,7.126,0,0,0-6.692,4.42,11.709,11.709,0,0,0-5.478-1.347c-6.216,0-11.255,4.776-11.255,10.666a10.179,10.179,0,0,0,.885,4.155c-.117-.008-.233-.018-.354-.018a5.766,5.766,0,0,0-5.914,5.6,5.318,5.318,0,0,0,.1.987,8,8,0,0,0-4.6-1.433,7.891,7.891,0,0,0-6.1,2.818,8.4,8.4,0,0,0-7.154-3.868,8.1,8.1,0,0,0-8.308,7.826,4.8,4.8,0,0,0-2.834-.917,4.423,4.423,0,1,0,0,8.833c.03,0,.058,0,.088,0v.026c-.03,0-.058,0-.088,0a4.422,4.422,0,1,0,0,8.831,4.8,4.8,0,0,0,2.834-.917,8.1,8.1,0,0,0,8.308,7.828,8.4,8.4,0,0,0,7.154-3.87,7.886,7.886,0,0,0,6.1,2.82,8,8,0,0,0,4.6-1.435,5.336,5.336,0,0,0-.1.987,5.765,5.765,0,0,0,5.914,5.6c.121,0,.237-.01.354-.016a10.169,10.169,0,0,0-.885,4.153c0,5.892,5.039,10.668,11.255,10.668a11.688,11.688,0,0,0,5.478-1.349,7.247,7.247,0,0,0,13.673-.953,5.055,5.055,0,0,0,2.959.945,4.789,4.789,0,0,0,4.913-4.656,4.308,4.308,0,0,0-.026-.458,6.269,6.269,0,0,0,3.55,1.087,5.915,5.915,0,0,0,6.065-5.751,5.487,5.487,0,0,0-.428-2.125,5.14,5.14,0,0,0,1.473.215,4.9,4.9,0,0,0,4.627-3.108,8.1,8.1,0,0,0,3.122.621,7.552,7.552,0,0,0,7.747-7.343h0a6.226,6.226,0,0,0,1.777.257,5.592,5.592,0,0,0,.732-11.16Z" transform="translate(406.583 -221.395)" fill="url(#linear-gradient-9)"/>
      </g>
      <path id="Path_160445" data-name="Path 160445" d="M489.224,333.956a7.319,7.319,0,0,0-2.963.625,5.856,5.856,0,0,0,.04-.655,5.6,5.6,0,0,0-8.71-4.651,4.646,4.646,0,0,0-4.629-4.264c-.167,0-.332.01-.495.026a9.757,9.757,0,0,0,.2-1.968,9.648,9.648,0,0,0-17.215-5.986,5.721,5.721,0,0,0-7.233-4.555,4.648,4.648,0,0,0-5.98-6.338,7.913,7.913,0,0,0-11.723-6.77,11.593,11.593,0,0,0-20.327,2.935,7.332,7.332,0,0,0-11.643,5.932v40.338h90.677a7.334,7.334,0,0,0,0-14.668Z" transform="translate(382.659 196.504)" fill="url(#linear-gradient-9)"/>
      <path id="Path_160446" data-name="Path 160446" d="M388.7,332.237a7.051,7.051,0,0,0-1.083-5.333c.092-.1.191-.189.279-.294a12.648,12.648,0,0,0-7.032-20.646,8.016,8.016,0,0,0-8.65-10.742,2.992,2.992,0,0,0-3.9-.482,2.5,2.5,0,0,0-2.493-2.3,2.352,2.352,0,0,0-.267.014,5.122,5.122,0,0,0,.109-1.059,5.193,5.193,0,0,0-9.267-3.224,3.088,3.088,0,0,0-3.043-2.571,3.051,3.051,0,0,0-.85.121,2.475,2.475,0,0,0,.261-1.108,2.5,2.5,0,0,0-3.482-2.306,4.259,4.259,0,0,0-6.31-3.644,6.239,6.239,0,0,0-10.941,1.58,3.892,3.892,0,0,0-4.244-.235,6.221,6.221,0,0,0-3.845,2.438,4.256,4.256,0,0,0-6.31,3.642,2.436,2.436,0,0,0-1.787-.052,11.105,11.105,0,0,0-8.125,4.107l-.02-.006a6.618,6.618,0,0,0-12.586,1.194,4.554,4.554,0,0,0-7.307,3.634c0,.151.008.3.022.448a5.631,5.631,0,0,0-8.527,6.65,4.56,4.56,0,0,0-5.665,2.832,7.194,7.194,0,0,0-10.091,6.585h0a5.487,5.487,0,0,0-5.158,9.452,5.228,5.228,0,0,0,8.123,5.878,9.3,9.3,0,0,0,1.934,5.618,5.208,5.208,0,0,0,7.436,7.126,9.3,9.3,0,0,0,17.3,4.674,8.663,8.663,0,0,0,11.973,1.634,6.765,6.765,0,0,0-.109,1.166,6.618,6.618,0,0,0,6.617,6.617c.135,0,.265-.012.4-.02A12.6,12.6,0,0,0,329.8,369.538a7.982,7.982,0,0,0,15.3-1.126,5.491,5.491,0,0,0,8.809-4.382,5.36,5.36,0,0,0-.028-.541,6.787,6.787,0,0,0,10.278-8.015,5.5,5.5,0,0,0,6.831-3.415,8.671,8.671,0,0,0,12.161-7.938h0a6.614,6.614,0,0,0,5.548-11.884Z" transform="translate(239.073 177.778)" fill="url(#linear-gradient-9)"/>
      <path id="Path_160447" data-name="Path 160447" d="M534.951,392.241a7.246,7.246,0,0,0-9.42-6.911h0a9.494,9.494,0,0,0-13.317-8.69,6.011,6.011,0,0,0-7.476-3.739,7.429,7.429,0,0,0-11.251-8.772c.018-.2.03-.394.03-.595a6.008,6.008,0,0,0-9.643-4.794,8.739,8.739,0,0,0-16.753-1.232,13.791,13.791,0,0,0-19.412,17.414c-.145-.008-.287-.022-.434-.022a7.216,7.216,0,0,0-7.126,8.519,9.488,9.488,0,0,0-13.108,1.791,10.179,10.179,0,0,0-18.942,5.116,5.7,5.7,0,1,0-3.472,10.23c.036,0,.07,0,.107,0H417.7c.191.01.384.016.579.016s.386-.006.577-.016H528.719l-.117-1.128A7.24,7.24,0,0,0,534.951,392.241Z" transform="translate(383.036 142.379)" fill="url(#linear-gradient-14)"/>
      <path id="Path_160448" data-name="Path 160448" d="M491.92,352.686a9.147,9.147,0,0,0-12.843-8.366,7.311,7.311,0,0,0,.052-.818,6.981,6.981,0,0,0-10.865-5.8,5.8,5.8,0,0,0-5.775-5.319,5.689,5.689,0,0,0-.617.034,12.191,12.191,0,0,0,.251-2.454,12.035,12.035,0,0,0-21.473-7.47,7.133,7.133,0,0,0-9.02-5.679,5.8,5.8,0,0,0-7.462-7.906,9.867,9.867,0,0,0-14.622-8.445,14.458,14.458,0,0,0-25.352,3.661,9.145,9.145,0,0,0-14.523,7.4v1.007a7.594,7.594,0,0,0-3.118,1.242,12.082,12.082,0,0,0-21.187-3.06,8.242,8.242,0,0,0-12.218,7.056,4.841,4.841,0,0,0-6.236,6.605,5.966,5.966,0,0,0-7.536,4.748,10.058,10.058,0,0,0-17.734,8.292,4.838,4.838,0,0,0-5.343,4.416,5.832,5.832,0,0,0-9.078,4.846,5.921,5.921,0,0,0,.042.685,7.646,7.646,0,0,0-10.133,9.962,7.646,7.646,0,0,0,10.133,9.964,5.913,5.913,0,0,0-.042.683,5.834,5.834,0,0,0,9.078,4.849,4.844,4.844,0,0,0,4.826,4.442,4.418,4.418,0,0,0,.517-.028,10.058,10.058,0,0,0,17.734,8.294,5.967,5.967,0,0,0,7.536,4.746,4.846,4.846,0,0,0,6.236,6.607,8.245,8.245,0,0,0,12.218,7.056,12.084,12.084,0,0,0,21.187-3.06,7.591,7.591,0,0,0,3.118,1.24v1.009a9.145,9.145,0,0,0,14.523,7.4,14.456,14.456,0,0,0,25.352,3.661,9.864,9.864,0,0,0,14.622-8.443,5.793,5.793,0,0,0,7.462-7.906,7.14,7.14,0,0,0,9.02-5.681,12.034,12.034,0,0,0,21.473-7.468,12.177,12.177,0,0,0-.251-2.454c.2.02.408.034.617.034a5.8,5.8,0,0,0,5.775-5.319,6.981,6.981,0,0,0,10.865-5.8,7.31,7.31,0,0,0-.052-.818,9.139,9.139,0,0,0,11.571-13.006A9.1,9.1,0,0,0,491.92,352.686Z" transform="translate(259.403 196.357)" fill="url(#linear-gradient-14)"/>
      <path id="Path_160449" data-name="Path 160449" d="M771.815,379.783a9.143,9.143,0,0,0-12.843-8.366,7.333,7.333,0,0,0,.052-.82,6.981,6.981,0,0,0-10.865-5.8,5.8,5.8,0,0,0-5.775-5.317,5.674,5.674,0,0,0-.617.034,12.208,12.208,0,0,0,.251-2.456,12.034,12.034,0,0,0-21.473-7.468,7.14,7.14,0,0,0-9.02-5.681A5.8,5.8,0,0,0,704.064,336a9.865,9.865,0,0,0-14.622-8.443,14.458,14.458,0,0,0-25.352,3.661,9.145,9.145,0,0,0-14.524,7.4v1.009a7.59,7.59,0,0,0-3.118,1.24,12.084,12.084,0,0,0-21.187-3.06,8.245,8.245,0,0,0-12.218,7.058,4.841,4.841,0,0,0-6.236,6.605,5.967,5.967,0,0,0-7.536,4.746,10.059,10.059,0,0,0-17.734,8.294,4.838,4.838,0,0,0-5.343,4.416,5.832,5.832,0,0,0-9.078,4.846,5.887,5.887,0,0,0,.042.683,7.647,7.647,0,0,0-10.133,9.964,7.643,7.643,0,0,0,10.133,9.962,5.921,5.921,0,0,0-.042.685,5.832,5.832,0,0,0,9.078,4.847,4.838,4.838,0,0,0,5.343,4.416,10.058,10.058,0,0,0,17.734,8.294,5.967,5.967,0,0,0,7.536,4.746,4.843,4.843,0,0,0,6.236,6.605,8.242,8.242,0,0,0,12.218,7.056,12.083,12.083,0,0,0,21.187-3.057,7.589,7.589,0,0,0,3.118,1.24v1.009a9.145,9.145,0,0,0,14.524,7.4,14.458,14.458,0,0,0,25.352,3.661,9.865,9.865,0,0,0,14.622-8.443,5.793,5.793,0,0,0,7.462-7.906,7.14,7.14,0,0,0,9.02-5.681,12.035,12.035,0,0,0,21.473-7.468,12.208,12.208,0,0,0-.251-2.456,5.674,5.674,0,0,0,.617.034,5.8,5.8,0,0,0,5.775-5.317,6.984,6.984,0,0,0,10.865-5.8,7.334,7.334,0,0,0-.052-.82,9.138,9.138,0,0,0,11.571-13A9.1,9.1,0,0,0,771.815,379.783Z" transform="translate(542.146 111.85)" fill="url(#linear-gradient-9)"/>
      <path id="Path_160450" data-name="Path 160450" d="M399.449,312.766a9.331,9.331,0,0,0-2.644,1.185,11.07,11.07,0,0,0-6.569-8.59c-5.352-2.19-11.329.71-13.383,6.474a5.936,5.936,0,0,0-2.891-2.579,5.712,5.712,0,0,0-7.52,3.665,6.779,6.779,0,0,0-.191,3.795,10.89,10.89,0,0,0-3.378,3.651,3.637,3.637,0,0,0-1.693-.148,3.7,3.7,0,0,0-.773.2,5.682,5.682,0,0,0-.9-.566,6.663,6.663,0,0,0-7.3-5.064,6.376,6.376,0,0,0-3.069,1.366,9.328,9.328,0,0,0-8.4-3.141,10.128,10.128,0,0,0-8.213,8.355,5.806,5.806,0,0,0-2.635-.7l-.112-.87c-.567-4.37-4.305-7.416-8.346-6.8a7.156,7.156,0,0,0-4.105,2.164,11.489,11.489,0,0,0-11.994-6.692,11.735,11.735,0,0,0-8.7,6.6,7.408,7.408,0,0,0-3.947-.48c-4.307.652-7.322,4.911-6.807,9.557a4.33,4.33,0,0,0-1.865-.123,5.011,5.011,0,0,0-3.99,5.718,5.285,5.285,0,0,0,.77,2.148,5.316,5.316,0,0,0-1.605,0,6.1,6.1,0,0,0-4.975,6.01,9.253,9.253,0,0,0-8.063-2.807,10.134,10.134,0,0,0-8.252,8.731,8.578,8.578,0,0,0-8.981-5.071,8.859,8.859,0,0,0-6.84,5.713,7.743,7.743,0,0,0-6.775-2.382,7.9,7.9,0,0,0-4.56,2.424,7.084,7.084,0,0,0-.049-1.183,6.307,6.307,0,0,0-7.009-5.713c-.124.019-.245.049-.365.077a13.783,13.783,0,0,0,.281-5.064c-.906-6.982-6.878-11.851-13.34-10.872a11.28,11.28,0,0,0-5.483,2.461,7.348,7.348,0,0,0-7.638-4.187,7.869,7.869,0,0,0-6.43,7.469,4.8,4.8,0,0,0-3.221-.654,5.515,5.515,0,0,0-4.389,6.293c.024.183.056.362.094.54a5.918,5.918,0,0,0-3.854-.731,6.129,6.129,0,0,0-3.3,1.635,7.215,7.215,0,0,0-2.775-.128,7.8,7.8,0,0,0-5.642,4.085,4.634,4.634,0,0,0-5.06-3.447,4.456,4.456,0,0,0-1.236.385,4.333,4.333,0,0,0,.157-1.837,3.817,3.817,0,0,0-4.241-3.459,3.547,3.547,0,0,0-1.412.54,6.484,6.484,0,0,0-7.2-5.746,6.129,6.129,0,0,0-2.944,1.311,8.952,8.952,0,0,0-8.054-3.013,9.719,9.719,0,0,0-7.88,8.017,5.526,5.526,0,0,0-2.526-.666l-.109-.837a7.2,7.2,0,0,0-8.007-6.525,6.849,6.849,0,0,0-3.938,2.076,11.019,11.019,0,0,0-11.507-6.421,11.258,11.258,0,0,0-8.348,6.333,7.074,7.074,0,0,0-3.786-.462c-4.131.626-7.024,4.711-6.53,9.167a4.167,4.167,0,0,0-1.79-.118,4.5,4.5,0,0,0-3.277,2.41,6.445,6.445,0,0,0-4.625-1.633,3.373,3.373,0,0,0-3.3-1.536,3.29,3.29,0,0,0-1.313.5A6.026,6.026,0,0,0,64,328.238a5.686,5.686,0,0,0-2.736,1.218,8.323,8.323,0,0,0-7.49-2.8,8.632,8.632,0,0,0-5.992,4.036,8.207,8.207,0,0,0-4.2.362,6.543,6.543,0,0,0-7.031-4.41,6.4,6.4,0,0,0-3.663,1.93c-.052-.107-.112-.209-.165-.313v135.3L347.69,444.385l51.759-.132Z" transform="translate(-12.98 94.738)" fill="url(#linear-gradient-9)"/>
      <path id="Path_160454" data-name="Path 160454" d="M211.111,447.576l507.543-40.013-5.16-61.093a6.523,6.523,0,0,0-2.413.712,4.461,4.461,0,0,0-.01-.553,4.831,4.831,0,0,0-5.26-4.316,4.965,4.965,0,0,0-2.638,1.007,4.025,4.025,0,0,0-4.323-3.263,4.217,4.217,0,0,0-.429.058,7.936,7.936,0,0,0,.035-1.666,8.329,8.329,0,0,0-9.069-7.44,8.441,8.441,0,0,0-6.312,3.592,4.988,4.988,0,0,0-5.251-3.624,5.15,5.15,0,0,0-1.354.3,3.788,3.788,0,0,0,.275-1.761,4.012,4.012,0,0,0-4.369-3.584,4.151,4.151,0,0,0-1.552.434,6.832,6.832,0,0,0-7.419-5.964,7.021,7.021,0,0,0-3.246,1.083,10.265,10.265,0,0,0-8.5-3.387,10.018,10.018,0,0,0-8.95,7.243,6.547,6.547,0,0,0-3.845-.88,6.246,6.246,0,0,0-5.852,6.658l.058.679a5.38,5.38,0,0,0-2.1,1.005,8.583,8.583,0,0,0-14.932-.895,5.908,5.908,0,0,0-2.827-.47,5.635,5.635,0,0,0-5.282,5.89,3.449,3.449,0,0,0-1.34-.155,3.311,3.311,0,0,0-3.1,3.528,3.2,3.2,0,0,0,.474,1.415,4.253,4.253,0,0,0-1.157-.066,4.109,4.109,0,0,0-3.822,3.675,7.118,7.118,0,0,0-4.2-2.093,13.115,13.115,0,0,0-6.21-4.457,13.526,13.526,0,0,0-14.711,4,8.3,8.3,0,0,0-4.1-3.049,8.449,8.449,0,0,0-10.687,4.909l-.308.84a7.153,7.153,0,0,0-3.069.111,10.707,10.707,0,0,0-7.35-10.091,11.36,11.36,0,0,0-9.972,1.268,7.532,7.532,0,0,0-3.115-2.028,7.618,7.618,0,0,0-9.579,4.286,4.515,4.515,0,0,0-7.178,1.719,4.131,4.131,0,0,0-.223,1.938,5.565,5.565,0,0,0-7.95,1.721,9.024,9.024,0,0,0-5.628-5.516,9.287,9.287,0,0,0-11.751,5.4,8.665,8.665,0,0,0-.449,1.769,4.319,4.319,0,0,0-.435-.175,4.484,4.484,0,0,0-5.522,2.271,5.305,5.305,0,0,0-2.495-1.783,5.478,5.478,0,0,0-5.193.895,4.1,4.1,0,0,0-3.514-1.508,4.235,4.235,0,0,0-.429.056,7.934,7.934,0,0,0,.035-1.666,8.331,8.331,0,0,0-9.067-7.44,8.453,8.453,0,0,0-6.314,3.594,4.988,4.988,0,0,0-5.251-3.624,5.1,5.1,0,0,0-1.354.3,3.758,3.758,0,0,0,.277-1.761,4.015,4.015,0,0,0-4.369-3.584,4.148,4.148,0,0,0-1.554.434,6.832,6.832,0,0,0-7.419-5.964,7.038,7.038,0,0,0-3.246,1.086,10.253,10.253,0,0,0-8.5-3.387,10.022,10.022,0,0,0-8.952,7.243,6.525,6.525,0,0,0-3.843-.882,6.245,6.245,0,0,0-5.852,6.66l.008.107c-.019.014-.04.026-.058.04a3.156,3.156,0,0,0-3.389-2.557,3.075,3.075,0,0,0-.337.044,6.192,6.192,0,0,0,.027-1.3,6.526,6.526,0,0,0-7.1-5.832,6.623,6.623,0,0,0-4.947,2.816,3.911,3.911,0,0,0-4.115-2.84,4.06,4.06,0,0,0-1.061.231,2.945,2.945,0,0,0,.214-1.379,3.143,3.143,0,0,0-3.424-2.808,3.223,3.223,0,0,0-1.215.34,5.355,5.355,0,0,0-5.815-4.674,5.505,5.505,0,0,0-2.542.848,8.049,8.049,0,0,0-6.664-2.653,7.851,7.851,0,0,0-7.013,5.677,5.124,5.124,0,0,0-3.012-.692,5.055,5.055,0,0,0-2.378.826,7.886,7.886,0,0,0-4.61,3.361,5.546,5.546,0,0,0-2.653-.44l-.054.008a7.259,7.259,0,0,0-4.153.135,7.082,7.082,0,0,0-1.9.965v0a9.413,9.413,0,0,0-15.031-3.646,6.011,6.011,0,0,0-8.078-1.033,6.775,6.775,0,0,0-.387-2.607,7.311,7.311,0,0,0-9.212-4.334,7.183,7.183,0,0,0-3.558,2.587c-.046-.181-.1-.36-.162-.539a5.917,5.917,0,0,0-7.459-3.51,5.8,5.8,0,0,0-2.95,2.2,8.664,8.664,0,0,0-10.09-3.56,8.264,8.264,0,0,0-5.738,7.607,13.84,13.84,0,0,0-6.737.509,13,13,0,0,0-9.04,12.843,7.57,7.57,0,0,0-4.178.215,5.32,5.32,0,0,0,.191-.537,5.733,5.733,0,0,0-4.063-7.138,6.128,6.128,0,0,0-3.786.157,8.384,8.384,0,0,0-6.216-8.668,8.824,8.824,0,0,0-9.379,3.068,13.875,13.875,0,0,0-22.827,5.6,12.757,12.757,0,0,0-.449,5.222c-.135-.046-.268-.1-.408-.135a7.217,7.217,0,0,0-8.892,4.726,6.849,6.849,0,0,0-.239,1.2,9.272,9.272,0,0,0-2.725-2.328Z" transform="translate(166.554 102.719)" fill="url(#linear-gradient-18)"/>
      <path id="Path_160455" data-name="Path 160455" d="M412.449,390.579a15.669,15.669,0,0,0-5.255.895,6.517,6.517,0,0,0,.075-.939c0-4.418-4.445-8-9.927-8a11.637,11.637,0,0,0-5.52,1.351c-.349-3.411-3.888-6.095-8.211-6.095-.3,0-.591.014-.88.038a11.208,11.208,0,0,0,.359-2.812c0-7.617-7.665-13.792-17.115-13.792a18.825,18.825,0,0,0-13.416,5.234c-.813-3.876-4.988-6.831-10.027-6.831a12.446,12.446,0,0,0-2.8.322,5.584,5.584,0,0,0,.86-2.943c0-3.669-3.691-6.644-8.246-6.644a9.942,9.942,0,0,0-3.223.527c-.152-6.139-6.37-11.078-14.022-11.078a16.7,16.7,0,0,0-6.767,1.4c-3.736-4.155-9.8-6.863-16.659-6.863-8.954,0-16.569,4.617-19.387,11.058a15.151,15.151,0,0,0-7.647-2c-7.183,0-13,4.694-13,10.483v79l167.338,4.625c7.183,0,6.48-30.663,6.48-36.453S419.632,390.579,412.449,390.579Z" transform="translate(200.521 124.762)" fill="url(#linear-gradient-14)"/>
      <path id="Path_160456" data-name="Path 160456" d="M547.691,341.53a5.585,5.585,0,0,0-7.842-5.108,4.591,4.591,0,0,0,.03-.5,4.263,4.263,0,0,0-6.634-3.542,3.537,3.537,0,0,0-3.526-3.246,3.382,3.382,0,0,0-.378.02,7.228,7.228,0,0,0,.155-1.5,7.347,7.347,0,0,0-13.11-4.559,4.359,4.359,0,0,0-5.508-3.47,3.5,3.5,0,0,0,.37-1.566,3.542,3.542,0,0,0-4.925-3.261,6.027,6.027,0,0,0-8.929-5.156,8.827,8.827,0,0,0-15.478,2.235,5.5,5.5,0,0,0-6-.334,8.809,8.809,0,0,0-5.44,3.449,6.022,6.022,0,0,0-8.927,5.154,3.545,3.545,0,0,0-4.925,3.26,3.5,3.5,0,0,0,.37,1.568,4.359,4.359,0,0,0-5.508,3.468,7.351,7.351,0,0,0-12.958,6.059c-.123-.012-.249-.02-.376-.02a3.541,3.541,0,0,0-3.528,3.248,4.259,4.259,0,0,0-6.632,3.542,4.522,4.522,0,0,0,.03.5,5.585,5.585,0,0,0-7.842,5.11,23.965,23.965,0,0,0,1.09,5.817,19.271,19.271,0,0,0-3.234,9.442,5.585,5.585,0,0,0,7.842,5.108,4.589,4.589,0,0,0-.032.5,4.263,4.263,0,0,0,6.634,3.542A3.54,3.54,0,0,0,436,374.537a3.357,3.357,0,0,0,.378-.02,7.349,7.349,0,0,0,12.958,6.059,4.359,4.359,0,0,0,5.508,3.47,3.5,3.5,0,0,0-.37,1.566,3.541,3.541,0,0,0,4.925,3.26,6.025,6.025,0,0,0,8.927,5.156,8.828,8.828,0,0,0,15.48-2.235,5.5,5.5,0,0,0,6,.334,8.8,8.8,0,0,0,5.438-3.449,6.024,6.024,0,0,0,8.929-5.154,3.537,3.537,0,0,0,4.555-4.828,4.359,4.359,0,0,0,5.508-3.468,7.348,7.348,0,0,0,13.11-4.561,7.209,7.209,0,0,0-.155-1.5c.125.012.251.02.378.02a3.538,3.538,0,0,0,3.526-3.248,4.261,4.261,0,0,0,6.634-3.54,4.56,4.56,0,0,0-.03-.5,5.585,5.585,0,0,0,7.842-5.11c0-2.318-1.413-7.327-3.425-9.675A5.584,5.584,0,0,0,547.691,341.53Z" transform="translate(402.345 207.987)" fill="url(#linear-gradient-9)"/>
      <path id="Path_160457" data-name="Path 160457" d="M237.789,300.312a3.821,3.821,0,0,0-5.365-3.5,2.736,2.736,0,0,0,.022-.342,2.915,2.915,0,0,0-4.537-2.422,2.422,2.422,0,0,0-2.412-2.221,2.213,2.213,0,0,0-.259.014,5.084,5.084,0,0,0,.1-1.025,5.025,5.025,0,0,0-8.967-3.12,2.982,2.982,0,0,0-3.767-2.374,2.421,2.421,0,0,0-3.118-3.3,4.121,4.121,0,0,0-6.107-3.528,6.039,6.039,0,0,0-10.59,1.53,3.751,3.751,0,0,0-4.1-.227,6.02,6.02,0,0,0-3.721,2.358,4.121,4.121,0,0,0-6.107,3.526,2.426,2.426,0,0,0-3.369,2.231,2.4,2.4,0,0,0,.253,1.071,2.984,2.984,0,0,0-3.769,2.372,5.028,5.028,0,0,0-8.863,4.145c-.084-.008-.171-.014-.257-.014a2.422,2.422,0,0,0-2.412,2.221,2.917,2.917,0,0,0-4.539,2.424,3.217,3.217,0,0,0,.022.342,3.82,3.82,0,0,0-5.363,3.494,16.321,16.321,0,0,0,.744,3.98,13.178,13.178,0,0,0-2.211,6.459,3.82,3.82,0,0,0,5.363,3.5,3.175,3.175,0,0,0-.022.342,2.917,2.917,0,0,0,4.539,2.422,2.42,2.42,0,0,0,2.412,2.221,2.18,2.18,0,0,0,.257-.014,5.079,5.079,0,0,0-.1,1.025,5.027,5.027,0,0,0,8.969,3.12,2.987,2.987,0,0,0,2.945,2.491,2.925,2.925,0,0,0,.822-.119,2.421,2.421,0,0,0,3.116,3.3,4.121,4.121,0,0,0,6.107,3.528,6.04,6.04,0,0,0,10.59-1.53,3.765,3.765,0,0,0,4.107.227,6.021,6.021,0,0,0,3.719-2.358,4.121,4.121,0,0,0,6.107-3.528,2.42,2.42,0,0,0,3.118-3.3,2.982,2.982,0,0,0,3.767-2.372,5.027,5.027,0,0,0,8.969-3.12,4.912,4.912,0,0,0-.107-1.025c.086.008.171.014.259.014a2.422,2.422,0,0,0,2.412-2.223,2.913,2.913,0,0,0,4.537-2.422,2.757,2.757,0,0,0-.022-.342,3.821,3.821,0,0,0,5.365-3.5,12.954,12.954,0,0,0-2.342-6.617A3.819,3.819,0,0,0,237.789,300.312Z" transform="translate(130.67 178.546)" fill="url(#linear-gradient-9)"/>
      <path id="Path_160458" data-name="Path 160458" d="M353.678,412.982a10.479,10.479,0,0,0-16.642-8.477,16.568,16.568,0,0,0-29.053-4.2,11.306,11.306,0,0,0-16.755,9.675,6.638,6.638,0,0,0-8.549,9.06,8.109,8.109,0,0,0-4.386-.038,7.231,7.231,0,0,0-7.488-2h0a9.5,9.5,0,0,0-13.315-8.69,6.02,6.02,0,0,0-7.476-3.739,7.43,7.43,0,0,0-11.251-8.772c.018-.195.028-.394.028-.593a6.01,6.01,0,0,0-9.643-4.8,8.738,8.738,0,0,0-16.751-1.232A13.794,13.794,0,0,0,192.982,406.6c-.143-.008-.287-.022-.434-.022a7.218,7.218,0,0,0-7.124,8.521,9.485,9.485,0,0,0-13.108,1.789,10.179,10.179,0,0,0-18.942,5.116,5.7,5.7,0,0,0-8.139,7.8,10.167,10.167,0,0,0-2.117,6.149,5.722,5.722,0,0,0-8.893,6.437,6.007,6.007,0,0,0,5.645,10.346h0a7.874,7.874,0,0,0,11.046,7.208,4.993,4.993,0,0,0,6.2,3.1,6.164,6.164,0,0,0,9.333,7.279c-.014.163-.024.326-.024.492a4.987,4.987,0,0,0,8,3.978,7.245,7.245,0,0,0,13.788,1.287,12.168,12.168,0,0,0,18.309.722,9.522,9.522,0,0,0,14.924-3.021,6.037,6.037,0,0,0,8.139-2.056,7.462,7.462,0,0,0,14.312-.7c.115.161.235.32.366.47a6.03,6.03,0,0,0,9.773-.862h99.638Z" transform="translate(47.969 118.383)" fill="url(#linear-gradient-14)"/>
      <path id="Path_160459" data-name="Path 160459" d="M62.829,446.769a10.459,10.459,0,0,1,4.245.9,8.017,8.017,0,0,1,12.421-7.6,6.66,6.66,0,0,1,6.636-6.109,6.9,6.9,0,0,1,.71.038,13.826,13.826,0,0,1,24.379-11.4,8.193,8.193,0,0,1,10.362-6.525,6.661,6.661,0,0,1,8.571-9.084,11.334,11.334,0,0,1,16.8-9.7,16.612,16.612,0,0,1,29.127,4.205,10.507,10.507,0,0,1,16.684,8.5v1.158a8.735,8.735,0,0,1,3.584,1.425,13.88,13.88,0,0,1,24.339-3.514,9.472,9.472,0,0,1,14.037,8.107,5.56,5.56,0,0,1,7.162,7.588,6.851,6.851,0,0,1,8.66,5.454,11.553,11.553,0,0,1,20.614,7.17,11.649,11.649,0,0,1-.241,2.356,5.773,5.773,0,0,1,.593-.032,5.565,5.565,0,0,1,5.544,5.106,6.7,6.7,0,0,1,10.431,5.57,6.728,6.728,0,0,1-.05.784,8.782,8.782,0,0,1,12.328,8.035c0,4.851-3.932,22.2-8.78,22.2H182.4v-.5H62.829c-5.805,0-10.509-17.81-10.509-23.614A10.509,10.509,0,0,1,62.829,446.769Z" transform="translate(-32.578 125.383)" fill="url(#linear-gradient-23)"/>
      <path id="Path_160460" data-name="Path 160460" d="M998.707,408.968a15.443,15.443,0,0,0-5.224.9,6.608,6.608,0,0,0,.074-.941c0-4.43-4.418-8.021-9.869-8.021a11.48,11.48,0,0,0-5.489,1.357c-.346-3.421-3.866-6.111-8.162-6.111-.3,0-.586.014-.876.038a11.372,11.372,0,0,0,.356-2.82c0-7.637-7.618-13.828-17.015-13.828a18.637,18.637,0,0,0-13.339,5.249c-.809-3.886-4.957-6.847-9.968-6.847a12.271,12.271,0,0,0-2.78.322,5.645,5.645,0,0,0,.853-2.949c0-3.681-3.67-6.662-8.2-6.662a9.777,9.777,0,0,0-3.206.529c-.151-6.155-6.332-11.106-13.94-11.106a16.466,16.466,0,0,0-6.728,1.405c-3.713-4.167-9.745-6.881-16.562-6.881a24.305,24.305,0,0,0-8.484,1.51,8.267,8.267,0,0,0-.646-.768c-3.492-3.667-9.978-4.336-14.489-1.5a9.071,9.071,0,0,0-2.758,2.643,6.766,6.766,0,0,0-.519-.623,9.151,9.151,0,0,0-11.059-1.142,6.562,6.562,0,0,0-2.649,3.037,7.666,7.666,0,0,0-8.832-.613c-.186.119-.361.243-.529.372A11.015,11.015,0,0,0,827.2,353.6c-4.6-4.822-13.134-5.7-19.065-1.968a10.456,10.456,0,0,0-5.266,8.616,9.537,9.537,0,0,0-10.416-.362,7.433,7.433,0,0,0-1.561,1.309,4.926,4.926,0,0,0-1.237-2.2,7.6,7.6,0,0,0-9.186-.949,5.833,5.833,0,0,0-1.7,1.608c-3.8-3.825-10.683-4.495-15.486-1.471a9.555,9.555,0,0,0-3.4,3.562,19.363,19.363,0,0,0-14.6,2.237c-5.622,3.54-7.616,9.472-5.5,14.664a11.842,11.842,0,0,0-6.008,1.751,9.59,9.59,0,0,0-1.712,1.377,10.253,10.253,0,0,0-8.707-4.31,11.918,11.918,0,0,0-2.943.366h0c0-5.767-5.751-10.443-12.847-10.443a15.35,15.35,0,0,0-5.174.884c-1.118-2.571-4.126-4.416-7.673-4.416a9.891,9.891,0,0,0-2.446.3,6.808,6.808,0,0,0,.715-3.021c0-4.515-4.5-8.175-10.059-8.175a11.633,11.633,0,0,0-5.882,1.546,5.658,5.658,0,0,0,.04-.651c0-3.657-3.646-6.62-8.145-6.62a9.373,9.373,0,0,0-4.907,1.345c-1.115-4.364-5.874-7.643-11.573-7.643-5.093,0-9.434,2.617-11.1,6.288a21.979,21.979,0,0,0-9.08-1.918c-.289,0-.569.024-.856.034-1.922-4.049-5.976-7.389-11.449-8.835a21.861,21.861,0,0,0-16.5,2.145,13.09,13.09,0,0,0-5.268-2.718c-6.5-1.717-13.475,1.12-15.706,6.346a7.934,7.934,0,0,0-2.558-1.176c-3.869-1.021-8.024.7-9.28,3.845a4.888,4.888,0,0,0-.277,2.712,10.2,10.2,0,0,0-2.266-.9c-4.284-1.13-8.84.466-10.858,3.6a14.294,14.294,0,0,0-9.607-7.494c-8.031-2.119-16.654,1.453-19.263,7.98a10.455,10.455,0,0,0-.658,2.489c-.237-.084-.482-.163-.735-.229-3.673-.971-7.6.535-9.063,3.379a9.046,9.046,0,0,0-4.227-2.4c-4.657-1.228-9.659.842-11.173,4.627a6.135,6.135,0,0,0-.257.82,12.475,12.475,0,0,0-4.16-1.944,14.047,14.047,0,0,0-4.264-.438c-2.167-3.841-7.289-6.189-12.659-5.452a11.934,11.934,0,0,0-8.363,4.831c-1.1-2.577-4.356-4.211-7.776-3.741a8.155,8.155,0,0,0-1.853.48,3.8,3.8,0,0,0,.166-2.095c-.522-2.513-3.45-4.205-6.542-3.781a6.5,6.5,0,0,0-2.112.661c-.977-4.187-5.9-6.989-11.093-6.278a10.815,10.815,0,0,0-4.4,1.588,16.293,16.293,0,0,0-12.281-3.146c-6.08.832-10.591,4.7-11.59,9.373a10.744,10.744,0,0,0-5.474-.661,10.455,10.455,0,0,0-2.674.736,13.1,13.1,0,0,0-2.619-1.271,14.429,14.429,0,0,0-2.508-.633,5.813,5.813,0,0,0-1.492-.193c-.059,0-.119.006-.178.008a14.577,14.577,0,0,0-1.729.014c-.272-3.482-3.819-6.24-8.17-6.24a9.694,9.694,0,0,0-3.955.826,13.03,13.03,0,0,0-9.733-4.042c-5.234,0-9.683,2.72-11.331,6.515a8.788,8.788,0,0,0-4.467-1.182,9.139,9.139,0,0,0-1.971.213V462.765H871.672V449.586l127.036-19.6c7.143,0,12.931-4.706,12.931-10.509S1005.85,408.968,998.707,408.968Z" transform="translate(220.53 125.851)" fill="url(#linear-gradient-14)"/>
      <path id="Path_160461" data-name="Path 160461" d="M666.749,426.6a9.986,9.986,0,0,0-4.044.854,7.338,7.338,0,0,0,.058-.9,7.637,7.637,0,0,0-11.888-6.346,6.34,6.34,0,0,0-7-5.783,13.169,13.169,0,0,0-23.22-10.859,7.807,7.807,0,0,0-9.87-6.213,6.345,6.345,0,0,0-8.163-8.652,10.794,10.794,0,0,0-16-9.239,15.82,15.82,0,0,0-27.74,4,10.009,10.009,0,0,0-15.892,8.1v1.1a8.321,8.321,0,0,0-3.413,1.357,13.22,13.22,0,0,0-23.181-3.347,9.019,9.019,0,0,0-13.37,7.721,5.3,5.3,0,0,0-6.822,7.229,6.521,6.521,0,0,0-8.246,5.192,11.005,11.005,0,0,0-19.4,9.074c-.187-.018-.374-.03-.565-.03a5.3,5.3,0,0,0-5.281,4.863,6.385,6.385,0,0,0-9.934,5.3,6.552,6.552,0,0,0,.046.748,8.361,8.361,0,0,0-11.741,7.651c0,4.619,3.743,24.154,8.362,24.154H552.863l113.886-.179c5.528,0,10.009-20.271,10.009-25.8A10.008,10.008,0,0,0,666.749,426.6Z" transform="translate(425.628 163.71)" fill="url(#linear-gradient-14)"/>
      <path id="Path_160462" data-name="Path 160462" d="M467.056,433.626a10.508,10.508,0,0,0-14.755-9.613,7.979,7.979,0,0,0-7.96-8.959,7.968,7.968,0,0,0-4.461,1.355,6.66,6.66,0,0,0-6.636-6.111,6.378,6.378,0,0,0-.71.04,13.827,13.827,0,0,0-24.379-11.4,8.2,8.2,0,0,0-10.362-6.525,6.66,6.66,0,0,0-8.571-9.082,11.335,11.335,0,0,0-16.8-9.7,16.609,16.609,0,0,0-29.125,4.205,10.5,10.5,0,0,0-16.684,8.5v1.16a8.735,8.735,0,0,0-3.584,1.425A13.88,13.88,0,0,0,298.69,385.4a9.472,9.472,0,0,0-14.037,8.107,5.561,5.561,0,0,0-7.162,7.59,6.852,6.852,0,0,0-8.66,5.452,11.554,11.554,0,0,0-20.614,7.17,11.683,11.683,0,0,0,.241,2.358,5.791,5.791,0,0,0-.593-.032,5.565,5.565,0,0,0-5.544,5.106,6.7,6.7,0,0,0-10.431,5.568,6.733,6.733,0,0,0,.05.786A8.785,8.785,0,0,0,220.3,438.952,8.784,8.784,0,0,0,231.94,450.4a6.7,6.7,0,0,0,10.381,6.354,5.565,5.565,0,0,0,5.544,5.106,5.756,5.756,0,0,0,.593-.032,11.563,11.563,0,0,0,11.315,13.912,11.527,11.527,0,0,0,9.058-4.386,6.851,6.851,0,0,0,8.66,5.454,5.567,5.567,0,0,0,7.162,7.59A9.472,9.472,0,0,0,298.69,492.5a13.88,13.88,0,0,0,24.339-3.514,8.736,8.736,0,0,0,3.584,1.425v1.158a10.507,10.507,0,0,0,16.684,8.5,16.611,16.611,0,0,0,29.125,4.205,11.335,11.335,0,0,0,16.8-9.7,6.654,6.654,0,0,0,8.571-9.082,8.2,8.2,0,0,0,10.362-6.527,13.828,13.828,0,0,0,24.379-11.4,6.9,6.9,0,0,0,.71.038,6.66,6.66,0,0,0,6.636-6.109,8,8,0,0,0,12.421-7.6A10.5,10.5,0,0,0,465.6,438.952,10.442,10.442,0,0,0,467.056,433.626Z" transform="translate(136.416 101.487)" fill="url(#linear-gradient-14)"/>
      <path id="Path_160463" data-name="Path 160463" d="M843.681,421.078c0-4.49-5.1-8.132-11.382-8.132a13.977,13.977,0,0,0-7.95,2.32,12.7,12.7,0,0,0-5.359-1.148,13.174,13.174,0,0,0-3.958.6c-.856-1.731-3.158-2.972-5.872-2.972a8.592,8.592,0,0,0-1.871.2,4.138,4.138,0,0,0,.547-2.033c0-3.037-3.445-5.5-7.7-5.5a9.844,9.844,0,0,0-4.5,1.04,3.194,3.194,0,0,0,.032-.44c0-2.459-2.792-4.453-6.234-4.453a7.917,7.917,0,0,0-3.753.9c-.854-2.936-4.495-5.141-8.857-5.141a10.814,10.814,0,0,0-6.776,2.208c-.119-3.805-4.453-6.868-9.808-6.868a13.194,13.194,0,0,0-3.958.6c-.854-1.731-3.158-2.972-5.872-2.972a8.482,8.482,0,0,0-1.87.205,4.164,4.164,0,0,0,.545-2.034c0-3.037-3.445-5.5-7.695-5.5a9.85,9.85,0,0,0-4.5,1.04,3.536,3.536,0,0,0,.03-.44c0-2.459-2.79-4.453-6.232-4.453a7.925,7.925,0,0,0-3.755.9c-.854-2.936-4.495-5.141-8.855-5.141-3.9,0-7.219,1.76-8.491,4.229a18.813,18.813,0,0,0-6.947-1.29c-6.079,0-11.257,2.721-13.317,6.546a15.508,15.508,0,0,0-6.211.076c-1.882-2.308-5.343-3.879-9.351-3.879a13.893,13.893,0,0,0-6.38,1.483c-2.352-4.766-8.706-8.182-16.182-8.182-5.721,0-10.785,2-13.9,5.078a15.451,15.451,0,0,0-5.649-1.037c-6.386,0-11.577,3.656-11.7,8.2a9.255,9.255,0,0,0-2.689-.391c-3.8,0-6.881,2.2-6.881,4.917a3.8,3.8,0,0,0,.718,2.178,11.622,11.622,0,0,0-2.334-.238c-4.207,0-7.691,2.186-8.37,5.054a16.846,16.846,0,0,0-11.2-3.873c-7.888,0-14.282,4.57-14.282,10.206a7.439,7.439,0,0,0,.3,2.081c-.241-.017-.484-.027-.734-.027-3.606,0-6.561,1.985-6.853,4.509a10.716,10.716,0,0,0-4.607-1c-4.575,0-8.284,2.652-8.284,5.921a4.2,4.2,0,0,0,.062.694,14.54,14.54,0,0,0-4.386-.662c-5.994,0-10.855,3.473-10.855,7.757s4.86,7.757,10.855,7.757l134.209,23.059v-33.7h26.06a6.814,6.814,0,0,0-3.461,5.5,7.5,7.5,0,0,0-3.594-.876c-3.265,0-5.912,1.89-5.912,4.223s2.647,4.225,5.912,4.225c.036,0,.072,0,.111,0h13.426c.2.007.4.013.6.013s.4-.006.6-.013l97.883,10.321a5.985,5.985,0,0,0-.424,2.175c0,4.492,5.1,8.132,11.38,8.132s11.382-3.64,11.382-8.132a7.016,7.016,0,0,0-2.949-5.447,59.007,59.007,0,0,0,2.8-11.534C841.585,426.478,843.681,423.956,843.681,421.078Z" transform="translate(525.101 163.658)" fill="url(#linear-gradient-9)"/>
    </g>
    <g id="Group_7606" data-name="Group 7606" transform="translate(61.998 4456.863)" opacity="0.65">
      <path id="Path_160467" data-name="Path 160467" d="M602.6,186.329a4.579,4.579,0,0,1-.917-.467,1.534,1.534,0,0,1-.609-.806,8,8,0,0,1,1.533.575,4.638,4.638,0,0,1,2.29.523c.914.344,1.872.565,2.77.948a4.475,4.475,0,0,1,2.234,1.809,6.322,6.322,0,0,0,.966,1.783,4.659,4.659,0,0,1,.71-.622,1.579,1.579,0,0,1,.885-.292.959.959,0,0,1,.8.422c.126.205.08.5.158.726a3.31,3.31,0,0,0,.242.548,6.214,6.214,0,0,0-.621-.376c-.211-.111-.481.219-.485.458l-.08-.1a1.642,1.642,0,0,1-.035.636l-.082-.106a1.209,1.209,0,0,1-.166.561l-.052-.113a10.171,10.171,0,0,1-.884,1.608,4.229,4.229,0,0,1-.293.49l-.044-.213a2.062,2.062,0,0,1-.617.563l.013-.207a1.367,1.367,0,0,1-.835.3,1.318,1.318,0,0,0-.79.287,1.91,1.91,0,0,0-.527.945,8.36,8.36,0,0,0-.171,1.083,1.422,1.422,0,0,1-.124.482.536.536,0,0,1-.377.3.356.356,0,0,1-.4-.234.424.424,0,0,1-.5-.242c.01,0-.005.013.005.016a.383.383,0,0,1-.459-.03,1.167,1.167,0,0,1-.3-.4.477.477,0,0,1-.379-.027.5.5,0,0,1-.257-.292.773.773,0,0,1-.5-.073.441.441,0,0,1-.23-.421.385.385,0,0,1-.34-.148.414.414,0,0,1-.086-.373.247.247,0,0,1-.109-.3.652.652,0,0,1,.2-.274,5.574,5.574,0,0,1,1.705-1.036,17.228,17.228,0,0,1,1.953-.6.5.5,0,0,1-.451-.269.191.191,0,0,1-.25-.064.4.4,0,0,1-.05-.275.842.842,0,0,1,.049-.239c-.124-.018-.242.114-.361.074a.187.187,0,0,1-.111-.179.6.6,0,0,1,.049-.228.192.192,0,0,1-.221.009.312.312,0,0,1-.13-.191.83.83,0,0,1-.017-.223.43.43,0,0,1-.332-.161.534.534,0,0,1-.066-.409,1.581,1.581,0,0,1-.753-.4.1.1,0,0,1-.045-.059.107.107,0,0,1,.009-.052c.024-.068.089-.127.114-.195a1.234,1.234,0,0,1-.9-.54.647.647,0,0,0,.205-.175.891.891,0,0,1-.688-.345.775.775,0,0,0,.248-.169.993.993,0,0,1-.5-.135,2.976,2.976,0,0,1-.429-.305.763.763,0,0,0,.262-.1,1.712,1.712,0,0,1-.888-.586c.073-.015.138-.049.211-.064a2.523,2.523,0,0,1-.842-.722l.208-.058a1.648,1.648,0,0,1-.824-.6c.089-.011.194-.047.284-.058a2.07,2.07,0,0,1-1.051-.863A10.732,10.732,0,0,1,602.6,186.329Z" transform="translate(-541.741 -103.009)" fill="#40102e"/>
      <path id="Path_160468" data-name="Path 160468" d="M553.749,127.383a10.313,10.313,0,0,1-1.6-1.676,3.452,3.452,0,0,1-.7-2.168,18.217,18.217,0,0,1,2.834,2.362c1.76.319,3.115,1.668,4.487,2.816,1.688,1.411,3.562,2.594,5.189,4.074a10.1,10.1,0,0,1,3.411,5.511c.265,1.523-.006,3.153.73,4.513a10.76,10.76,0,0,1,1.975-.8,3.577,3.577,0,0,1,2.1.037,2.166,2.166,0,0,1,1.4,1.495c.115.531-.2,1.12-.205,1.663a7.607,7.607,0,0,0,.108,1.347,14.523,14.523,0,0,0-1.041-1.264c-.369-.392-1.187.111-1.374.615l-.1-.269a3.717,3.717,0,0,1-.547,1.327l-.1-.286a2.737,2.737,0,0,1-.77,1.072l-.026-.28a23.036,23.036,0,0,1-3.078,2.765,9.465,9.465,0,0,1-.987.826l.064-.487a4.6,4.6,0,0,1-1.732.74c.061-.142.121-.286.182-.43a3.065,3.065,0,0,1-2,.013,2.978,2.978,0,0,0-1.9.026,4.314,4.314,0,0,0-1.824,1.619,19.03,19.03,0,0,0-1.167,2.178,3.3,3.3,0,0,1-.622.934,1.207,1.207,0,0,1-1.026.357c-.369-.071-.753-.426-.686-.8a.958.958,0,0,1-.878-.885c.019.014-.02.024,0,.037a.859.859,0,0,1-.952-.4,2.616,2.616,0,0,1-.353-1.073,1.079,1.079,0,0,1-.787-.339,1.122,1.122,0,0,1-.329-.813,1.748,1.748,0,0,1-1.005-.524,1,1,0,0,1-.177-1.068.877.877,0,0,1-.614-.567.936.936,0,0,1,.1-.857.558.558,0,0,1-.013-.712,1.458,1.458,0,0,1,.632-.436,12.6,12.6,0,0,1,4.4-.937,38.894,38.894,0,0,1,4.605.164,1.139,1.139,0,0,1-.76-.907.433.433,0,0,1-.484-.323.887.887,0,0,1,.1-.622,1.945,1.945,0,0,1,.283-.471c-.25-.132-.6.06-.824-.114a.417.417,0,0,1-.1-.46,1.369,1.369,0,0,1,.273-.451.431.431,0,0,1-.477-.144.714.714,0,0,1-.135-.5,1.949,1.949,0,0,1,.13-.488.966.966,0,0,1-.587-.589,1.206,1.206,0,0,1,.162-.92,3.558,3.558,0,0,1-1.3-1.421.178.178,0,0,1,.006-.263c.1-.128.285-.2.387-.33a2.779,2.779,0,0,1-1.51-1.818,1.478,1.478,0,0,0,.565-.221,2,2,0,0,1-1.207-1.244,1.718,1.718,0,0,0,.652-.177,2.253,2.253,0,0,1-.969-.661,6.7,6.7,0,0,1-.686-.967,1.736,1.736,0,0,0,.631-.011,3.851,3.851,0,0,1-1.456-1.906c.167.024.33,0,.5.021a5.719,5.719,0,0,1-1.254-2.162c.161.011.325.02.485.031a3.73,3.73,0,0,1-1.308-1.891c.2.044.448.046.648.088a4.675,4.675,0,0,1-1.6-2.617A24.139,24.139,0,0,1,553.749,127.383Z" transform="translate(-357.239 -97.508)" fill="#40102e"/>
      <path id="Path_160469" data-name="Path 160469" d="M599.594,140.955a26.233,26.233,0,0,1,5.368,3.121,2.335,2.335,0,0,1-.361-.679,1.739,1.739,0,0,0,.554.145,2.23,2.23,0,0,1-.737-1.066c.244.057.539.142.783.2a1.779,1.779,0,0,1-.779-1.423c.28.149.587.344.866.493a2.011,2.011,0,0,1-.558-1.248c2.041,1.45,3.478,3.58,5.226,5.372a4.988,4.988,0,0,1,1.4,1.914,5.533,5.533,0,0,1-.24,2.722,11.3,11.3,0,0,0-.213,1.4c.291-.088.572-.22.862-.317a1.6,1.6,0,0,1,1.177-.024l.021.012.023-.022a.629.629,0,0,1,.222,1.107c.053.2.154.415.207.611l-.53-.241c-.264-.119-.5.252-.678.478a6.564,6.564,0,0,0-.449.742,3.859,3.859,0,0,1-2.846,1.808,1.278,1.278,0,0,0-.155.18,1.482,1.482,0,0,1-.128,1.307.69.69,0,0,1-.378.284.374.374,0,0,1-.417-.163,1.3,1.3,0,0,1-.647.728.368.368,0,0,1-.24.039.16.16,0,0,1-.122-.185,1.836,1.836,0,0,1-.815.945.538.538,0,0,1-.277.072.24.24,0,0,1-.218-.161,3.117,3.117,0,0,1-.495.7.928.928,0,0,1-.734.266,5.981,5.981,0,0,1,.469-1.8,4.966,4.966,0,0,1-1.588,1.137c-.122.052-.295.085-.362-.03-.053-.091.005-.2.063-.292l.671-1.026a7.242,7.242,0,0,1-1.469,1.06,2.565,2.565,0,0,1,1.076-1.846,13.688,13.688,0,0,0,1.7-1.4c.315-.362.546-.789.825-1.179a3.509,3.509,0,0,1,.446-.512,5.153,5.153,0,0,1-.888-2.171.917.917,0,0,1-.424-.883.668.668,0,0,1-.268-.719.642.642,0,0,1-.282-.791.91.91,0,0,1-.394-1.115,27.037,27.037,0,0,1-2.586-2.614c.129.015.224.017.352.032l-.9-1.009c.158.014.337.055.495.069a2.624,2.624,0,0,1-.933-.862,1.925,1.925,0,0,0,.638,0,2.5,2.5,0,0,1-1.1-.935c.28-.008.621,0,.9-.011a1.981,1.981,0,0,1-1.247-1.308c.344.08.73.2,1.074.282A2.244,2.244,0,0,1,599.594,140.955Z" transform="translate(-599.479 -108.008)" fill="#40102e"/>
    </g>
  </g>
</svg>
