<svg id="newspaper" xmlns="http://www.w3.org/2000/svg" width="24" height="18.4" viewBox="0 0 24 18.4">
  <path id="Path_9617" data-name="Path 9617" d="M4.725,5.063v15.8a1,1,0,0,1-2,0V9.063h-1.6v11.8a2.6,2.6,0,0,0,2.6,2.6h18.8a2.6,2.6,0,0,0,2.6-2.6V5.063Zm18.8,15.8a1,1,0,0,1-1,1H6.125a2.586,2.586,0,0,0,.2-1V6.663h17.2Z" transform="translate(-1.125 -5.063)"/>
  <path id="Path_9618" data-name="Path 9618" d="M17.888,9.563h-7.2v8h7.2Zm-1.6,6.4h-4v-4.8h4Z" transform="translate(-3.888 -6.363)"/>
  <path id="Path_9619" data-name="Path 9619" d="M23.063,9.563h5.2v1.6h-5.2Z" transform="translate(-7.463 -6.363)"/>
  <path id="Path_9620" data-name="Path 9620" d="M23.063,14.063h5.2v1.6h-5.2Z" transform="translate(-7.463 -7.663)"/>
  <path id="Path_9621" data-name="Path 9621" d="M23.063,18.563h5.2v1.6h-5.2Z" transform="translate(-7.463 -8.963)"/>
</svg>
