<svg xmlns="http://www.w3.org/2000/svg" xmlns:xlink="http://www.w3.org/1999/xlink" width="265.509" height="57.024" viewBox="0 0 265.509 57.024">
  <defs>
    <clipPath id="clip-path">
      <path id="Path_157622" data-name="Path 157622" d="M72.62,65.523,72.3,66.7l-53.1.377c-.126-.266-.245-.531-.37-.8l-.2-.748v-.028a1.062,1.062,0,0,1,.636-1.251c.266-.112.72.224.9.266s-.021-.412-.021-.412a1.188,1.188,0,0,1,0-.888.727.727,0,0,1,.783-.545c.245.049.259-.224.259-.224a7.113,7.113,0,0,1,.049-1.111c.077-.343.119-.741.119-.741-.308.573-.629.531-.629.531s-.482-.014-.238-.7a1.1,1.1,0,0,1,.727-.727.174.174,0,0,0,.119-.14c.007-.252.028-.818.007-.979a.8.8,0,0,0-.168-.315.524.524,0,0,1-.112-.245,3.032,3.032,0,0,1,.021-1.091,3.153,3.153,0,0,1,1.146-1.314c.217-.021.405.294.5.468s.182-.161.189-.3-.126-.168-.189-.3.1-.776.007-1a1.965,1.965,0,0,1-.189-.825,7.386,7.386,0,0,1,.741-1.5s.524-.839.678-.629.51.14.51.14a1.158,1.158,0,0,1-.21-.713c.007-.433.447-.755.489-.895s-.2-.224-.245-.482a1.069,1.069,0,0,1,.175-.608.152.152,0,0,0,.007-.154.529.529,0,0,1-.056-.287,9.09,9.09,0,0,1,.608-2.566c.063-.182-.028-.958,0-1.167a.216.216,0,0,1,.245-.182.811.811,0,0,1,.51-.734c.245-.042.245.161.44.37s.238-.077.238-.077a3.379,3.379,0,0,1-.028-1.748.153.153,0,0,0-.014-.112c-.084-.154-.308-.587-.161-.8a3.7,3.7,0,0,0,.51-1.091c0-.238.175-.224.175-.224h.294a.164.164,0,0,0,.154-.224,2.951,2.951,0,0,1-.049-1.049c0-.175.056-.294.329-.405.231-.091.189-.426.189-.426V37.3a.385.385,0,0,1,.238-.384.591.591,0,0,1-.231-.531l.084-1.706h.517a.118.118,0,0,0,.119-.119V34.29a.106.106,0,0,0-.049-.1c-.084-.07-.273-.224-.426-.336a.655.655,0,0,1-.245-.65.515.515,0,0,1,.259-.377.13.13,0,0,0,.063-.1,2.578,2.578,0,0,1,.245-1.063,1.284,1.284,0,0,1,.734-.734c.266-.007.336.224.447.405a.108.108,0,0,0,.189,0,1.111,1.111,0,0,1,.433-.391V30.62h.252v-.853a.323.323,0,0,1,.042-.315.1.1,0,0,0,0-.126,8.787,8.787,0,0,1-.692-1.244c-.119-.329.238-.559.377-.643a.112.112,0,0,0,.056-.1v-.72c.007-.329.21-.3.21-.3.042-.594.329-.741.468-.776a.1.1,0,0,0,.077-.1l.049-.881a.084.084,0,0,0-.014-.056,3.262,3.262,0,0,1-.315-1.153c-.007-.377.126-.468.2-.482a.09.09,0,0,0,.07-.07.846.846,0,0,1,.552-.7.413.413,0,0,1,.482.238l.021-.531s-.119-.042-.126-.426a.4.4,0,0,1,.28-.447,1.468,1.468,0,0,1-.391-.713.7.7,0,0,1,.063-.482c.021-.028.035-.049.035-.049.028-.391.168-.482.259-.5a.069.069,0,0,0,.049-.091,7.91,7.91,0,0,1-.35-1.356c0-.308.468-.217.468-.217v-.412h-.426a.322.322,0,0,1-.259-.35.308.308,0,0,1,.315-.315v-.189h-.391c-.189,0-.161-.147-.161-.147v-.426a.39.39,0,0,1-.21-.343,1.142,1.142,0,0,1,.084-.426.09.09,0,0,0-.007-.084l-.377-.713a.024.024,0,0,0-.007-.014v-.587a.071.071,0,0,0-.035-.056c-.035-.021-.077-.084-.084-.266-.014-.3.21-.329.21-.329-.112-.042-.112-.343-.112-.384v-.5c0-.343.21-.322.21-.322h.51a.094.094,0,0,0,.091-.056c.035-.077.133-.2.4-.2.287,0,.636.336.783.5a.127.127,0,0,0,.147.035,1.251,1.251,0,0,1,.58.021A.186.186,0,0,0,34,11.906a1.877,1.877,0,0,1,1.07-.468v-.357H35.6a.14.14,0,0,1,.14.14v.294a.3.3,0,0,1,.287.28v.937c-.007,0-.021.007-.028.007a1.247,1.247,0,0,0-.8,1.5c.482,1.88,1.566,2.314,2,2.412a.183.183,0,0,0,.21-.126c.1-.252.482-.189.482-.189v-.147s-.51.063-.552-.874a1.381,1.381,0,0,1,.44-1.028.149.149,0,0,0,.021-.2.817.817,0,0,1-.147-.51.626.626,0,0,1,.37-.594v-.336a.207.207,0,0,1,.014-.07l.489-1.139a.184.184,0,0,1,.175-.112h.161a.146.146,0,0,1,.14.091l.447,1.056a.2.2,0,0,1,.014.063v.412a.076.076,0,0,0,.049.077.67.67,0,0,1,.391.608.844.844,0,0,1-.224.545.12.12,0,0,0,.028.189,1,1,0,0,1,.5.853,1.019,1.019,0,0,1-.273.72.308.308,0,0,0,.007.405.475.475,0,0,1,.1.252.13.13,0,0,0,.133.112h.566a.128.128,0,0,0,.126-.091c.077-.3.517-.322.517-.322v-.21s-.489.154-.594-.776a.906.906,0,0,1,.5-1.028.1.1,0,0,0,.035-.147.719.719,0,0,1-.119-.482c0-.412.2-.545.322-.594a.166.166,0,0,0,.112-.14l.028-.426a.135.135,0,0,1,.021-.07l.5-.951a.157.157,0,0,1,.133-.084h.238a.135.135,0,0,1,.133.1l.224,1.014v.028l.021.433a.126.126,0,0,0,.063.112.839.839,0,0,1,.405.615.679.679,0,0,1-.245.5.1.1,0,0,0,.021.161,1.279,1.279,0,0,1,.552.916,1.4,1.4,0,0,1-.51.811.133.133,0,0,0,.035.217.5.5,0,0,1,.245.259.177.177,0,0,0,.161.1h.755a.123.123,0,0,0,.1-.056c.091-.189.454-.189.454-.189v-.287a.986.986,0,0,1-.643-.839.955.955,0,0,1,.552-.839v-.224s-.21.035-.21-.475.329-.566.329-.566v-.468a10.474,10.474,0,0,1,.384-1.153.16.16,0,0,1,.154-.1h.168a.128.128,0,0,1,.126.091,10.9,10.9,0,0,1,.391,1.174V13.2s.329.056.329.566-.21.475-.21.475v.224a.955.955,0,0,1,.552.839.986.986,0,0,1-.643.839v.287s.364,0,.454.189a.109.109,0,0,0,.1.056h.79a.12.12,0,0,0,.112-.077.536.536,0,0,1,.28-.3.12.12,0,0,0,.035-.2,1.388,1.388,0,0,1-.524-.825,1.279,1.279,0,0,1,.482-.867.184.184,0,0,0,.035-.266.676.676,0,0,1-.189-.44.847.847,0,0,1,.4-.608.137.137,0,0,0,.063-.119l.014-.405c0-.021.007-.049.007-.07l.2-.937a.208.208,0,0,1,.2-.161h.168a.168.168,0,0,1,.154.1l.489.93a.141.141,0,0,1,.021.077l.028.419a.193.193,0,0,0,.119.154c.126.049.315.189.315.587a.85.85,0,0,1-.1.482.131.131,0,0,0,.049.182,1.107,1.107,0,0,1,.461.986c.021.937-.594.776-.594.776v.21s.454.021.524.329a.12.12,0,0,0,.112.084h.58a.115.115,0,0,0,.119-.1.457.457,0,0,1,.231-.364.1.1,0,0,0,.021-.161,1.049,1.049,0,0,1-.419-.86,1.023,1.023,0,0,1,.468-.832.172.172,0,0,0,.028-.252.885.885,0,0,1-.189-.5.655.655,0,0,1,.343-.587.182.182,0,0,0,.091-.154v-.35a.251.251,0,0,1,.014-.077l.482-1.146h.384l.538,1.251a.151.151,0,0,1,.014.077v.336a.831.831,0,0,1,.371.678.632.632,0,0,1-.14.433.143.143,0,0,0,.035.21,1.047,1.047,0,0,1,.412,1c-.042.937-.552.874-.552.874v.147s.426-.077.5.238a.11.11,0,0,0,.133.084c.419-.077,1.762-.524,2.174-2.985v-.042c-.007-.1-.084-.6-.832-.874a.179.179,0,0,1-.119-.161V11.78a.3.3,0,0,1,.287-.28v-.315a.125.125,0,0,1,.126-.126H56.1v.357a1.836,1.836,0,0,1,1.091.489.125.125,0,0,0,.126.042,1.247,1.247,0,0,1,.622-.021.107.107,0,0,0,.119-.028c.14-.154.5-.5.79-.5a.425.425,0,0,1,.377.161.182.182,0,0,0,.154.091h.468s.21-.021.21.322v.741a.606.606,0,0,1-.112.154.411.411,0,0,1,.21.329.922.922,0,0,1-.119.28v.608a.118.118,0,0,1-.021.07l-.35.657a.178.178,0,0,0-.007.147.992.992,0,0,1,.077.4.346.346,0,0,1-.217.343v.426s.035.147-.161.147h-.391v.217a.308.308,0,0,1,.315.315.322.322,0,0,1-.259.35H58.6v.412s.468-.1.468.217a7.256,7.256,0,0,1-.329,1.286.135.135,0,0,0,.07.168c.091.042.2.154.217.489,0,0,.014.021.035.049a.663.663,0,0,1,.063.482,1.565,1.565,0,0,1-.308.608.166.166,0,0,0,.049.245.326.326,0,0,1,.154.308c-.014.384-.133.426-.133.426l.021.531s.056-.266.482-.238a.839.839,0,0,1,.545.664.128.128,0,0,0,.091.1c.084.028.2.119.2.482a3.159,3.159,0,0,1-.315,1.146.207.207,0,0,0-.014.07l.049.853a.134.134,0,0,0,.1.126c.147.049.405.21.447.769,0,0,.2-.035.21.3v.7a.156.156,0,0,0,.07.126c.154.084.482.315.364.629a8.52,8.52,0,0,1-.664,1.2.2.2,0,0,0-.007.2.281.281,0,0,1,.021.28v.853h.252v.322a1.111,1.111,0,0,1,.419.364.119.119,0,0,0,.21.007c.112-.182.273-.391.44-.391a1.255,1.255,0,0,1,.734.734,2.537,2.537,0,0,1,.245,1.042.151.151,0,0,0,.07.133.544.544,0,0,1,.252.377.655.655,0,0,1-.245.65c-.14.1-.315.245-.405.322a.172.172,0,0,0-.063.133v.182a.2.2,0,0,0,.2.2h.287a.166.166,0,0,1,.161.154l.077,1.559a.591.591,0,0,1-.231.531.385.385,0,0,1,.238.384v.811a.373.373,0,0,0,.189.426c.266.119.287.147.329.405,0,.168.133.944-.182,1.272h.587s.175-.007.175.224a2.434,2.434,0,0,0,.51,1.091c.126.063-.1.629-.168.8a.157.157,0,0,0-.007.1,3.391,3.391,0,0,1-.028,1.755s.042.287.238.077.2-.412.44-.37a.8.8,0,0,1,.51.734.216.216,0,0,1,.245.182c.028.217-.063.986,0,1.167a9.029,9.029,0,0,1,.608,2.566.627.627,0,0,1-.056.287.2.2,0,0,0,.007.154,1.084,1.084,0,0,1,.175.608c-.049.259-.287.343-.245.482s.482.454.489.895a1.158,1.158,0,0,1-.21.713s.35.077.51-.14.678.629.678.629a7.386,7.386,0,0,1,.741,1.5,1.915,1.915,0,0,1-.189.825c-.084.224.07.874.007,1s-.2.161-.189.3.091.468.189.3.287-.489.5-.468a3.106,3.106,0,0,1,1.146,1.314,3.47,3.47,0,0,1,0,1.244.852.852,0,0,0-.252.405c-.007.182.035,1.077.035,1.077a1.05,1.05,0,0,1,.839.748c.245.685-.238.7-.238.7s-.322.042-.629-.531c0,0,.042.391.119.741a6.315,6.315,0,0,1,.049,1.111s.014.28.259.224a.723.723,0,0,1,.783.545,1.188,1.188,0,0,1,0,.888s-.2.454-.021.412.636-.384.9-.266S72.613,64.642,72.62,65.523Z" transform="translate(-18.592 -11.06)" fill="#8d1c24"/>
    </clipPath>
    <radialGradient id="radial-gradient" cx="0.5" cy="0.5" r="0.5" gradientUnits="objectBoundingBox">
      <stop offset="0" stop-color="#fff"/>
      <stop offset="0.458" stop-color="#ffec00" stop-opacity="0.443"/>
      <stop offset="1" stop-color="#fff" stop-opacity="0"/>
    </radialGradient>
  </defs>
  <g id="ap-temples-logo" transform="translate(-18.083 -10.56)">
    <g id="Group_6340" data-name="Group 6340" transform="translate(18.592 11.06)">
      <path id="Path_157599" data-name="Path 157599" d="M72.62,65.523,72.3,66.7l-53.1.377c-.126-.266-.245-.531-.37-.8l-.2-.748v-.028a1.062,1.062,0,0,1,.636-1.251c.266-.112.72.224.9.266s-.021-.412-.021-.412a1.188,1.188,0,0,1,0-.888.727.727,0,0,1,.783-.545c.245.049.259-.224.259-.224a7.113,7.113,0,0,1,.049-1.111c.077-.343.119-.741.119-.741-.308.573-.629.531-.629.531s-.482-.014-.238-.7a1.1,1.1,0,0,1,.727-.727.174.174,0,0,0,.119-.14c.007-.252.028-.818.007-.979a.8.8,0,0,0-.168-.315.524.524,0,0,1-.112-.245,3.032,3.032,0,0,1,.021-1.091,3.153,3.153,0,0,1,1.146-1.314c.217-.021.405.294.5.468s.182-.161.189-.3-.126-.168-.189-.3.1-.776.007-1a1.965,1.965,0,0,1-.189-.825,7.386,7.386,0,0,1,.741-1.5s.524-.839.678-.629.51.14.51.14a1.158,1.158,0,0,1-.21-.713c.007-.433.447-.755.489-.895s-.2-.224-.245-.482a1.069,1.069,0,0,1,.175-.608.152.152,0,0,0,.007-.154.529.529,0,0,1-.056-.287,9.09,9.09,0,0,1,.608-2.566c.063-.182-.028-.958,0-1.167a.216.216,0,0,1,.245-.182.811.811,0,0,1,.51-.734c.245-.042.245.161.44.37s.238-.077.238-.077a3.379,3.379,0,0,1-.028-1.748.153.153,0,0,0-.014-.112c-.084-.154-.308-.587-.161-.8a3.7,3.7,0,0,0,.51-1.091c0-.238.175-.224.175-.224h.294a.164.164,0,0,0,.154-.224,2.951,2.951,0,0,1-.049-1.049c0-.175.056-.294.329-.405.231-.091.189-.426.189-.426V37.3a.385.385,0,0,1,.238-.384.591.591,0,0,1-.231-.531l.084-1.706h.517a.118.118,0,0,0,.119-.119V34.29a.106.106,0,0,0-.049-.1c-.084-.07-.273-.224-.426-.336a.655.655,0,0,1-.245-.65.515.515,0,0,1,.259-.377.13.13,0,0,0,.063-.1,2.578,2.578,0,0,1,.245-1.063,1.284,1.284,0,0,1,.734-.734c.266-.007.336.224.447.405a.108.108,0,0,0,.189,0,1.111,1.111,0,0,1,.433-.391V30.62h.252v-.853a.323.323,0,0,1,.042-.315.1.1,0,0,0,0-.126,8.787,8.787,0,0,1-.692-1.244c-.119-.329.238-.559.377-.643a.112.112,0,0,0,.056-.1v-.72c.007-.329.21-.3.21-.3.042-.594.329-.741.468-.776a.1.1,0,0,0,.077-.1l.049-.881a.084.084,0,0,0-.014-.056,3.262,3.262,0,0,1-.315-1.153c-.007-.377.126-.468.2-.482a.09.09,0,0,0,.07-.07.846.846,0,0,1,.552-.7.413.413,0,0,1,.482.238l.021-.531s-.119-.042-.126-.426a.4.4,0,0,1,.28-.447,1.468,1.468,0,0,1-.391-.713.7.7,0,0,1,.063-.482c.021-.028.035-.049.035-.049.028-.391.168-.482.259-.5a.069.069,0,0,0,.049-.091,7.91,7.91,0,0,1-.35-1.356c0-.308.468-.217.468-.217v-.412h-.426a.322.322,0,0,1-.259-.35.308.308,0,0,1,.315-.315v-.189h-.391c-.189,0-.161-.147-.161-.147v-.426a.39.39,0,0,1-.21-.343,1.142,1.142,0,0,1,.084-.426.09.09,0,0,0-.007-.084l-.377-.713a.024.024,0,0,0-.007-.014v-.587a.071.071,0,0,0-.035-.056c-.035-.021-.077-.084-.084-.266-.014-.3.21-.329.21-.329-.112-.042-.112-.343-.112-.384v-.5c0-.343.21-.322.21-.322h.51a.094.094,0,0,0,.091-.056c.035-.077.133-.2.4-.2.287,0,.636.336.783.5a.127.127,0,0,0,.147.035,1.251,1.251,0,0,1,.58.021A.186.186,0,0,0,34,11.906a1.877,1.877,0,0,1,1.07-.468v-.357H35.6a.14.14,0,0,1,.14.14v.294a.3.3,0,0,1,.287.28v.937c-.007,0-.021.007-.028.007a1.247,1.247,0,0,0-.8,1.5c.482,1.88,1.566,2.314,2,2.412a.183.183,0,0,0,.21-.126c.1-.252.482-.189.482-.189v-.147s-.51.063-.552-.874a1.381,1.381,0,0,1,.44-1.028.149.149,0,0,0,.021-.2.817.817,0,0,1-.147-.51.626.626,0,0,1,.37-.594v-.336a.207.207,0,0,1,.014-.07l.489-1.139a.184.184,0,0,1,.175-.112h.161a.146.146,0,0,1,.14.091l.447,1.056a.2.2,0,0,1,.014.063v.412a.076.076,0,0,0,.049.077.67.67,0,0,1,.391.608.844.844,0,0,1-.224.545.12.12,0,0,0,.028.189,1,1,0,0,1,.5.853,1.019,1.019,0,0,1-.273.72.308.308,0,0,0,.007.405.475.475,0,0,1,.1.252.13.13,0,0,0,.133.112h.566a.128.128,0,0,0,.126-.091c.077-.3.517-.322.517-.322v-.21s-.489.154-.594-.776a.906.906,0,0,1,.5-1.028.1.1,0,0,0,.035-.147.719.719,0,0,1-.119-.482c0-.412.2-.545.322-.594a.166.166,0,0,0,.112-.14l.028-.426a.135.135,0,0,1,.021-.07l.5-.951a.157.157,0,0,1,.133-.084h.238a.135.135,0,0,1,.133.1l.224,1.014v.028l.021.433a.126.126,0,0,0,.063.112.839.839,0,0,1,.405.615.679.679,0,0,1-.245.5.1.1,0,0,0,.021.161,1.279,1.279,0,0,1,.552.916,1.4,1.4,0,0,1-.51.811.133.133,0,0,0,.035.217.5.5,0,0,1,.245.259.177.177,0,0,0,.161.1h.755a.123.123,0,0,0,.1-.056c.091-.189.454-.189.454-.189v-.287a.986.986,0,0,1-.643-.839.955.955,0,0,1,.552-.839v-.224s-.21.035-.21-.475.329-.566.329-.566v-.468a10.474,10.474,0,0,1,.384-1.153.16.16,0,0,1,.154-.1h.168a.128.128,0,0,1,.126.091,10.9,10.9,0,0,1,.391,1.174V13.2s.329.056.329.566-.21.475-.21.475v.224a.955.955,0,0,1,.552.839.986.986,0,0,1-.643.839v.287s.364,0,.454.189a.109.109,0,0,0,.1.056h.79a.12.12,0,0,0,.112-.077.536.536,0,0,1,.28-.3.12.12,0,0,0,.035-.2,1.388,1.388,0,0,1-.524-.825,1.279,1.279,0,0,1,.482-.867.184.184,0,0,0,.035-.266.676.676,0,0,1-.189-.44.847.847,0,0,1,.4-.608.137.137,0,0,0,.063-.119l.014-.405c0-.021.007-.049.007-.07l.2-.937a.208.208,0,0,1,.2-.161h.168a.168.168,0,0,1,.154.1l.489.93a.141.141,0,0,1,.021.077l.028.419a.193.193,0,0,0,.119.154c.126.049.315.189.315.587a.85.85,0,0,1-.1.482.131.131,0,0,0,.049.182,1.107,1.107,0,0,1,.461.986c.021.937-.594.776-.594.776v.21s.454.021.524.329a.12.12,0,0,0,.112.084h.58a.115.115,0,0,0,.119-.1.457.457,0,0,1,.231-.364.1.1,0,0,0,.021-.161,1.049,1.049,0,0,1-.419-.86,1.023,1.023,0,0,1,.468-.832.172.172,0,0,0,.028-.252.885.885,0,0,1-.189-.5.655.655,0,0,1,.343-.587.182.182,0,0,0,.091-.154v-.35a.251.251,0,0,1,.014-.077l.482-1.146h.384l.538,1.251a.151.151,0,0,1,.014.077v.336a.831.831,0,0,1,.371.678.632.632,0,0,1-.14.433.143.143,0,0,0,.035.21,1.047,1.047,0,0,1,.412,1c-.042.937-.552.874-.552.874v.147s.426-.077.5.238a.11.11,0,0,0,.133.084c.419-.077,1.762-.524,2.174-2.985v-.042c-.007-.1-.084-.6-.832-.874a.179.179,0,0,1-.119-.161V11.78a.3.3,0,0,1,.287-.28v-.315a.125.125,0,0,1,.126-.126H56.1v.357a1.836,1.836,0,0,1,1.091.489.125.125,0,0,0,.126.042,1.247,1.247,0,0,1,.622-.021.107.107,0,0,0,.119-.028c.14-.154.5-.5.79-.5a.425.425,0,0,1,.377.161.182.182,0,0,0,.154.091h.468s.21-.021.21.322v.741a.606.606,0,0,1-.112.154.411.411,0,0,1,.21.329.922.922,0,0,1-.119.28v.608a.118.118,0,0,1-.021.07l-.35.657a.178.178,0,0,0-.007.147.992.992,0,0,1,.077.4.346.346,0,0,1-.217.343v.426s.035.147-.161.147h-.391v.217a.308.308,0,0,1,.315.315.322.322,0,0,1-.259.35H58.6v.412s.468-.1.468.217a7.256,7.256,0,0,1-.329,1.286.135.135,0,0,0,.07.168c.091.042.2.154.217.489,0,0,.014.021.035.049a.663.663,0,0,1,.063.482,1.565,1.565,0,0,1-.308.608.166.166,0,0,0,.049.245.326.326,0,0,1,.154.308c-.014.384-.133.426-.133.426l.021.531s.056-.266.482-.238a.839.839,0,0,1,.545.664.128.128,0,0,0,.091.1c.084.028.2.119.2.482a3.159,3.159,0,0,1-.315,1.146.207.207,0,0,0-.014.07l.049.853a.134.134,0,0,0,.1.126c.147.049.405.21.447.769,0,0,.2-.035.21.3v.7a.156.156,0,0,0,.07.126c.154.084.482.315.364.629a8.52,8.52,0,0,1-.664,1.2.2.2,0,0,0-.007.2.281.281,0,0,1,.021.28v.853h.252v.322a1.111,1.111,0,0,1,.419.364.119.119,0,0,0,.21.007c.112-.182.273-.391.44-.391a1.255,1.255,0,0,1,.734.734,2.537,2.537,0,0,1,.245,1.042.151.151,0,0,0,.07.133.544.544,0,0,1,.252.377.655.655,0,0,1-.245.65c-.14.1-.315.245-.405.322a.172.172,0,0,0-.063.133v.182a.2.2,0,0,0,.2.2h.287a.166.166,0,0,1,.161.154l.077,1.559a.591.591,0,0,1-.231.531.385.385,0,0,1,.238.384v.811a.373.373,0,0,0,.189.426c.266.119.287.147.329.405,0,.168.133.944-.182,1.272h.587s.175-.007.175.224a2.434,2.434,0,0,0,.51,1.091c.126.063-.1.629-.168.8a.157.157,0,0,0-.007.1,3.391,3.391,0,0,1-.028,1.755s.042.287.238.077.2-.412.44-.37a.8.8,0,0,1,.51.734.216.216,0,0,1,.245.182c.028.217-.063.986,0,1.167a9.029,9.029,0,0,1,.608,2.566.627.627,0,0,1-.056.287.2.2,0,0,0,.007.154,1.084,1.084,0,0,1,.175.608c-.049.259-.287.343-.245.482s.482.454.489.895a1.158,1.158,0,0,1-.21.713s.35.077.51-.14.678.629.678.629a7.386,7.386,0,0,1,.741,1.5,1.915,1.915,0,0,1-.189.825c-.084.224.07.874.007,1s-.2.161-.189.3.091.468.189.3.287-.489.5-.468a3.106,3.106,0,0,1,1.146,1.314,3.47,3.47,0,0,1,0,1.244.852.852,0,0,0-.252.405c-.007.182.035,1.077.035,1.077a1.05,1.05,0,0,1,.839.748c.245.685-.238.7-.238.7s-.322.042-.629-.531c0,0,.042.391.119.741a6.315,6.315,0,0,1,.049,1.111s.014.28.259.224a.723.723,0,0,1,.783.545,1.188,1.188,0,0,1,0,.888s-.2.454-.021.412.636-.384.9-.266S72.613,64.642,72.62,65.523Z" transform="translate(-18.592 -11.06)" fill="#ec9140"/>
      <g id="Group_6333" data-name="Group 6333" clip-path="url(#clip-path)">
        <g id="Group_6332" data-name="Group 6332" transform="translate(-8.103 -0.925)" style="mix-blend-mode: normal;isolation: isolate">
          <path id="Path_157600" data-name="Path 157600" d="M42.134,53.447Q27.224,38.547,7,18.32h6.389Q29.506,36.576,42.134,53.447Z" transform="translate(-7 -18.32)" fill="#e8852d"/>
          <path id="Path_157601" data-name="Path 157601" d="M47.636,53.447A307.258,307.258,0,0,0,25.28,18.32h6.389A254.633,254.633,0,0,1,47.636,53.447Z" transform="translate(-12.501 -18.32)" fill="#e8852d"/>
          <path id="Path_157602" data-name="Path 157602" d="M53.134,53.447A299.454,299.454,0,0,0,43.55,18.32h6.389Q51.628,32.423,53.134,53.447Z" transform="translate(-18 -18.32)" fill="#e8852d"/>
          <path id="Path_157603" data-name="Path 157603" d="M57.26,53.447q1.5-21.024,3.195-35.127h6.389A299.455,299.455,0,0,0,57.26,53.447Z" transform="translate(-22.126 -18.32)" fill="#e8852d"/>
          <path id="Path_157604" data-name="Path 157604" d="M57.26,53.447A253.806,253.806,0,0,1,73.226,18.32h6.389A307.259,307.259,0,0,0,57.26,53.447Z" transform="translate(-22.126 -18.32)" fill="#e8852d"/>
          <path id="Path_157605" data-name="Path 157605" d="M57.26,53.447Q69.885,36.576,86.005,18.32h6.389Q72.157,38.547,57.26,53.447Z" transform="translate(-22.126 -18.32)" fill="#e8852d"/>
          <path id="Path_157606" data-name="Path 157606" d="M57.26,56.2Q74.132,43.56,92.387,27.45v6.389A307.258,307.258,0,0,1,57.26,56.2Z" transform="translate(-22.126 -21.068)" fill="#e8852d"/>
          <path id="Path_157607" data-name="Path 157607" d="M57.26,61.7A253.43,253.43,0,0,0,92.387,45.73v6.389A300.944,300.944,0,0,1,57.26,61.7Z" transform="translate(-22.126 -26.569)" fill="#e8852d"/>
          <path id="Path_157608" data-name="Path 157608" d="M57.26,67.195Q78.284,65.7,92.387,64v6.389Q78.284,68.7,57.26,67.195Z" transform="translate(-22.126 -32.067)" fill="#e8852d"/>
          <path id="Path_157609" data-name="Path 157609" d="M57.26,68.57a299.454,299.454,0,0,1,35.127,9.584v6.389A253.8,253.8,0,0,0,57.26,68.57Z" transform="translate(-22.126 -33.443)" fill="#e8852d"/>
          <path id="Path_157610" data-name="Path 157610" d="M57.26,68.57A307.258,307.258,0,0,1,92.387,90.926v6.389Q74.132,81.2,57.26,68.57Z" transform="translate(-22.126 -33.443)" fill="#e8852d"/>
          <path id="Path_157611" data-name="Path 157611" d="M57.26,68.57,92.387,103.7H86Q69.892,85.452,57.26,68.57Z" transform="translate(-22.126 -33.443)" fill="#e8852d"/>
          <path id="Path_157612" data-name="Path 157612" d="M57.26,68.57A307.258,307.258,0,0,0,79.616,103.7H73.226A253.053,253.053,0,0,1,57.26,68.57Z" transform="translate(-22.126 -33.443)" fill="#e8852d"/>
          <path id="Path_157613" data-name="Path 157613" d="M57.26,68.57A299.455,299.455,0,0,0,66.844,103.7H60.455Q58.756,89.594,57.26,68.57Z" transform="translate(-22.126 -33.443)" fill="#e8852d"/>
          <path id="Path_157614" data-name="Path 157614" d="M53.134,68.57q-1.5,21.024-3.195,35.127H43.55A299.073,299.073,0,0,0,53.134,68.57Z" transform="translate(-18 -33.443)" fill="#e8852d"/>
          <path id="Path_157615" data-name="Path 157615" d="M47.636,68.57A253.43,253.43,0,0,1,31.669,103.7H25.28A308.571,308.571,0,0,0,47.636,68.57Z" transform="translate(-12.501 -33.443)" fill="#e8852d"/>
          <path id="Path_157616" data-name="Path 157616" d="M42.134,68.57Q29.5,85.442,13.389,103.7H7Q27.227,83.481,42.134,68.57Z" transform="translate(-7 -33.443)" fill="#e8852d"/>
          <path id="Path_157617" data-name="Path 157617" d="M42.134,68.57Q25.263,81.205,7,97.315V90.926A309.283,309.283,0,0,1,42.134,68.57Z" transform="translate(-7 -33.443)" fill="#e8852d"/>
          <path id="Path_157618" data-name="Path 157618" d="M42.134,68.57A254.359,254.359,0,0,0,7,84.536V78.147A301.1,301.1,0,0,1,42.134,68.57Z" transform="translate(-7 -33.443)" fill="#e8852d"/>
          <path id="Path_157619" data-name="Path 157619" d="M42.134,67.195Q21.11,68.7,7,70.389V64Q21.114,65.688,42.134,67.195Z" transform="translate(-7 -32.067)" fill="#e8852d"/>
          <path id="Path_157620" data-name="Path 157620" d="M42.134,61.7A301.1,301.1,0,0,1,7,52.119V45.73A253.535,253.535,0,0,0,42.134,61.7Z" transform="translate(-7 -26.569)" fill="#e8852d"/>
          <path id="Path_157621" data-name="Path 157621" d="M42.134,56.2A307.348,307.348,0,0,1,7,33.839V27.45Q25.256,43.567,42.134,56.2Z" transform="translate(-7 -21.068)" fill="#e8852d"/>
        </g>
      </g>
      <path id="Path_157623" data-name="Path 157623" d="M72.62,65.523,72.3,66.7l-53.1.377c-.126-.266-.245-.531-.37-.8l-.2-.748v-.028a1.062,1.062,0,0,1,.636-1.251c.266-.112.72.224.9.266s-.021-.412-.021-.412a1.188,1.188,0,0,1,0-.888.727.727,0,0,1,.783-.545c.245.049.259-.224.259-.224a7.113,7.113,0,0,1,.049-1.111c.077-.343.119-.741.119-.741-.308.573-.629.531-.629.531s-.482-.014-.238-.7a1.1,1.1,0,0,1,.727-.727.174.174,0,0,0,.119-.14c.007-.252.028-.818.007-.979a.8.8,0,0,0-.168-.315.524.524,0,0,1-.112-.245,3.032,3.032,0,0,1,.021-1.091,3.153,3.153,0,0,1,1.146-1.314c.217-.021.405.294.5.468s.182-.161.189-.3-.126-.168-.189-.3.1-.776.007-1a1.965,1.965,0,0,1-.189-.825,7.386,7.386,0,0,1,.741-1.5s.524-.839.678-.629.51.14.51.14a1.158,1.158,0,0,1-.21-.713c.007-.433.447-.755.489-.895s-.2-.224-.245-.482a1.069,1.069,0,0,1,.175-.608.152.152,0,0,0,.007-.154.529.529,0,0,1-.056-.287,9.09,9.09,0,0,1,.608-2.566c.063-.182-.028-.958,0-1.167a.216.216,0,0,1,.245-.182.811.811,0,0,1,.51-.734c.245-.042.245.161.44.37s.238-.077.238-.077a3.379,3.379,0,0,1-.028-1.748.153.153,0,0,0-.014-.112c-.084-.154-.308-.587-.161-.8a3.7,3.7,0,0,0,.51-1.091c0-.238.175-.224.175-.224h.294a.164.164,0,0,0,.154-.224,2.951,2.951,0,0,1-.049-1.049c0-.175.056-.294.329-.405.231-.091.189-.426.189-.426V37.3a.385.385,0,0,1,.238-.384.591.591,0,0,1-.231-.531l.084-1.706h.517a.118.118,0,0,0,.119-.119V34.29a.106.106,0,0,0-.049-.1c-.084-.07-.273-.224-.426-.336a.655.655,0,0,1-.245-.65.515.515,0,0,1,.259-.377.13.13,0,0,0,.063-.1,2.578,2.578,0,0,1,.245-1.063,1.284,1.284,0,0,1,.734-.734c.266-.007.336.224.447.405a.108.108,0,0,0,.189,0,1.111,1.111,0,0,1,.433-.391V30.62h.252v-.853a.323.323,0,0,1,.042-.315.1.1,0,0,0,0-.126,8.787,8.787,0,0,1-.692-1.244c-.119-.329.238-.559.377-.643a.112.112,0,0,0,.056-.1v-.72c.007-.329.21-.3.21-.3.042-.594.329-.741.468-.776a.1.1,0,0,0,.077-.1l.049-.881a.084.084,0,0,0-.014-.056,3.262,3.262,0,0,1-.315-1.153c-.007-.377.126-.468.2-.482a.09.09,0,0,0,.07-.07.846.846,0,0,1,.552-.7.413.413,0,0,1,.482.238l.021-.531s-.119-.042-.126-.426a.4.4,0,0,1,.28-.447,1.468,1.468,0,0,1-.391-.713.7.7,0,0,1,.063-.482c.021-.028.035-.049.035-.049.028-.391.168-.482.259-.5a.069.069,0,0,0,.049-.091,7.91,7.91,0,0,1-.35-1.356c0-.308.468-.217.468-.217v-.412h-.426a.322.322,0,0,1-.259-.35.308.308,0,0,1,.315-.315v-.189h-.391c-.189,0-.161-.147-.161-.147v-.426a.39.39,0,0,1-.21-.343,1.142,1.142,0,0,1,.084-.426.09.09,0,0,0-.007-.084l-.377-.713a.024.024,0,0,0-.007-.014v-.587a.071.071,0,0,0-.035-.056c-.035-.021-.077-.084-.084-.266-.014-.3.21-.329.21-.329-.112-.042-.112-.343-.112-.384v-.5c0-.343.21-.322.21-.322h.51a.094.094,0,0,0,.091-.056c.035-.077.133-.2.4-.2.287,0,.636.336.783.5a.127.127,0,0,0,.147.035,1.251,1.251,0,0,1,.58.021A.186.186,0,0,0,34,11.906a1.877,1.877,0,0,1,1.07-.468v-.357H35.6a.14.14,0,0,1,.14.14v.294a.3.3,0,0,1,.287.28v.937c-.007,0-.021.007-.028.007a1.247,1.247,0,0,0-.8,1.5c.482,1.88,1.566,2.314,2,2.412a.183.183,0,0,0,.21-.126c.1-.252.482-.189.482-.189v-.147s-.51.063-.552-.874a1.381,1.381,0,0,1,.44-1.028.149.149,0,0,0,.021-.2.817.817,0,0,1-.147-.51.626.626,0,0,1,.37-.594v-.336a.207.207,0,0,1,.014-.07l.489-1.139a.184.184,0,0,1,.175-.112h.161a.146.146,0,0,1,.14.091l.447,1.056a.2.2,0,0,1,.014.063v.412a.076.076,0,0,0,.049.077.67.67,0,0,1,.391.608.844.844,0,0,1-.224.545.12.12,0,0,0,.028.189,1,1,0,0,1,.5.853,1.019,1.019,0,0,1-.273.72.308.308,0,0,0,.007.405.475.475,0,0,1,.1.252.13.13,0,0,0,.133.112h.566a.128.128,0,0,0,.126-.091c.077-.3.517-.322.517-.322v-.21s-.489.154-.594-.776a.906.906,0,0,1,.5-1.028.1.1,0,0,0,.035-.147.719.719,0,0,1-.119-.482c0-.412.2-.545.322-.594a.166.166,0,0,0,.112-.14l.028-.426a.135.135,0,0,1,.021-.07l.5-.951a.157.157,0,0,1,.133-.084h.238a.135.135,0,0,1,.133.1l.224,1.014v.028l.021.433a.126.126,0,0,0,.063.112.839.839,0,0,1,.405.615.679.679,0,0,1-.245.5.1.1,0,0,0,.021.161,1.279,1.279,0,0,1,.552.916,1.4,1.4,0,0,1-.51.811.133.133,0,0,0,.035.217.5.5,0,0,1,.245.259.177.177,0,0,0,.161.1h.755a.123.123,0,0,0,.1-.056c.091-.189.454-.189.454-.189v-.287a.986.986,0,0,1-.643-.839.955.955,0,0,1,.552-.839v-.224s-.21.035-.21-.475.329-.566.329-.566v-.468a10.474,10.474,0,0,1,.384-1.153.16.16,0,0,1,.154-.1h.168a.128.128,0,0,1,.126.091,10.9,10.9,0,0,1,.391,1.174V13.2s.329.056.329.566-.21.475-.21.475v.224a.955.955,0,0,1,.552.839.986.986,0,0,1-.643.839v.287s.364,0,.454.189a.109.109,0,0,0,.1.056h.79a.12.12,0,0,0,.112-.077.536.536,0,0,1,.28-.3.12.12,0,0,0,.035-.2,1.388,1.388,0,0,1-.524-.825,1.279,1.279,0,0,1,.482-.867.184.184,0,0,0,.035-.266.676.676,0,0,1-.189-.44.847.847,0,0,1,.4-.608.137.137,0,0,0,.063-.119l.014-.405c0-.021.007-.049.007-.07l.2-.937a.208.208,0,0,1,.2-.161h.168a.168.168,0,0,1,.154.1l.489.93a.141.141,0,0,1,.021.077l.028.419a.193.193,0,0,0,.119.154c.126.049.315.189.315.587a.85.85,0,0,1-.1.482.131.131,0,0,0,.049.182,1.107,1.107,0,0,1,.461.986c.021.937-.594.776-.594.776v.21s.454.021.524.329a.12.12,0,0,0,.112.084h.58a.115.115,0,0,0,.119-.1.457.457,0,0,1,.231-.364.1.1,0,0,0,.021-.161,1.049,1.049,0,0,1-.419-.86,1.023,1.023,0,0,1,.468-.832.172.172,0,0,0,.028-.252.885.885,0,0,1-.189-.5.655.655,0,0,1,.343-.587.182.182,0,0,0,.091-.154v-.35a.251.251,0,0,1,.014-.077l.482-1.146h.384l.538,1.251a.151.151,0,0,1,.014.077v.336a.831.831,0,0,1,.371.678.632.632,0,0,1-.14.433.143.143,0,0,0,.035.21,1.047,1.047,0,0,1,.412,1c-.042.937-.552.874-.552.874v.147s.426-.077.5.238a.11.11,0,0,0,.133.084c.419-.077,1.762-.524,2.174-2.985v-.042c-.007-.1-.084-.6-.832-.874a.179.179,0,0,1-.119-.161V11.78a.3.3,0,0,1,.287-.28v-.315a.125.125,0,0,1,.126-.126H56.1v.357a1.836,1.836,0,0,1,1.091.489.125.125,0,0,0,.126.042,1.247,1.247,0,0,1,.622-.021.107.107,0,0,0,.119-.028c.14-.154.5-.5.79-.5a.425.425,0,0,1,.377.161.182.182,0,0,0,.154.091h.468s.21-.021.21.322v.741a.606.606,0,0,1-.112.154.411.411,0,0,1,.21.329.922.922,0,0,1-.119.28v.608a.118.118,0,0,1-.021.07l-.35.657a.178.178,0,0,0-.007.147.992.992,0,0,1,.077.4.346.346,0,0,1-.217.343v.426s.035.147-.161.147h-.391v.217a.308.308,0,0,1,.315.315.322.322,0,0,1-.259.35H58.6v.412s.468-.1.468.217a7.256,7.256,0,0,1-.329,1.286.135.135,0,0,0,.07.168c.091.042.2.154.217.489,0,0,.014.021.035.049a.663.663,0,0,1,.063.482,1.565,1.565,0,0,1-.308.608.166.166,0,0,0,.049.245.326.326,0,0,1,.154.308c-.014.384-.133.426-.133.426l.021.531s.056-.266.482-.238a.839.839,0,0,1,.545.664.128.128,0,0,0,.091.1c.084.028.2.119.2.482a3.159,3.159,0,0,1-.315,1.146.207.207,0,0,0-.014.07l.049.853a.134.134,0,0,0,.1.126c.147.049.405.21.447.769,0,0,.2-.035.21.3v.7a.156.156,0,0,0,.07.126c.154.084.482.315.364.629a8.52,8.52,0,0,1-.664,1.2.2.2,0,0,0-.007.2.281.281,0,0,1,.021.28v.853h.252v.322a1.111,1.111,0,0,1,.419.364.119.119,0,0,0,.21.007c.112-.182.273-.391.44-.391a1.255,1.255,0,0,1,.734.734,2.537,2.537,0,0,1,.245,1.042.151.151,0,0,0,.07.133.544.544,0,0,1,.252.377.655.655,0,0,1-.245.65c-.14.1-.315.245-.405.322a.172.172,0,0,0-.063.133v.182a.2.2,0,0,0,.2.2h.287a.166.166,0,0,1,.161.154l.077,1.559a.591.591,0,0,1-.231.531.385.385,0,0,1,.238.384v.811a.373.373,0,0,0,.189.426c.266.119.287.147.329.405,0,.168.133.944-.182,1.272h.587s.175-.007.175.224a2.434,2.434,0,0,0,.51,1.091c.126.063-.1.629-.168.8a.157.157,0,0,0-.007.1,3.391,3.391,0,0,1-.028,1.755s.042.287.238.077.2-.412.44-.37a.8.8,0,0,1,.51.734.216.216,0,0,1,.245.182c.028.217-.063.986,0,1.167a9.029,9.029,0,0,1,.608,2.566.627.627,0,0,1-.056.287.2.2,0,0,0,.007.154,1.084,1.084,0,0,1,.175.608c-.049.259-.287.343-.245.482s.482.454.489.895a1.158,1.158,0,0,1-.21.713s.35.077.51-.14.678.629.678.629a7.386,7.386,0,0,1,.741,1.5,1.915,1.915,0,0,1-.189.825c-.084.224.07.874.007,1s-.2.161-.189.3.091.468.189.3.287-.489.5-.468a3.106,3.106,0,0,1,1.146,1.314,3.47,3.47,0,0,1,0,1.244.852.852,0,0,0-.252.405c-.007.182.035,1.077.035,1.077a1.05,1.05,0,0,1,.839.748c.245.685-.238.7-.238.7s-.322.042-.629-.531c0,0,.042.391.119.741a6.315,6.315,0,0,1,.049,1.111s.014.28.259.224a.723.723,0,0,1,.783.545,1.188,1.188,0,0,1,0,.888s-.2.454-.021.412.636-.384.9-.266S72.613,64.642,72.62,65.523Z" transform="translate(-18.592 -11.06)" fill="none" stroke="#fff" stroke-width="1"/>
      <circle id="Ellipse_115" data-name="Ellipse 115" cx="17.455" cy="17.455" r="17.455" transform="translate(9.555 13.974)" fill="url(#radial-gradient)"/>
      <g id="OM" transform="translate(14.367 16.115)">
        <path id="Path_157624" data-name="Path 157624" d="M64.356,54.917c-.433,3.782-2.265,5.523-4.691,6-3.936.769-6.368-3.314-5.173-6.949a.3.3,0,0,1,.315-.2c.629.056-.2,1.433,1.44,2.391A3.782,3.782,0,0,0,61,55.386c3.565-4.236-.21-10.7-3.3-4.893a7.555,7.555,0,0,1-1.915,2.419c-.958.8-1.846.72-3.139.636,3.859,7.955-5.495,12.939-11.038,6.543a11.271,11.271,0,0,1-2.286-9.13.361.361,0,0,1,.475-.3c.468.2.287,6.012,4.418,7.836,5.278,2.37,8.955-3.719,4.642-4.907a3.31,3.31,0,0,0-2.216.231c-.112.035-.252.168-.433.084-.231-.1-.084-.063-1.524-4.355a.3.3,0,0,1,.336-.391c1.468.259,3.845.657,4.747-.727.573-.888.007-2-1.559-2.118a4.112,4.112,0,0,0-2.055.426c-2.146.909-2.628,1.943-2.936,1.37l-1.7-3.223c-.168-.308.259-.475.329-.552q.262-.189.524-.357A10.055,10.055,0,0,1,46.635,42.4c6.124-.748,7.354,5.7,3.3,8.843,1.328.538,1.671.692,2.027.412,1.16-.916,2.09-3.467,3.432-4.8,3.5-3.537,9.892-.35,8.962,8.06Z" transform="translate(-39.144 -36.59)" fill="#fff" stroke="#ec9140" stroke-width="0.6"/>
        <path id="Path_157625" data-name="Path 157625" d="M66.807,39.76l-.042.056a.8.8,0,0,1-.1.119c-3.894,4.656-12.387,2.8-12.2-3.95a.293.293,0,0,1,.252-.287.3.3,0,0,1,.329.189l.056.147a1.916,1.916,0,0,0,.1.28,4.875,4.875,0,0,0,7.571,1.811c.357-.259.692-.545,1.056-.853.161-.14.322-.273.489-.412a.3.3,0,0,1,.419.042L66.8,39.383a.3.3,0,0,1,.007.377Z" transform="translate(-43.755 -34.589)" fill="#fff" stroke="#ec9140" stroke-width="0.6"/>
        <path id="Path_157626" data-name="Path 157626" d="M58.992,36.467a.291.291,0,0,1,0-.419L60.83,34.2a.3.3,0,0,1,.426,0L63.1,36.047a.3.3,0,0,1,0,.419l-1.845,1.845a.287.287,0,0,1-.21.091.3.3,0,0,1-.217-.091Z" transform="translate(-45.09 -34.112)" fill="#fff" stroke="#ec9140" stroke-width="0.6"/>
      </g>
      <g id="text" transform="translate(9.687 48.885)">
        <path id="Path_157627" data-name="Path 157627" d="M34.883,82.858a1.42,1.42,0,0,1,.545.266,1.006,1.006,0,0,1,.37.811,1.179,1.179,0,0,1-.294.86,1.021,1.021,0,0,1-.755.259.978.978,0,0,1-.391-.07.453.453,0,0,1-.217-.168.647.647,0,0,1-.273.182,1.017,1.017,0,0,1-.35.056,1.079,1.079,0,0,1-.8-.259,1.109,1.109,0,0,1-.266-.818,1.07,1.07,0,0,1,.336-.846,1.548,1.548,0,0,1,.657-.294.632.632,0,0,1-.224-.517h.587a.528.528,0,0,0,.1.329.3.3,0,0,0,.175.126H34.2a1.2,1.2,0,0,0,.524-.287,2.671,2.671,0,0,0,.545-.587l.678.175a4.235,4.235,0,0,1-.86.678Zm-.056.329a1.04,1.04,0,0,0-.636-.154,1.307,1.307,0,0,0-.741.161,1.1,1.1,0,0,0-.294.895.929.929,0,0,0,.126.517.351.351,0,0,0,.287.175.254.254,0,0,0,.245-.112.8.8,0,0,0,.077-.412h.51a.774.774,0,0,0,.084.412.282.282,0,0,0,.252.126A.309.309,0,0,0,35,84.605a1.291,1.291,0,0,0,.1-.573A1.092,1.092,0,0,0,34.827,83.186Zm-.468,2.593a.346.346,0,0,1-.217.056.381.381,0,0,1-.217-.056.341.341,0,0,1-.1-.287.413.413,0,0,1,.126-.336.287.287,0,0,1,.2-.07.408.408,0,0,1,.245.063.362.362,0,0,1,.126.308A.43.43,0,0,1,34.358,85.78Z" transform="translate(-32.45 -81.264)" fill="#fff"/>
        <path id="Path_157628" data-name="Path 157628" d="M39.24,82.507a1.679,1.679,0,0,1,.944.287.981.981,0,0,1,.405.832,1.008,1.008,0,0,1-.482.895,2.169,2.169,0,0,1-2.118-.021,1.014,1.014,0,0,1-.4-.867.964.964,0,0,1,.357-.8.89.89,0,0,1,.133-.091.591.591,0,0,1-.189-.084.406.406,0,0,1-.147-.343c0-.2.126-.364.384-.482a2.893,2.893,0,0,1,1.1-.168,2.131,2.131,0,0,1,.7.1,1.079,1.079,0,0,1,.468.294,1.013,1.013,0,0,1,.405-.294,1.31,1.31,0,0,1,.531-.1.233.233,0,0,1-.035-.084.627.627,0,0,1-.014-.126.379.379,0,0,1,.21-.336,1.335,1.335,0,0,1,1.16.014.426.426,0,0,1,.224.377h-.489a.309.309,0,0,0-.077-.21.285.285,0,0,0-.21-.077.311.311,0,0,0-.217.07.193.193,0,0,0-.077.168.294.294,0,0,0,.028.14.207.207,0,0,0,.077.1,1.229,1.229,0,0,1,.608.329.805.805,0,0,1,.238.552.854.854,0,0,1-.238.636.838.838,0,0,1-.629.238.847.847,0,0,1-.566-.182.606.606,0,0,1-.217-.482.461.461,0,0,1,.189-.384.819.819,0,0,1,.51-.147,1.063,1.063,0,0,1,.238.021.339.339,0,0,1,.147.056.315.315,0,0,0-.2-.273,1.17,1.17,0,0,0-.538-.1,1.415,1.415,0,0,0-.65.126.408.408,0,0,0-.231.364h-.357a.365.365,0,0,0-.224-.35,1.7,1.7,0,0,0-.72-.112,1.915,1.915,0,0,0-.636.084c-.147.056-.224.133-.224.238a.177.177,0,0,0,.1.147.532.532,0,0,0,.266.056l.461-.007Zm.461.461a.8.8,0,0,0-.615-.217.752.752,0,0,0-.608.224,1.058,1.058,0,0,0-.189.7.943.943,0,0,0,.175.622.769.769,0,0,0,.608.217.757.757,0,0,0,.615-.238,1.04,1.04,0,0,0,.2-.685A.944.944,0,0,0,39.7,82.968Zm2.419-.419a.321.321,0,0,0-.224-.077.223.223,0,0,0-.2.084.544.544,0,0,0-.056.3.334.334,0,0,0,.07.238.226.226,0,0,0,.2.084.242.242,0,0,0,.224-.1.521.521,0,0,0,.077-.322A.317.317,0,0,0,42.12,82.549Z" transform="translate(-33.997 -80.99)" fill="#fff"/>
        <path id="Path_157629" data-name="Path 157629" d="M45.669,87.712a3.038,3.038,0,0,1-.727.063,1.744,1.744,0,0,1-.776-.147.569.569,0,0,1-.357-.538.662.662,0,0,1,.377-.608,1.951,1.951,0,0,1,.839-.2.615.615,0,0,0,.224-.056.231.231,0,0,0,.133-.224.215.215,0,0,0-.1-.2.4.4,0,0,0-.217-.049,1.351,1.351,0,0,0-.182.007v-.238a2.829,2.829,0,0,1,.315-.014.867.867,0,0,1,.461.1.361.361,0,0,1,.182.315.458.458,0,0,1-.07.231.391.391,0,0,1-.182.161.5.5,0,0,1,.315.126.426.426,0,0,1,.1.3.4.4,0,0,1-.2.357.789.789,0,0,1-.44.1,1.1,1.1,0,0,1-.468-.084.35.35,0,0,1-.224-.329.4.4,0,0,1,.021-.126.277.277,0,0,1,.077-.126H44.74a.381.381,0,0,0-.294.126.539.539,0,0,0-.133.4.433.433,0,0,0,.175.37.844.844,0,0,0,.517.14,1.278,1.278,0,0,0,.357-.042c.14-.042.21-.1.217-.2h.545A.568.568,0,0,1,45.669,87.712Zm-.126-1.181a.2.2,0,0,0-.175-.084.172.172,0,0,0-.161.084.44.44,0,0,0-.042.217.325.325,0,0,0,.049.2.172.172,0,0,0,.154.07.2.2,0,0,0,.175-.077.417.417,0,0,0,.042-.224A.35.35,0,0,0,45.544,86.531Z" transform="translate(-35.869 -82.35)" fill="#fff"/>
        <path id="Path_157630" data-name="Path 157630" d="M50.605,82.878a1.513,1.513,0,0,1,.4.2.981.981,0,0,1,.405.832,1.008,1.008,0,0,1-.482.895,2.169,2.169,0,0,1-2.118-.021,1.014,1.014,0,0,1-.4-.867.964.964,0,0,1,.357-.8,1.286,1.286,0,0,1,.468-.238.636.636,0,0,1-.252-.538h.587a.528.528,0,0,0,.1.329.274.274,0,0,0,.238.133,1.084,1.084,0,0,0,.587-.287,2.811,2.811,0,0,0,.538-.587l.678.175a4.235,4.235,0,0,1-.86.678A2.707,2.707,0,0,0,50.605,82.878Zm-.077.37a.8.8,0,0,0-.615-.217.752.752,0,0,0-.608.224,1.058,1.058,0,0,0-.189.7.943.943,0,0,0,.175.622.769.769,0,0,0,.608.217.757.757,0,0,0,.615-.238,1.04,1.04,0,0,0,.2-.685A.943.943,0,0,0,50.528,83.248Z" transform="translate(-37.253 -81.27)" fill="#fff"/>
        <path id="Path_157631" data-name="Path 157631" d="M56.32,86.231a.466.466,0,0,1-.357-.154.534.534,0,0,1-.147-.377.548.548,0,0,1,.056-.245l-.035-.035a.842.842,0,0,1-.245.252.624.624,0,0,1-.315.084.933.933,0,0,1-.377-.077.517.517,0,0,1-.238-.217.537.537,0,0,1-.3.217,1.425,1.425,0,0,1-.51.077.978.978,0,0,1-.629-.182.616.616,0,0,1-.224-.51h.636a.446.446,0,0,0,.084.315.406.406,0,0,0,.3.084.44.44,0,0,0,.287-.077.3.3,0,0,0,.1-.245h.517a.324.324,0,0,0,.084.245.377.377,0,0,0,.266.077.269.269,0,0,0,.2-.084.285.285,0,0,0,.084-.21.239.239,0,0,0-.014-.1h.713v.28a.733.733,0,0,0,.1.377c.07.126.14.189.217.189Zm-1.007-3.39a1.364,1.364,0,0,1,.357.147.58.58,0,0,1,.329.447h-.706c0-.112-.084-.21-.259-.294a1.01,1.01,0,0,0-.405-.1,1.411,1.411,0,0,0-.517.07.3.3,0,0,0-.2.28c0,.077.056.133.175.168a2.081,2.081,0,0,0,.594.056h.357a2.159,2.159,0,0,1,.706.084.5.5,0,0,1,.329.5.719.719,0,0,1-.489.678,2.376,2.376,0,0,1-.993.182,2.282,2.282,0,0,1-1.07-.189.714.714,0,0,1-.35-.671h.748a.529.529,0,0,0,.168.433.863.863,0,0,0,.531.133,1.118,1.118,0,0,0,.552-.1.367.367,0,0,0,.2-.357A.3.3,0,0,0,55.2,84a1.466,1.466,0,0,0-.566-.07h-.552a1.623,1.623,0,0,1-.622-.091.414.414,0,0,1-.259-.4c0-.245.161-.419.5-.538a1.279,1.279,0,0,1,.175-.056.636.636,0,0,1-.252-.538h.587a.528.528,0,0,0,.1.329.246.246,0,0,0,.189.126h.1a1.2,1.2,0,0,0,.524-.287,2.671,2.671,0,0,0,.545-.587l.678.175a4.235,4.235,0,0,1-.86.678A1.581,1.581,0,0,1,55.314,82.841Z" transform="translate(-38.634 -81.261)" fill="#fff"/>
        <path id="Path_157632" data-name="Path 157632" d="M60.8,84.852a2.448,2.448,0,0,1-1.23.273,2.951,2.951,0,0,1-1.321-.217.853.853,0,0,1-.447-.825.815.815,0,0,1,.189-.566A.8.8,0,0,1,58.6,83.3a.9.9,0,0,1,.594.168.571.571,0,0,1,.2.461.5.5,0,0,1-.189.426.638.638,0,0,1-.405.126,1.643,1.643,0,0,1-.2-.007.391.391,0,0,1-.154-.049.571.571,0,0,0,.405.287,2.465,2.465,0,0,0,.692.084,2.27,2.27,0,0,0,.636-.1c.259-.07.4-.161.426-.28a1.105,1.105,0,0,1-.364.063.655.655,0,0,1-.433-.133.509.509,0,0,1-.2-.426.637.637,0,0,1,.217-.517.74.74,0,0,1,.5-.154,1.067,1.067,0,0,1,.21.021l.007-.028c0-.035.007-.056.007-.084a.724.724,0,0,0-.14-.426.444.444,0,0,0-.377-.21.68.68,0,0,1,.035.189.353.353,0,0,1-.238.336,1.428,1.428,0,0,1-.6.1,1.278,1.278,0,0,1-.643-.133.39.39,0,0,1-.231-.357.423.423,0,0,1,.308-.4,2.171,2.171,0,0,1,.846-.126,1.94,1.94,0,0,1,1.188.315.877.877,0,0,1,.377.734.089.089,0,0,0,.007.042.11.11,0,0,1-.021.1.56.56,0,0,1,.231.245.669.669,0,0,1,.084.322A1.081,1.081,0,0,1,60.8,84.852Zm-2.006-1.223a.2.2,0,0,0-.175-.1.192.192,0,0,0-.189.1.73.73,0,0,0-.035.287.469.469,0,0,0,.056.231.188.188,0,0,0,.168.1.192.192,0,0,0,.175-.1.55.55,0,0,0,.056-.287A.432.432,0,0,0,58.793,83.629Zm.748-1.16a.262.262,0,0,0-.161-.077.367.367,0,0,0-.231.077.291.291,0,0,0-.1.224.219.219,0,0,0,.1.182.349.349,0,0,0,.217.07.242.242,0,0,0,.182-.077.311.311,0,0,0,.07-.217A.22.22,0,0,0,59.541,82.469Zm1.077,1.16a.21.21,0,0,0-.364,0,.752.752,0,0,0-.035.287.469.469,0,0,0,.056.231.19.19,0,0,0,.168.091.192.192,0,0,0,.175-.1.507.507,0,0,0,.056-.28A.621.621,0,0,0,60.617,83.629Z" transform="translate(-40.079 -81.336)" fill="#fff"/>
        <path id="Path_157633" data-name="Path 157633" d="M66.665,82.878a1.512,1.512,0,0,1,.4.2.981.981,0,0,1,.405.832,1.008,1.008,0,0,1-.482.895,2.169,2.169,0,0,1-2.118-.021,1.014,1.014,0,0,1-.4-.867.964.964,0,0,1,.357-.8,1.286,1.286,0,0,1,.468-.238.636.636,0,0,1-.252-.538h.587a.528.528,0,0,0,.1.329.274.274,0,0,0,.238.133,1.084,1.084,0,0,0,.587-.287,2.811,2.811,0,0,0,.538-.587l.678.175a4.235,4.235,0,0,1-.86.678A1.7,1.7,0,0,0,66.665,82.878Zm-.084.37a.8.8,0,0,0-.615-.217.752.752,0,0,0-.608.224,1.058,1.058,0,0,0-.189.7.943.943,0,0,0,.175.622.769.769,0,0,0,.608.217.757.757,0,0,0,.615-.238,1.04,1.04,0,0,0,.2-.685A.906.906,0,0,0,66.581,83.248Z" transform="translate(-42.086 -81.27)" fill="#fff"/>
        <path id="Path_157634" data-name="Path 157634" d="M72.367,86.144a.466.466,0,0,1-.357-.154.534.534,0,0,1-.147-.377.548.548,0,0,1,.056-.245l-.035-.035a.842.842,0,0,1-.245.252.624.624,0,0,1-.315.084.933.933,0,0,1-.377-.077.517.517,0,0,1-.238-.217.537.537,0,0,1-.3.217,1.425,1.425,0,0,1-.51.077.978.978,0,0,1-.629-.182.6.6,0,0,1-.231-.5h.636a.446.446,0,0,0,.084.315.494.494,0,0,0,.308.077.44.44,0,0,0,.287-.077.3.3,0,0,0,.1-.245h.517a.324.324,0,0,0,.084.245.377.377,0,0,0,.266.077.269.269,0,0,0,.2-.084.285.285,0,0,0,.084-.21.239.239,0,0,0-.014-.1H72.3v.28a.733.733,0,0,0,.1.377c.07.126.14.189.217.189Zm-.993-3.362a1.326,1.326,0,0,1,.266.119.58.58,0,0,1,.329.447h-.706c0-.112-.084-.21-.259-.294a1.01,1.01,0,0,0-.405-.1,1.411,1.411,0,0,0-.517.07.3.3,0,0,0-.2.28c0,.077.056.133.175.168a2.082,2.082,0,0,0,.594.056h.357a1.544,1.544,0,0,1,.706.14.586.586,0,0,1,.329.545.65.65,0,0,1-.489.629,3.057,3.057,0,0,1-.993.126,2.282,2.282,0,0,1-1.07-.189.714.714,0,0,1-.35-.671h.748a.529.529,0,0,0,.168.433.863.863,0,0,0,.531.133,1.118,1.118,0,0,0,.552-.1.367.367,0,0,0,.2-.357.3.3,0,0,0-.168-.3,1.466,1.466,0,0,0-.566-.07h-.545a1.623,1.623,0,0,1-.622-.091.414.414,0,0,1-.259-.4c0-.245.161-.419.5-.538a2.362,2.362,0,0,1,.238-.07v-.161a1.664,1.664,0,0,0,.44.1c.084,0,.168-.007.259-.007h.1a.954.954,0,0,0,.252-.07.424.424,0,0,0,.3-.405.264.264,0,0,0-.154-.245.505.505,0,0,0-.259-.077.252.252,0,0,1,.1.1.294.294,0,0,1,.028.14c0,.119-.077.21-.231.266a1.11,1.11,0,0,1-.447.084,1.018,1.018,0,0,1-.44-.1q-.231-.115-.231-.294a.394.394,0,0,1,.294-.377,2.488,2.488,0,0,1,1.5.021.515.515,0,0,1,.37.468A.623.623,0,0,1,71.375,82.781Zm-.769-.867a.2.2,0,0,0-.147-.056.281.281,0,0,0-.182.049.157.157,0,0,0-.056.133.189.189,0,0,0,.042.133.22.22,0,0,0,.175.056.261.261,0,0,0,.175-.049.2.2,0,0,0,.056-.147A.275.275,0,0,0,70.606,81.915Z" transform="translate(-43.462 -81.174)" fill="#fff"/>
        <path id="Path_157635" data-name="Path 157635" d="M76.778,82.825c.056.021.1.035.147.056a.855.855,0,0,1,.4.37.537.537,0,0,1,.238.245.7.7,0,0,1,.084.336,1.081,1.081,0,0,1-.566.93,2.448,2.448,0,0,1-1.23.273,2.951,2.951,0,0,1-1.321-.217.853.853,0,0,1-.447-.825.815.815,0,0,1,.189-.566.8.8,0,0,1,.608-.217.9.9,0,0,1,.594.168.571.571,0,0,1,.2.461.5.5,0,0,1-.189.426.638.638,0,0,1-.405.126,1.645,1.645,0,0,1-.2-.007.391.391,0,0,1-.154-.049.571.571,0,0,0,.405.287,2.465,2.465,0,0,0,.692.084,2.27,2.27,0,0,0,.636-.1c.259-.07.4-.161.426-.28a1.105,1.105,0,0,1-.364.063.694.694,0,0,1-.433-.126.528.528,0,0,1-.2-.44.609.609,0,0,1,.175-.482.771.771,0,0,1,.5-.147.79.79,0,0,1,.245.035.339.339,0,0,0-.217-.2,1.273,1.273,0,0,0-.377-.042h-.077a1.715,1.715,0,0,1-.189.014,1.64,1.64,0,0,1-.762-.147.572.572,0,0,1-.343-.552h.587a.433.433,0,0,0,.084.294.466.466,0,0,0,.384.133.973.973,0,0,0,.65-.287,2.63,2.63,0,0,0,.475-.587l.671.2a2.827,2.827,0,0,1-.832.685A.148.148,0,0,1,76.778,82.825Zm-1.706.72a.2.2,0,0,0-.175-.1.192.192,0,0,0-.189.1.73.73,0,0,0-.035.287.527.527,0,0,0,.056.245.188.188,0,0,0,.168.1.192.192,0,0,0,.175-.1.578.578,0,0,0,.056-.294A.442.442,0,0,0,75.073,83.545Zm1.825.028a.2.2,0,0,0-.175-.084.2.2,0,0,0-.189.091.615.615,0,0,0-.035.266.381.381,0,0,0,.056.217.213.213,0,0,0,.168.077.2.2,0,0,0,.175-.084.456.456,0,0,0,.056-.266A.365.365,0,0,0,76.9,83.573Z" transform="translate(-44.978 -81.252)" fill="#fff"/>
        <path id="Path_157636" data-name="Path 157636" d="M81.034,84.034a1.267,1.267,0,0,1-.573.119,1.175,1.175,0,0,1-.552-.119.45.45,0,0,1,.007-.818,1.132,1.132,0,0,1,.566-.126,1.16,1.16,0,0,1,.559.126.446.446,0,0,1,.273.405A.467.467,0,0,1,81.034,84.034Zm0,1.272a1.27,1.27,0,0,1-.573.112,1.177,1.177,0,0,1-.552-.112.455.455,0,0,1,.007-.825,1.215,1.215,0,0,1,.566-.119,1.246,1.246,0,0,1,.559.119.446.446,0,0,1,.273.405A.461.461,0,0,1,81.034,85.306Zm-.35-1.922a.321.321,0,0,0-.217-.056.349.349,0,0,0-.2.056.379.379,0,0,0,0,.475.313.313,0,0,0,.21.056.365.365,0,0,0,.217-.056.345.345,0,0,0,.084-.266A.269.269,0,0,0,80.685,83.384Zm0,1.272a.321.321,0,0,0-.217-.063.306.306,0,0,0-.2.063.291.291,0,0,0-.084.231.307.307,0,0,0,.084.238.313.313,0,0,0,.21.056.365.365,0,0,0,.217-.056.345.345,0,0,0,.084-.266A.265.265,0,0,0,80.685,84.656Z" transform="translate(-46.655 -81.622)" fill="#fff"/>
      </g>
    </g>
    <g id="Group_6345" data-name="Group 6345" transform="translate(80.475 17.75)">
      <g id="Group_6342" data-name="Group 6342" transform="translate(0 0)">
        <g id="Group_6341" data-name="Group 6341">
          <path id="Path_157637" data-name="Path 157637" d="M119.625,35.393h-8.64v2.09a.157.157,0,0,1,.1.056.131.131,0,0,0,.091.049.315.315,0,0,1-.119-.014,11.672,11.672,0,0,1,1.929-.412,8.107,8.107,0,0,1,1.412-.133q2.915,0,3.747,1.636a11.266,11.266,0,0,1,.559,4.4v4.991c-.182-.07-.867-.35-2.062-.846,0-.28-.056-.454-.168-.531-.461.266-.832.468-1.125.608a7.571,7.571,0,0,1-3.258.664,4.927,4.927,0,0,1-3.943-1.608,2.593,2.593,0,0,1-.671-1.741,3.073,3.073,0,0,1,1.063-2.139,6.951,6.951,0,0,1,5.124-2.062,4.847,4.847,0,0,1,2.985.853v-1.2a3.125,3.125,0,0,0-1.111-.972,3.481,3.481,0,0,0-1.475-.224,10.383,10.383,0,0,0-3.824.762c-.517.217-1.028.412-1.517.58v-.965c.112-.1.28-.238.5-.426.035-.042.056-.07.063-.077V35.379H106.63V33.82h13Zm-2.971,8.221q0-.566-1.363-1.028a6.172,6.172,0,0,0-1.88-.377,5.423,5.423,0,0,0-4.383,1.971,2.278,2.278,0,0,0-.664,1.3q.273.944,2.139.944a8.388,8.388,0,0,0,4.411-1.209C116.074,44.522,116.654,43.984,116.654,43.614Z" transform="translate(-106.63 -24.599)" fill="#fff"/>
          <path id="Path_157638" data-name="Path 157638" d="M139.783,35.4H124.9V33.84h14.876l.007,1.559Zm-1.042,7.186a4.777,4.777,0,0,1-.853,2.7,6.171,6.171,0,0,1-2.09,1.929,3.845,3.845,0,0,1-5.082-.461,29.473,29.473,0,0,1-2.286-2.013v11l-2.076-1.091V37.482h2.02v3.167l.79-.832q2.737-2.863,4.439-2.866a4.736,4.736,0,0,1,3.516,1.908A5.666,5.666,0,0,1,138.741,42.585Zm-1.286-1.51a2.571,2.571,0,0,0-1.028-1.894,1.853,1.853,0,0,0-1.286-.454,6.638,6.638,0,0,0-3.8,1.852Q129,42.487,129,43.962c0,.58.538,1.091,1.622,1.531a3.642,3.642,0,0,0,1.412.3,5.233,5.233,0,0,0,3.915-1.741A4.4,4.4,0,0,0,137.455,41.075Z" transform="translate(-112.128 -24.606)" fill="#fff"/>
          <path id="Path_157639" data-name="Path 157639" d="M167.461,33.527H160.9V43.978a1.525,1.525,0,0,0,.287.86.862.862,0,0,0,.727.454q1.929,0,1.929-3.992l2.607,1.489q-1.489,3.3-4.621,3.293A3.166,3.166,0,0,1,159,44.418a2.7,2.7,0,0,1-.44-1.426V33.527H155.85V31.968h2.712V27.62l2.335,1.615v2.726h6.564v1.566Z" transform="translate(-121.443 -22.734)" fill="#fff"/>
          <path id="Path_157640" data-name="Path 157640" d="M185.807,35.4h-3.544v2.566a2.43,2.43,0,0,1,.881.35v1.538a9.591,9.591,0,0,0-3.216-.545,6.81,6.81,0,0,0-2.335.405c-1,.357-1.51.867-1.517,1.524-.014.692.965,1.042,2.943,1.042.042,0,.322-.014.846-.042l.776-.042v1.2c-1.174.035-1.908.063-2.2.091-2.069.182-3.1.776-3.1,1.79,0,.559.357,1.007,1.077,1.321a4.385,4.385,0,0,0,1.818.377,7.978,7.978,0,0,0,6.823-3.733v3.279a9.637,9.637,0,0,1-5.278,1.412,10.525,10.525,0,0,1-5.76-1.545,1.938,1.938,0,0,1-.35-3.376,8.087,8.087,0,0,1,1.671-.986l-.853-.5a1.321,1.321,0,0,1-.762-1.181q0-1.615,2.426-2.314a14.851,14.851,0,0,1,4.138-.531v-2.1H171.98V33.83h13.841V35.4h-.014Z" transform="translate(-126.297 -24.602)" fill="#fff"/>
          <path id="Path_157641" data-name="Path 157641" d="M211.191,35.4h-4.257v1.818a5.423,5.423,0,0,1,2.545,1.7,4.858,4.858,0,0,1,.8,2.95,5.989,5.989,0,0,1-2.139,4.6,13.334,13.334,0,0,1-1.23.951,3.773,3.773,0,0,1-1.3.727,12.731,12.731,0,0,1-2.5-2.286,6.9,6.9,0,0,0,2.866-.881,8.729,8.729,0,0,0,2.4-1.846,3.666,3.666,0,0,0,1.063-2.482,1.842,1.842,0,0,0-1.44-1.8,3.891,3.891,0,0,0-1.391-.224q-4.2.168-5.152,4.9L198.8,42.434a4.7,4.7,0,0,1,.846-2.44,3.53,3.53,0,0,0,.322-.559c0-.405-.58-.608-1.748-.608a3.913,3.913,0,0,0-3.488,1.971,3.256,3.256,0,0,0-.545,1.741,4.8,4.8,0,0,0,1.671,3.439l2.468,2.384a14.742,14.742,0,0,1-4.187-2.258q-2.58-1.971-2.58-4.229a4.523,4.523,0,0,1,2.88-4.257,5.9,5.9,0,0,1,2.593-.608,6.609,6.609,0,0,1,3.425,1.028,5.228,5.228,0,0,0,.755.412c.657-.287,1.377-.594,2.167-.923a4.829,4.829,0,0,1,1.258-.35V35.409H191.17V33.85H211.2V35.4h-.007Z" transform="translate(-132.072 -24.609)" fill="#fff"/>
          <path id="Path_157642" data-name="Path 157642" d="M234.206,35.4H219.33V33.84h14.876Zm-1.035,7.186a4.777,4.777,0,0,1-.853,2.7,6.171,6.171,0,0,1-2.09,1.929,3.845,3.845,0,0,1-5.082-.461,29.473,29.473,0,0,1-2.286-2.013v11l-2.076-1.091V37.482h2.02v3.167l.79-.832q2.737-2.863,4.439-2.866a4.736,4.736,0,0,1,3.516,1.908A5.7,5.7,0,0,1,233.171,42.585Zm-1.286-1.51a2.571,2.571,0,0,0-1.028-1.894,1.853,1.853,0,0,0-1.286-.454,6.638,6.638,0,0,0-3.8,1.852q-2.338,1.908-2.335,3.383c0,.58.538,1.091,1.622,1.531a3.641,3.641,0,0,0,1.412.3,5.233,5.233,0,0,0,3.915-1.741A4.4,4.4,0,0,0,231.885,41.075Z" transform="translate(-140.547 -24.606)" fill="#fff"/>
          <path id="Path_157643" data-name="Path 157643" d="M243.375,28.313V44.286c-.084-.028-.2-.077-.336-.14l-.671-.35a12.4,12.4,0,0,0-1.216-.594V28.341a8.779,8.779,0,0,0-.531-2.894,11.548,11.548,0,0,0-2.293-3.894l-.818-.923h2.761a10.37,10.37,0,0,1,2.824,5.285A11.99,11.99,0,0,1,243.375,28.313Zm-2.635,3.111h-1.482V29.864h1.482Zm4.439,0H243.8V29.864h1.377Z" transform="translate(-146.018 -20.63)" fill="#fff"/>
          <path id="Path_157644" data-name="Path 157644" d="M261.741,35.4H258.2v2.566a2.431,2.431,0,0,1,.881.35v1.538a9.591,9.591,0,0,0-3.216-.545,6.81,6.81,0,0,0-2.335.405c-1,.357-1.51.867-1.517,1.524-.014.692.965,1.042,2.943,1.042.042,0,.322-.014.846-.042l.776-.042v1.2c-1.174.035-1.908.063-2.2.091-2.069.182-3.1.776-3.1,1.79,0,.559.357,1.007,1.077,1.321a4.385,4.385,0,0,0,1.818.377,7.978,7.978,0,0,0,6.823-3.733v3.279a9.637,9.637,0,0,1-5.278,1.412,10.525,10.525,0,0,1-5.76-1.545A1.938,1.938,0,0,1,249.606,43a8.085,8.085,0,0,1,1.671-.986l-.853-.5a1.321,1.321,0,0,1-.762-1.181q0-1.615,2.426-2.314a14.85,14.85,0,0,1,4.138-.531v-2.1H247.9V33.83h13.841V35.4Z" transform="translate(-149.145 -24.602)" fill="#fff"/>
          <path id="Path_157645" data-name="Path 157645" d="M280.57,35.4h-1.412v4.928a7.892,7.892,0,0,0-2.2-.776,10.517,10.517,0,0,0-2.335-.315,8.485,8.485,0,0,0-3.985.846,1.425,1.425,0,0,0-.909,1.258c0,.692.363,1.035,1.091,1.035a5.378,5.378,0,0,0,1.727-.391c.461-.161,1.049-.37,1.762-.622a5.605,5.605,0,0,1,1.608-.154,4.006,4.006,0,0,1,3.348,1.391,2.4,2.4,0,0,1,.531,1.559c0,1.377-.867,2.454-2.593,3.244a5.856,5.856,0,0,1-2.048.559,2.637,2.637,0,0,0,1.776.937,2.5,2.5,0,0,0,.58-.077l1.307,2.139a2.694,2.694,0,0,1-1.65.35,2.374,2.374,0,0,1-1.713-.685,8.341,8.341,0,0,1-1.063-1.573c-.391-.685-.713-1.028-.972-1.035a7.486,7.486,0,0,1-3.7-.867,1.556,1.556,0,0,1-.818-1.391q0-1.091,1.3-1.091a6.386,6.386,0,0,1,2.006.748,6.071,6.071,0,0,0,2.51.748,7.669,7.669,0,0,0,3.7-.937,1.312,1.312,0,0,0,.846-1.118c0-.657-.517-.986-1.559-.986a20.429,20.429,0,0,0-3.1.7,10.837,10.837,0,0,1-1.894.412,3.99,3.99,0,0,1-3.4-1.943,3.454,3.454,0,0,1-.65-2.013q-.011-2.192,3-2.957a9.371,9.371,0,0,1,2.321-.315,14.846,14.846,0,0,1,3.53.608V35.4H267.19V33.84h13.387V35.4Z" transform="translate(-154.95 -24.606)" fill="#fff"/>
          <path id="Path_157646" data-name="Path 157646" d="M310.986,35.4H296.11V33.84h14.876Zm-1.042,7.186a4.777,4.777,0,0,1-.853,2.7A6.171,6.171,0,0,1,307,47.213a3.845,3.845,0,0,1-5.082-.461,29.482,29.482,0,0,1-2.286-2.013v11l-2.076-1.091V37.482h2.02v3.167l.79-.832q2.737-2.863,4.439-2.866a4.736,4.736,0,0,1,3.516,1.908A5.666,5.666,0,0,1,309.944,42.585Zm-1.279-1.51a2.57,2.57,0,0,0-1.028-1.894,1.853,1.853,0,0,0-1.286-.454,6.638,6.638,0,0,0-3.8,1.852q-2.338,1.908-2.335,3.383c0,.58.538,1.091,1.622,1.531a3.641,3.641,0,0,0,1.412.3,5.233,5.233,0,0,0,3.915-1.741A4.4,4.4,0,0,0,308.665,41.075Z" transform="translate(-163.653 -24.606)" fill="#fff"/>
          <path id="Path_157647" data-name="Path 157647" d="M330.772,35.4h-2.915v3.572a6.511,6.511,0,0,0,1.035,1.153,4.253,4.253,0,0,1,.79,2.754,4.7,4.7,0,0,1-2.635,4.4,5.636,5.636,0,0,1-2.712.678,6.947,6.947,0,0,1-4.383-1.88,5.6,5.6,0,0,1-2.363-4.278,4.006,4.006,0,0,1,.762-2.2,6.313,6.313,0,0,1,1.664-1.7,4.828,4.828,0,0,1,2.817-.8,11.233,11.233,0,0,1,2.684.482c.049,0,.077-.035.077-.1V35.419H316.7V33.86h14.072V35.4Zm-2.992,5.746a2.392,2.392,0,0,0-1.608-2.454,2.939,2.939,0,0,0-1.028-.231,5.79,5.79,0,0,0-3.46,1.44,5.217,5.217,0,0,0-2.167,4.3,2.285,2.285,0,0,0,1.4,2,2.678,2.678,0,0,0,1.286.35A5.8,5.8,0,0,0,325.732,45,4.869,4.869,0,0,0,327.78,41.151Z" transform="translate(-169.85 -24.612)" fill="#fff"/>
          <path id="Path_157648" data-name="Path 157648" d="M349.424,35.4H336.31V33.84h13.114Zm-1.077,4.67a2.692,2.692,0,0,1-.923,1.727,5.411,5.411,0,0,1-1.636,1.216l-1.943-2.2a3.254,3.254,0,0,0,1.671-.65,1.821,1.821,0,0,0,.909-1.482c0-.294-.189-.545-.573-.755a1.941,1.941,0,0,0-.972-.287,3.448,3.448,0,0,0-2.139.958A5.608,5.608,0,0,0,340.42,42.9v5.5l-2.489-1.3V37.51h2.489V38.5a6.6,6.6,0,0,1,2.314-1.167,5.433,5.433,0,0,1,1.769-.3,4.177,4.177,0,0,1,3.2,1.44A2.28,2.28,0,0,1,348.348,40.069Z" transform="translate(-175.752 -24.606)" fill="#fff"/>
          <path id="Path_157649" data-name="Path 157649" d="M366.161,33.527H359.6V43.978a1.525,1.525,0,0,0,.287.86.862.862,0,0,0,.727.454q1.929,0,1.929-3.992l2.607,1.489q-1.489,3.3-4.621,3.293a3.166,3.166,0,0,1-2.824-1.664,2.7,2.7,0,0,1-.44-1.426V33.527H354.55V31.968h2.712V27.62l2.335,1.615v2.726h6.564v1.566Z" transform="translate(-181.241 -22.734)" fill="#fff"/>
          <path id="Path_157650" data-name="Path 157650" d="M383.475,35.393h-8.64v2.09a.157.157,0,0,1,.1.056.131.131,0,0,0,.091.049.316.316,0,0,1-.119-.014,11.673,11.673,0,0,1,1.929-.412,8.107,8.107,0,0,1,1.412-.133q2.915,0,3.747,1.636a11.266,11.266,0,0,1,.559,4.4v4.991c-.182-.07-.867-.35-2.062-.846,0-.28-.056-.454-.168-.531-.461.266-.832.468-1.125.608a7.571,7.571,0,0,1-3.258.664A4.927,4.927,0,0,1,372,46.34a2.593,2.593,0,0,1-.671-1.741A3.073,3.073,0,0,1,372.4,42.46a6.951,6.951,0,0,1,5.124-2.062,4.847,4.847,0,0,1,2.985.853v-1.2a3.125,3.125,0,0,0-1.111-.972,3.481,3.481,0,0,0-1.475-.224,10.383,10.383,0,0,0-3.824.762c-.517.217-1.028.412-1.517.58v-.965c.112-.1.28-.238.5-.426.035-.042.056-.07.063-.077V35.379H370.48V33.82h13v1.573ZM380.5,43.614q0-.566-1.363-1.028a6.172,6.172,0,0,0-1.88-.377,5.423,5.423,0,0,0-4.383,1.971,2.278,2.278,0,0,0-.664,1.3q.273.944,2.139.944a8.387,8.387,0,0,0,4.411-1.209C379.924,44.522,380.5,43.984,380.5,43.614Z" transform="translate(-186.035 -24.599)" fill="#fff"/>
          <path id="Path_157651" data-name="Path 157651" d="M392.085,28.313V44.286c-.084-.028-.2-.077-.336-.14l-.671-.35a12.4,12.4,0,0,0-1.216-.594V28.341a8.778,8.778,0,0,0-.531-2.894,11.549,11.549,0,0,0-2.293-3.894l-.818-.923h2.761a10.37,10.37,0,0,1,2.824,5.285A11.5,11.5,0,0,1,392.085,28.313Zm-2.628,3.111h-1.482V29.864h1.482Zm4.432,0h-1.377V29.864h1.377Z" transform="translate(-190.772 -20.63)" fill="#fff"/>
        </g>
      </g>
      <g id="Group_6344" data-name="Group 6344" transform="translate(0.776 33.715)">
        <g id="Group_6343" data-name="Group 6343">
          <path id="Path_157652" data-name="Path 157652" d="M111.543,76.6a3.729,3.729,0,0,1-3.8-3.866,3.681,3.681,0,0,1,1.125-2.789,3.885,3.885,0,0,1,2.789-1.07,3.462,3.462,0,0,1,3,1.545l-1.063.615a2.42,2.42,0,0,0-1.929-.993,2.431,2.431,0,0,0-1.839.762,2.912,2.912,0,0,0,0,3.866,2.448,2.448,0,0,0,1.839.769,2.067,2.067,0,0,0,1.454-.517,2.451,2.451,0,0,0,.727-1.314h-2.649V72.459h4.068a4.438,4.438,0,0,1-.986,3.034A3.483,3.483,0,0,1,111.543,76.6Z" transform="translate(-107.74 -68.866)" fill="#fff"/>
          <path id="Path_157653" data-name="Path 157653" d="M125.767,75.5a3.988,3.988,0,0,1-5.481,0,4.1,4.1,0,0,1,0-5.536,3.988,3.988,0,0,1,5.481,0,4.1,4.1,0,0,1,0,5.536Zm-2.74-.07a2.281,2.281,0,0,0,1.79-.769,3.069,3.069,0,0,0,0-3.866,2.491,2.491,0,0,0-3.586,0,3.1,3.1,0,0,0,0,3.873A2.28,2.28,0,0,0,123.027,75.427Z" transform="translate(-111.192 -68.863)" fill="#fff"/>
          <path id="Path_157654" data-name="Path 157654" d="M135.055,76.509h-1.636L130.49,69.05h1.489l2.258,6.026,2.258-6.026h1.489Z" transform="translate(-114.587 -68.917)" fill="#fff"/>
          <path id="Path_157655" data-name="Path 157655" d="M147.48,76.509h-5.11V69.05h5.11V70.2h-3.8v1.922H147.4v1.153h-3.726v2.083h3.8Z" transform="translate(-118.162 -68.917)" fill="#fff"/>
          <path id="Path_157656" data-name="Path 157656" d="M157.381,76.509h-1.524l-1.643-2.782h-1.307v2.782H151.6V69.05h3.279a2.436,2.436,0,0,1,1.776.65,2.243,2.243,0,0,1,.671,1.692,2.1,2.1,0,0,1-1.776,2.188Zm-2.67-3.936a1.313,1.313,0,0,0,.916-.329,1.133,1.133,0,0,0,.357-.867,1.1,1.1,0,0,0-.357-.853,1.308,1.308,0,0,0-.916-.322h-1.8v2.37Z" transform="translate(-120.94 -68.917)" fill="#fff"/>
          <path id="Path_157657" data-name="Path 157657" d="M168.126,76.509h-1.265l-3.894-5.334v5.334H161.66V69.05H163l3.817,5.166V69.05h1.307Z" transform="translate(-123.967 -68.917)" fill="#fff"/>
          <path id="Path_157658" data-name="Path 157658" d="M179.574,76.509h-1.489l-.545-1.44h-3.425l-.545,1.44H172.08l2.929-7.459h1.636Zm-2.4-2.593-1.342-3.558-1.342,3.558Z" transform="translate(-127.103 -68.917)" fill="#fff"/>
          <path id="Path_157659" data-name="Path 157659" d="M191.705,76.509H190.4v-5.76l-2.279,5.76h-.559l-2.293-5.76v5.76H183.96V69.05h1.846l2.034,5.124,2.027-5.124h1.846v7.459Z" transform="translate(-130.678 -68.917)" fill="#fff"/>
          <path id="Path_157660" data-name="Path 157660" d="M202.42,76.509h-5.11V69.05h5.11V70.2h-3.8v1.922h3.726v1.153h-3.726v2.083h3.8Z" transform="translate(-134.696 -68.917)" fill="#fff"/>
          <path id="Path_157661" data-name="Path 157661" d="M213.006,76.509h-1.265l-3.894-5.334v5.334H206.54V69.05h1.342l3.817,5.166V69.05h1.307Z" transform="translate(-137.474 -68.917)" fill="#fff"/>
          <path id="Path_157662" data-name="Path 157662" d="M220.945,76.509h-1.307V70.2H217.38V69.05h5.83V70.2h-2.258v6.305Z" transform="translate(-140.736 -68.917)" fill="#fff"/>
          <path id="Path_157663" data-name="Path 157663" d="M237.507,75.5a3.988,3.988,0,0,1-5.481,0,4.1,4.1,0,0,1,0-5.536,3.988,3.988,0,0,1,5.481,0,4.1,4.1,0,0,1,0,5.536Zm-2.74-.07a2.281,2.281,0,0,0,1.79-.769,3.069,3.069,0,0,0,0-3.866,2.491,2.491,0,0,0-3.586,0,3.1,3.1,0,0,0,0,3.873A2.29,2.29,0,0,0,234.767,75.427Z" transform="translate(-144.82 -68.863)" fill="#fff"/>
          <path id="Path_157664" data-name="Path 157664" d="M244.967,76.509H243.66V69.05h5.11V70.2h-3.8v1.922h3.726v1.153h-3.726Z" transform="translate(-148.645 -68.917)" fill="#fff"/>
          <path id="Path_157665" data-name="Path 157665" d="M263.184,76.509h-1.489l-.545-1.44h-3.425l-.545,1.44H255.69l2.929-7.459h1.636Zm-2.4-2.593-1.342-3.558L258.1,73.915Z" transform="translate(-152.265 -68.917)" fill="#fff"/>
          <path id="Path_157666" data-name="Path 157666" d="M274.026,76.509h-1.265l-3.894-5.334v5.334H267.56V69.05H268.9l3.817,5.166V69.05h1.307Z" transform="translate(-155.837 -68.917)" fill="#fff"/>
          <path id="Path_157667" data-name="Path 157667" d="M281.872,76.509H279.09V69.05h2.775a3.911,3.911,0,0,1,2.824,1.042,3.9,3.9,0,0,1,0,5.383A3.879,3.879,0,0,1,281.872,76.509Zm-.014-1.153a2.423,2.423,0,0,0,1.866-.741,2.828,2.828,0,0,0,.014-3.691,2.448,2.448,0,0,0-1.873-.727H280.39v5.159Z" transform="translate(-159.307 -68.917)" fill="#fff"/>
          <path id="Path_157668" data-name="Path 157668" d="M296.944,76.509h-1.307V73.244h-3.88v3.265H290.45V69.05h1.307v3.041h3.88V69.05h1.307Z" transform="translate(-162.726 -68.917)" fill="#fff"/>
          <path id="Path_157669" data-name="Path 157669" d="M307.8,76.509h-1.524l-1.643-2.782h-1.307v2.782H302.02V69.05H305.3a2.436,2.436,0,0,1,1.776.65,2.243,2.243,0,0,1,.671,1.692,2.1,2.1,0,0,1-1.776,2.188Zm-2.677-3.936a1.313,1.313,0,0,0,.916-.329,1.133,1.133,0,0,0,.357-.867,1.1,1.1,0,0,0-.357-.853,1.308,1.308,0,0,0-.916-.322h-1.8v2.37Z" transform="translate(-166.208 -68.917)" fill="#fff"/>
          <path id="Path_157670" data-name="Path 157670" d="M318.464,76.509h-1.489l-.545-1.44H313l-.545,1.44H310.97L313.9,69.05h1.636Zm-2.4-2.593-1.342-3.558-1.342,3.558Z" transform="translate(-168.901 -68.917)" fill="#fff"/>
          <path id="Path_157671" data-name="Path 157671" d="M328.287,76.509H326.98V69.05h3.286a2.34,2.34,0,0,1,1.776.671,2.445,2.445,0,0,1,0,3.321,2.361,2.361,0,0,1-1.776.671h-1.978v2.8Zm1.8-3.95a1.279,1.279,0,0,0,.909-.322,1.088,1.088,0,0,0,.35-.853,1.127,1.127,0,0,0-.35-.86,1.291,1.291,0,0,0-.909-.322h-1.8v2.363l1.8-.007Z" transform="translate(-173.72 -68.917)" fill="#fff"/>
          <path id="Path_157672" data-name="Path 157672" d="M342.5,76.509h-1.524l-1.643-2.782h-1.307v2.782H336.72V69.05H340a2.436,2.436,0,0,1,1.776.65,2.243,2.243,0,0,1,.671,1.692,2.1,2.1,0,0,1-1.776,2.188Zm-2.67-3.936a1.313,1.313,0,0,0,.916-.329,1.133,1.133,0,0,0,.357-.867,1.1,1.1,0,0,0-.357-.853,1.308,1.308,0,0,0-.916-.322h-1.8v2.37Z" transform="translate(-176.651 -68.917)" fill="#fff"/>
          <path id="Path_157673" data-name="Path 157673" d="M353.174,76.509h-1.489l-.545-1.44h-3.425l-.545,1.44H345.68l2.929-7.459h1.636Zm-2.4-2.593-1.342-3.558-1.342,3.558Z" transform="translate(-179.347 -68.917)" fill="#fff"/>
          <path id="Path_157674" data-name="Path 157674" d="M360.332,76.509H357.55V69.05h2.775a3.911,3.911,0,0,1,2.824,1.042,3.9,3.9,0,0,1,0,5.383A3.867,3.867,0,0,1,360.332,76.509Zm-.007-1.153a2.423,2.423,0,0,0,1.866-.741,2.828,2.828,0,0,0,.014-3.691,2.448,2.448,0,0,0-1.873-.727h-1.475v5.159Z" transform="translate(-182.92 -68.917)" fill="#fff"/>
          <path id="Path_157675" data-name="Path 157675" d="M374.02,76.509h-5.11V69.05h5.11V70.2h-3.8v1.922h3.726v1.153h-3.726v2.083h3.8Z" transform="translate(-186.338 -68.917)" fill="#fff"/>
          <path id="Path_157676" data-name="Path 157676" d="M380.5,76.585A4.054,4.054,0,0,1,377.46,75.4l.741-1.021a3.077,3.077,0,0,0,2.363,1.042,1.737,1.737,0,0,0,1.118-.3.914.914,0,0,0,.371-.727.723.723,0,0,0-.322-.6,2.065,2.065,0,0,0-.8-.35c-.322-.07-.671-.168-1.049-.28s-.72-.238-1.049-.37a1.812,1.812,0,0,1-.8-.65,1.839,1.839,0,0,1-.322-1.084,1.96,1.96,0,0,1,.748-1.573,2.986,2.986,0,0,1,1.971-.622,3.809,3.809,0,0,1,2.782,1.049l-.741.972a2.945,2.945,0,0,0-2.167-.86,1.447,1.447,0,0,0-.909.259.8.8,0,0,0-.343.671.589.589,0,0,0,.238.475,1.793,1.793,0,0,0,.622.315c.252.077.531.154.846.224a8.18,8.18,0,0,1,.93.273,4.726,4.726,0,0,1,.846.4,1.8,1.8,0,0,1,.622.65,1.933,1.933,0,0,1,.238.979,2.135,2.135,0,0,1-.734,1.657A3.091,3.091,0,0,1,380.5,76.585Z" transform="translate(-188.911 -68.86)" fill="#fff"/>
          <path id="Path_157677" data-name="Path 157677" d="M394.144,76.509h-1.307V73.244h-3.88v3.265H387.65V69.05h1.307v3.041h3.88V69.05h1.307Z" transform="translate(-191.978 -68.917)" fill="#fff"/>
        </g>
      </g>
    </g>
  </g>
</svg>
